<svg width="14" height="15" viewBox="0 0 14 15" fill="none" xmlns="http://www.w3.org/2000/svg">
    <path opacity="0.5"
          d="M10.7541 14.033H10.7335C7.90381 13.9634 5.2035 12.8335 3.16742 10.8673C1.20042 8.83301 0.0699153 6.13373 8.15931e-05 3.30489C-0.00408537 2.90861 0.151505 2.52733 0.431797 2.24717L2.43085 0.249593C2.71848 -0.0379504 3.18473 -0.0379504 3.47236 0.249593L6.41864 3.19587C6.70618 3.48351 6.70618 3.94975 6.41864 4.23738L5.24307 5.41074C5.46111 6.22533 5.86273 6.97919 6.41717 7.61456C7.05139 8.16919 7.80428 8.57109 8.61804 8.78939L9.79655 7.6153C10.0842 7.32775 10.5504 7.32775 10.8381 7.6153L13.7843 10.5616C14.0719 10.8492 14.0719 11.3155 13.7843 11.6031L11.7853 13.6014C11.5127 13.8768 11.1416 14.0322 10.7541 14.033ZM2.95013 1.8126H2.94645L1.47331 3.28868C1.53337 5.73311 2.50916 8.06586 4.20746 9.82501C5.9667 11.5227 8.29898 12.4984 10.743 12.5592L12.2213 11.0823L10.3122 9.1783L9.35977 10.1299C9.22353 10.2677 9.03792 10.3454 8.84417 10.3458C8.79243 10.3458 8.74083 10.3404 8.69022 10.3296C7.46282 10.058 6.32317 9.4829 5.37566 8.65681C4.54956 7.70929 3.97441 6.56964 3.70291 5.34224C3.65169 5.09826 3.72735 4.84493 3.90399 4.66901L4.85564 3.71663L2.95013 1.8126Z"
          fill="#339A4C"/>
</svg>
