<svg width="14" height="16" viewBox="0 0 14 16" fill="none" xmlns="http://www.w3.org/2000/svg">
    <g opacity="0.5">
        <path d="M7.00912 3.41045C5.446 3.41045 4.17437 4.68208 4.17437 6.24521C4.17437 7.80833 5.446 9.07996 7.00912 9.07996C8.57224 9.07996 9.84388 7.80833 9.84388 6.24521C9.84388 4.68208 8.57227 3.41045 7.00912 3.41045ZM7.00912 7.80744C6.14775 7.80744 5.44688 7.10658 5.44688 6.24521C5.44688 5.38384 6.14775 4.68297 7.00912 4.68297C7.87049 4.68297 8.57136 5.38384 8.57136 6.24521C8.57136 7.10658 7.87049 7.80744 7.00912 7.80744Z"
              fill="#339A4C" stroke="#339A4C" stroke-width="0.1"/>
        <path d="M6.60935 14.9772L6.60937 14.9773L6.9778 15.275L7.00923 15.3004L7.04065 15.275L7.40909 14.9773L7.4091 14.9773C7.46709 14.9304 8.8241 13.8286 10.2005 12.2484C12.0981 10.0698 13.0685 8.10541 13.0685 6.41146V6.24534C13.0685 2.90422 10.3503 0.186084 7.00923 0.186084C3.66811 0.186084 0.95 2.90422 0.95 6.24531V6.41143C0.95 8.10538 1.92036 10.0698 3.81798 12.2484C5.19439 13.8286 6.5514 14.9304 6.60935 14.9772ZM11.7959 6.41146C11.7959 7.80915 10.8937 9.36245 9.83377 10.7026C8.79501 12.016 7.61298 13.1146 7.00923 13.6458C6.40534 13.1145 5.2233 12.0158 4.18456 10.7024C3.12467 9.36226 2.22252 7.80905 2.22252 6.41146V6.24534C2.22252 3.606 4.36989 1.45863 7.00923 1.45863C9.64857 1.45863 11.7959 3.606 11.7959 6.24534V6.41146Z"
              fill="#339A4C" stroke="#339A4C" stroke-width="0.1"/>
    </g>
</svg>
