<svg width="90" height="115" viewBox="0 0 90 115" fill="none" xmlns="http://www.w3.org/2000/svg">
<path d="M45.2424 0.468262C20.7642 0.468262 0.871094 20.3425 0.871094 44.7975C0.871094 59.7217 9.52349 72.2077 19.581 80.9258C22.7609 83.6594 28.3073 88.0185 33.2621 94.4462C38.7346 101.613 43.6894 109.297 45.2424 114.468C46.7953 109.297 51.7501 101.613 57.2226 94.4462C62.1774 88.0185 67.7238 83.6594 70.9037 80.9258C80.9612 72.2077 89.6136 59.7217 89.6136 44.7975C89.6136 20.3425 69.7205 0.468262 45.2424 0.468262ZM45.2424 19.3821C48.5831 19.3821 51.8912 20.0395 54.9776 21.3167C58.0641 22.5939 60.8685 24.466 63.2308 26.8261C65.5931 29.1861 67.467 31.9879 68.7454 35.0714C70.0239 38.155 70.6819 41.4599 70.6819 44.7975C70.6819 48.1351 70.0239 51.44 68.7454 54.5236C67.467 57.6071 65.5931 60.4089 63.2308 62.7689C60.8685 65.1289 58.0641 67.001 54.9776 68.2783C51.8912 69.5555 48.5831 70.2129 45.2424 70.2129C38.4954 70.2129 32.0247 67.5352 27.2539 62.7689C22.4831 58.0026 19.8028 51.5381 19.8028 44.7975C19.8028 38.0569 22.4831 31.5924 27.2539 26.8261C32.0247 22.0598 38.4954 19.3821 45.2424 19.3821V19.3821Z" fill="#339A4C"/>
</svg>
