<svg width="49" height="49" viewBox="0 0 49 49" fill="none" xmlns="http://www.w3.org/2000/svg">
<path d="M37.0245 20.4393C37.3775 18.9463 36.4532 17.4498 34.9602 17.0969C33.4672 16.744 31.9707 17.6682 31.6178 19.1613C31.2649 20.6543 32.1891 22.1507 33.6821 22.5037C35.1752 22.8566 36.6716 21.9323 37.0245 20.4393Z" fill="#E2E1E3"/>
<path d="M34.318 17.0088C33.805 17.0088 33.3249 17.1484 32.9126 17.3907C33.7339 17.8734 34.2856 18.7655 34.2856 19.7871C34.2856 20.8086 33.7339 21.7008 32.9126 22.1835C33.3249 22.4259 33.805 22.5654 34.318 22.5654C35.8524 22.5654 37.0964 21.3215 37.0964 19.787C37.0964 18.2527 35.8524 17.0088 34.318 17.0088Z" fill="#C2BBC5"/>
<path d="M23.3716 18.1703C23.3716 12.0788 18.3904 7.15085 12.2791 7.23733C6.47512 7.3195 1.55987 12.2584 1.50394 18.0627C1.46355 22.2605 3.78931 25.9184 7.2286 27.7855C7.57152 27.9717 7.70606 28.3951 7.53095 28.7438L6.44326 30.9098C6.02108 31.7505 6.63224 32.7413 7.57302 32.7413H8.28481C8.47763 32.7413 8.63391 32.8976 8.63391 33.0904V44.3149C8.63391 44.7892 8.85924 45.2353 9.24104 45.5166L11.5519 47.2197C12.0785 47.6078 12.7966 47.6078 13.3232 47.2197L15.634 45.5166C16.0158 45.2353 16.2412 44.7892 16.2412 44.3149V33.0904C16.2412 32.8976 16.3974 32.7413 16.5903 32.7413H17.302C18.2427 32.7413 18.854 31.7505 18.4318 30.9098L17.3442 28.7439C17.1687 28.3944 17.3048 27.971 17.6484 27.7844C21.0573 25.9329 23.3716 22.3222 23.3716 18.1703Z" fill="white"/>
<path d="M15.215 11.863C15.2795 12.1141 15.3107 12.3784 15.3037 12.6511C15.2663 14.1219 14.0896 15.3461 12.6211 15.4376C10.9547 15.5413 9.57092 14.2204 9.57092 12.5763C9.57092 12.3104 9.60718 12.0531 9.67502 11.8089C9.79316 11.3836 9.34137 11.018 8.94702 11.2163C6.40343 12.4955 4.6582 15.129 4.6582 18.1703C4.6582 20.4675 5.65398 22.5318 7.2373 23.9559C7.65442 24.331 8.3159 24.2014 8.56681 23.6996L9.07819 22.6769C9.22257 22.3881 9.51771 22.2057 9.84067 22.2057H15.525C15.8637 22.2057 16.1703 22.4062 16.306 22.7165L16.5922 23.3708C16.8341 23.9237 17.5584 24.0571 17.9818 23.6269C19.3775 22.2092 20.2338 20.2591 20.2171 18.1087C20.1945 15.2021 18.4333 12.5794 15.9485 11.2706C15.5532 11.0622 15.104 11.43 15.215 11.863Z" fill="#E1E1E1"/>
<path d="M17.6486 27.7844C21.0573 25.933 23.3717 22.3222 23.3717 18.1703C23.3717 12.0788 18.3905 7.15085 12.2792 7.23733C11.8643 7.24323 11.4541 7.27471 11.0497 7.32877C16.4161 8.02623 20.5609 12.6138 20.5609 18.1703C20.5609 22.3222 18.2466 25.933 14.8378 27.7844C14.4941 27.971 14.358 28.3944 14.5335 28.7439L15.621 30.9097C16.0432 31.7504 15.432 32.7412 14.4913 32.7412H13.7795C13.5867 32.7412 13.4304 32.8975 13.4304 33.0903V44.3148C13.4304 44.7891 13.205 45.2352 12.8233 45.5165L11.0322 46.8366L11.5519 47.2196C12.0786 47.6078 12.7967 47.6078 13.3232 47.2196L15.6341 45.5165C16.0159 45.2352 16.2412 44.7891 16.2412 44.3148V33.0903C16.2412 32.8975 16.3975 32.7412 16.5903 32.7412H17.3021C18.2429 32.7412 18.854 31.7504 18.4319 30.9097L17.3443 28.7439C17.1688 28.3944 17.3048 27.971 17.6486 27.7844Z" fill="#E1E1E1"/>
<path d="M15.9482 11.2705C15.5527 11.0622 15.1036 11.43 15.2147 11.863C15.2792 12.1141 15.3104 12.3784 15.3034 12.6511C15.3012 12.7404 15.2945 12.8288 15.284 12.9161C16.5779 14.304 17.3907 16.1409 17.406 18.1085C17.4185 19.7144 16.9438 21.2082 16.1216 22.4524C16.1974 22.5271 16.2613 22.6151 16.3057 22.7164L16.5919 23.3707C16.8338 23.9236 17.5581 24.057 17.9816 23.6268C19.3773 22.2092 20.2337 20.2591 20.2169 18.1086C20.1941 15.202 18.433 12.5793 15.9482 11.2705Z" fill="#EDEDED"/>
<path d="M44.2896 33.0888H39.8638V24.1269C39.8638 23.2989 40.535 22.6278 41.3629 22.6278H42.7905C43.6184 22.6278 44.2896 23.2989 44.2896 24.1269V33.0888Z" fill="#41D164"/>
<path d="M24.0562 46.1053V34.3814L34.3134 25.4064L44.5706 34.3814V46.1053C44.5706 46.8815 43.9414 47.5107 43.1652 47.5107H25.4616C24.6854 47.5107 24.0562 46.8815 24.0562 46.1053Z" fill="#41D164"/>
<path d="M41.7599 31.922V45.7481C41.7599 46.7215 41.1306 47.5107 40.3545 47.5107H43.1653C43.9415 47.5107 44.5707 46.8815 44.5707 46.1053V34.3814L41.7599 31.922Z" fill="#339A4C"/>
<path d="M46.905 32.6218L36.4441 23.3677C35.2251 22.298 33.4019 22.298 32.183 23.3677L21.7312 32.6218C21.102 33.1739 21.0096 34.1197 21.5199 34.7832C22.0787 35.5097 23.1349 35.6134 23.8244 35.0096L33.6143 26.3597C34.0146 26.0092 34.6124 26.0092 35.0127 26.3597L44.8117 35.0096C45.5012 35.6134 46.5574 35.5097 47.1162 34.7832C47.6266 34.1197 47.5342 33.1738 46.905 32.6218Z" fill="#339A4C"/>
<path d="M46.9049 32.6218L36.4439 23.3677C35.4488 22.4944 34.051 22.3344 32.908 22.887C33.165 23.0113 33.4093 23.1713 33.6331 23.3677L44.0941 32.6218C44.681 33.1368 44.8005 33.9943 44.3995 34.6457L44.8116 35.0095C45.5011 35.6135 46.5573 35.5097 47.1161 34.7833C47.6265 34.1196 47.5341 33.1738 46.9049 32.6218Z" fill="#41D164"/>
<path d="M37.0174 33.9149C37.3704 32.4219 36.4461 30.9254 34.9531 30.5725C33.4601 30.2196 31.9636 31.1438 31.6107 32.6368C31.2578 34.1299 32.182 35.6263 33.675 35.9792C35.1681 36.3322 36.6645 35.4079 37.0174 33.9149Z" fill="white"/>
<path d="M34.3134 30.4807C33.8004 30.4807 33.3203 30.6203 32.908 30.8627C33.7293 31.3454 34.2809 32.2376 34.2809 33.2591C34.2809 34.2806 33.7293 35.1728 32.908 35.6555C33.3203 35.8979 33.8004 36.0375 34.3134 36.0375C35.8479 36.0375 37.0917 34.7936 37.0917 33.2591C37.0917 31.7247 35.8479 30.4807 34.3134 30.4807Z" fill="#E7E7E7"/>
<path d="M37.0122 47.5108H31.6152V42.1242C31.6152 40.8765 32.6267 39.8651 33.8743 39.8651H34.7531C36.0007 39.8651 37.0122 40.8765 37.0122 42.1242V47.5108Z" fill="#41D164"/>
<path d="M34.7527 39.8651H33.8739C33.5283 39.8651 33.2008 39.9431 32.908 40.0818C33.6723 40.4439 34.201 41.2223 34.201 42.1242V47.5108H37.0118V42.1242C37.0118 40.8765 36.0004 39.8651 34.7527 39.8651Z" fill="#339A4C"/>
<path d="M47.3697 32.0945L44.9925 29.9916V24.1269C44.9925 22.9129 44.0048 21.9251 42.7907 21.9251H41.3631C40.149 21.9251 39.1613 22.9129 39.1613 24.1269V24.8331L36.9077 22.8395C36.771 22.7196 36.6278 22.6108 36.4794 22.5131C37.2827 21.8748 37.7993 20.8905 37.7993 19.7872C37.7993 17.8677 36.2377 16.3061 34.3183 16.3061C34.1776 16.3061 34.0393 16.3154 33.9029 16.3317C34.5014 14.9374 34.8334 13.4026 34.8334 11.7916C34.8333 5.4234 29.6524 0.242432 23.2842 0.242432C18.8029 0.242432 14.9097 2.80804 12.9958 6.54744C12.7548 6.53619 12.5126 6.53132 12.2692 6.53479C9.27768 6.57714 6.42555 7.8108 4.238 10.0086C2.05063 12.2062 0.830183 15.0641 0.801326 18.0559C0.75982 22.3757 3.0941 26.3405 6.89337 28.403C6.90348 28.4084 6.90761 28.4194 6.90311 28.4284L5.81552 30.5944C5.50698 31.2088 5.53828 31.9248 5.89918 32.5098C6.26009 33.0948 6.88587 33.444 7.57321 33.444H7.9314V39.7522C7.9314 40.1403 8.24592 40.4549 8.6341 40.4549C9.02227 40.4549 9.3368 40.1403 9.3368 39.7522V33.0904C9.3368 32.5104 8.86496 32.0386 8.2849 32.0386H7.57311C7.29025 32.0386 7.14474 31.8521 7.09518 31.7719C7.0458 31.6917 6.94443 31.4779 7.07129 31.2252L8.15907 29.0591C8.50583 28.3681 8.24442 27.5375 7.56384 27.1679C4.22282 25.3542 2.17009 21.8679 2.20663 18.0695C2.25882 12.6554 6.87594 8.01674 12.289 7.94009C12.3248 7.93953 12.3604 7.94 12.3961 7.93981C11.9684 9.14518 11.7348 10.4415 11.7348 11.7916C11.7348 12.1797 12.0493 12.4943 12.4375 12.4943C12.8257 12.4943 13.1402 12.1797 13.1402 11.7916C13.1402 10.4656 13.3963 9.1983 13.8612 8.03613C16.029 8.3352 18.0328 9.31907 19.6204 10.8842C21.5862 12.8225 22.6688 15.41 22.6688 18.1703C22.6688 21.9253 20.6166 25.3726 17.313 27.1668C16.6314 27.537 16.3692 28.3683 16.7162 29.0592L17.8038 31.2251C17.9306 31.4778 17.8293 31.6916 17.7799 31.7719C17.7304 31.8521 17.5848 32.0386 17.302 32.0386H16.5901C16.0101 32.0386 15.5383 32.5104 15.5383 33.0904V44.3149C15.5383 44.5648 15.4182 44.8026 15.2169 44.951L12.906 46.654C12.6256 46.8607 12.2487 46.8606 11.9685 46.654L9.6577 44.951C9.45654 44.8027 9.33633 44.5649 9.33633 44.315V42.5631C9.33633 42.175 9.0218 41.8604 8.63363 41.8604C8.24545 41.8604 7.93093 42.175 7.93093 42.5631V44.315C7.93093 45.0096 8.26466 45.6702 8.82382 46.0824L11.1347 47.7855C11.5242 48.0725 11.9806 48.2161 12.4372 48.2161C12.8937 48.2161 13.3502 48.0725 13.7396 47.7855L16.0505 46.0824C16.6097 45.6704 16.9435 45.0096 16.9435 44.315V33.444H17.3017C17.989 33.444 18.6149 33.0947 18.9757 32.5097C19.3366 31.9247 19.3679 31.2087 19.0594 30.5944L17.9718 28.4286C17.9671 28.4193 17.9721 28.4081 17.9834 28.4019C20.1323 27.2348 21.8144 25.4518 22.8616 23.3407H23.2836C26.2006 23.3407 28.8679 22.2532 30.9029 20.463C31.0655 21.2863 31.5195 22.0055 32.1524 22.5099C32.0013 22.609 31.8557 22.7196 31.7167 22.8416L21.2672 32.0936C20.3623 32.8878 20.2284 34.2574 20.9625 35.2116C21.3467 35.7111 21.9268 36.033 22.5539 36.0946C22.8237 36.1209 23.0943 36.0981 23.3531 36.0308V46.1054C23.3531 47.2678 24.2988 48.2135 25.4612 48.2135H43.1648C44.3272 48.2135 45.2729 47.2678 45.2729 46.1054V40.9136C45.2729 40.5255 44.9583 40.2109 44.5702 40.2109C44.182 40.2109 43.8675 40.5255 43.8675 40.9136V41.6604H37.7977C37.7574 41.6604 37.718 41.6646 37.6796 41.6711C37.4609 40.2522 36.2316 39.1624 34.7525 39.1624H33.8737C32.3983 39.1624 31.1718 40.2468 30.9485 41.6604H24.7585V35.1785C24.7585 35.1601 24.7571 35.142 24.7558 35.1239L34.0769 26.8883C34.2117 26.7703 34.4148 26.7704 34.5474 26.8864L43.8708 35.1165C43.869 35.1369 43.8677 35.1576 43.8677 35.1784V38.1027C43.8677 38.4908 44.1822 38.8054 44.5704 38.8054C44.9585 38.8054 45.2731 38.4908 45.2731 38.1027V36.0279C45.4638 36.0783 45.6609 36.1053 45.8597 36.1053C45.9334 36.1053 46.0075 36.1016 46.0814 36.0944C46.7086 36.0328 47.2887 35.7109 47.6729 35.2114C48.4071 34.2577 48.2736 32.8889 47.3697 32.0945ZM40.5667 24.1269C40.5667 23.6878 40.9239 23.3305 41.3631 23.3305H42.7907C43.2297 23.3305 43.5871 23.6878 43.5871 24.1269V28.7483L40.5667 26.0763V24.1269ZM36.3938 19.7871C36.3938 20.9316 35.4626 21.8627 34.3182 21.8627C33.1736 21.8627 32.2425 20.9316 32.2425 19.7871C32.2425 18.6425 33.1736 17.7114 34.3182 17.7114C35.4627 17.7115 36.3938 18.6426 36.3938 19.7871ZM23.449 21.9332C23.8567 20.7401 24.0745 19.4717 24.0745 18.1703C24.0745 15.0308 22.8432 12.0878 20.6074 9.88348C18.9116 8.21162 16.7972 7.12412 14.5045 6.71571C16.2616 3.68829 19.539 1.64783 23.2842 1.64783C28.8774 1.64783 33.4279 6.19833 33.4279 11.7916C33.4279 17.3299 28.9665 21.8449 23.449 21.9332ZM43.8682 43.0658V46.1054C43.8682 46.4929 43.553 46.8081 43.1655 46.8081H37.7148V43.0604C37.7422 43.0637 37.77 43.0658 37.7983 43.0658H43.8682ZM32.3178 42.1241C32.3178 41.2659 33.016 40.5678 33.8742 40.5678H34.753C35.6111 40.5678 36.3094 41.266 36.3094 42.1241V46.8081H32.3177V42.1241H32.3178ZM30.9124 43.0658V46.8081H25.4617C25.0742 46.8081 24.759 46.4929 24.759 46.1054V43.0658H30.9124ZM46.5592 34.3548C46.4087 34.5506 46.1903 34.6718 45.9445 34.6959C45.6981 34.72 45.4609 34.6437 45.2768 34.4828L35.4759 25.831C35.1449 25.5411 34.7299 25.3961 34.3144 25.3961C33.8984 25.3961 33.4819 25.5417 33.1493 25.833L23.3616 34.4809C23.1757 34.6437 22.9378 34.7201 22.692 34.6959C22.4461 34.6718 22.2277 34.5506 22.077 34.3547C21.7935 33.9859 21.8451 33.4568 22.1972 33.1478L32.6466 23.8958C33.5971 23.0619 35.0305 23.0619 35.9786 23.8938L46.4395 33.148C46.4402 33.1486 46.441 33.1492 46.4415 33.1499C46.7913 33.4568 46.843 33.986 46.5592 34.3548Z" fill="black"/>
<path d="M30.8323 33.2592C30.8323 35.1787 32.3939 36.7402 34.3133 36.7402C36.2328 36.7402 37.7944 35.1787 37.7944 33.2592C37.7944 31.3397 36.2328 29.7781 34.3133 29.7781C32.3939 29.7781 30.8323 31.3397 30.8323 33.2592ZM36.389 33.2592C36.389 34.4037 35.4578 35.3348 34.3134 35.3348C33.1688 35.3348 32.2378 34.4037 32.2378 33.2592C32.2378 32.1146 33.1689 31.1835 34.3134 31.1835C35.4578 31.1835 36.389 32.1146 36.389 33.2592Z" fill="black"/>
<path d="M9.95161 10.7379C9.57871 10.4314 9.0603 10.3729 8.63109 10.5887C5.74702 12.0391 3.95532 14.9443 3.95532 18.1704C3.95532 20.5721 4.98014 22.8712 6.76725 24.4785C7.05507 24.7375 7.41935 24.8756 7.7976 24.8756C7.89494 24.8756 7.99332 24.8664 8.09161 24.8479C8.57366 24.7565 8.97588 24.4526 9.19503 24.0141L9.70641 22.9912C9.73199 22.9403 9.78324 22.9085 9.84039 22.9085H15.5249C15.5844 22.9085 15.6381 22.9437 15.662 22.9983L15.9483 23.6525C16.1554 24.126 16.5826 24.4647 17.0908 24.5585C17.5998 24.6524 18.1196 24.4885 18.4825 24.12C20.0718 22.5056 20.9373 20.3688 20.9197 18.1032C20.8959 15.0484 19.0732 12.1223 16.2759 10.6489C15.8468 10.4228 15.3432 10.4693 14.9618 10.7705C14.5816 11.0708 14.4138 11.5682 14.5343 12.0377C14.5838 12.2307 14.6064 12.4311 14.6011 12.6333C14.5728 13.7438 13.684 14.6674 12.5775 14.7363C11.9717 14.7741 11.3959 14.5672 10.9561 14.154C10.5159 13.7403 10.2735 13.18 10.2735 12.5765C10.2735 12.3793 10.3 12.1844 10.3521 11.9971C10.4816 11.5299 10.3282 11.0474 9.95161 10.7379ZM12.6646 16.139C14.4915 16.0253 15.9592 14.5012 16.006 12.6691C16.0109 12.4752 16.0002 12.2819 15.9742 12.0911C18.1186 13.3777 19.4954 15.6999 19.5141 18.114C19.5289 20.0043 18.8068 21.7871 17.4808 23.1338C17.4343 23.181 17.3815 23.183 17.346 23.1763C17.3102 23.1697 17.262 23.1492 17.2357 23.089L16.9495 22.4348C16.7017 21.8688 16.1426 21.503 15.5248 21.503H9.8403C9.24741 21.503 8.71439 21.8324 8.44933 22.3626L7.93795 23.3854C7.90862 23.444 7.85756 23.4617 7.82973 23.4669C7.79731 23.473 7.75 23.4722 7.7069 23.4335C6.21577 22.0923 5.36063 20.174 5.36063 18.1703C5.36063 15.613 6.71028 13.2971 8.90899 12.0343C8.88163 12.2131 8.86795 12.3943 8.86795 12.5764C8.86795 13.5576 9.27823 14.5059 9.99358 15.178C10.719 15.8598 11.6675 16.2008 12.6646 16.139Z" fill="black"/>
<path d="M11.7349 27.4123V42.304C11.7349 42.6921 12.0494 43.0067 12.4376 43.0067C12.8257 43.0067 13.1403 42.6921 13.1403 42.304V27.4123C13.1403 27.0242 12.8257 26.7096 12.4376 26.7096C12.0494 26.7096 11.7349 27.0242 11.7349 27.4123Z" fill="black"/>
</svg>
