<svg width="47" height="41" viewBox="0 0 47 41" fill="none" xmlns="http://www.w3.org/2000/svg">
<path d="M13.8018 5.15015H17.6592V9.97185H13.8018V5.15015Z" fill="#339A4C"/>
<path d="M33.0889 9.97192H29.2315V5.15022H33.0889V9.97192Z" fill="#339A4C"/>
<path d="M33.6617 5.15017H13.2296C12.4807 5.15017 11.8735 4.543 11.8735 3.79406V2.64896C11.8735 1.90002 12.4807 1.29285 13.2296 1.29285H33.6617C34.4107 1.29285 35.0179 1.90002 35.0179 2.64896V3.79415C35.0179 4.54309 34.4107 5.15017 33.6617 5.15017Z" fill="#57C873"/>
<path d="M33.6617 1.29285H30.9495C31.6984 1.29285 32.3056 1.90002 32.3056 2.64896V3.79415C32.3056 4.54309 31.6984 5.15026 30.9495 5.15026H33.6617C34.4106 5.15026 35.0178 4.54309 35.0178 3.79415V2.64896C35.0178 1.89993 34.4106 1.29285 33.6617 1.29285Z" fill="#91EFA9"/>
<path d="M45.912 33.3416V16.4969L39.387 9.97192H7.50447L0.979492 16.4969V33.3416L7.50447 39.8666H39.387L45.912 33.3416Z" fill="white"/>
<path d="M39.3868 13.733H7.50419L4.73926 15.8022V34.0363L7.50419 36.1055H39.3868L42.0889 34.0833V15.7552L39.3868 13.733Z" fill="#57C873"/>
<path d="M41.7909 16.4969H45.9119V12.2321C45.9119 10.9839 44.9 9.97192 43.6518 9.97192H39.387V14.093C39.387 15.4206 40.4633 16.4969 41.7909 16.4969Z" fill="#339A4C"/>
<path d="M7.50447 14.0928V9.9718H3.23968C1.99142 9.9718 0.979492 10.9837 0.979492 12.232V16.4968H5.10054C6.42817 16.4969 7.50447 15.4206 7.50447 14.0928Z" fill="#339A4C"/>
<path d="M45.9119 37.6065V33.3417H41.7909C40.4633 33.3417 39.387 34.418 39.387 35.7456V39.8667H43.6518C44.9 39.8667 45.9119 38.8548 45.9119 37.6065Z" fill="#339A4C"/>
<path d="M43.6517 9.97192H40.9395C42.1877 9.97192 43.1996 10.9839 43.1996 12.2321V16.4969H45.9119V12.2321C45.9119 10.9838 44.8999 9.97192 43.6517 9.97192Z" fill="#339A4C"/>
<path d="M43.1996 33.3417V37.6065C43.1996 38.8547 42.1877 39.8667 40.9395 39.8667H43.6517C44.8999 39.8667 45.9119 38.8547 45.9119 37.6065V33.3417H43.1996Z" fill="#339A4C"/>
<path d="M5.10045 33.3417H0.979492V37.6065C0.979492 38.8547 1.99142 39.8667 3.23968 39.8667H7.50447V35.7456C7.50447 34.418 6.42817 33.3417 5.10045 33.3417Z" fill="#339A4C"/>
<path d="M43.6512 9.29387H33.7667V5.82556C34.8395 5.77051 35.6953 4.88044 35.6953 3.79411V2.64892C35.6953 1.52723 34.7828 0.614746 33.6612 0.614746H19.5165C19.1421 0.614746 18.8385 0.918335 18.8385 1.2928C18.8385 1.66727 19.1421 1.97086 19.5165 1.97086H33.6612C34.0351 1.97086 34.3392 2.27499 34.3392 2.64892V3.79411C34.3392 4.16803 34.0351 4.47216 33.6612 4.47216H13.2291C12.8551 4.47216 12.551 4.16803 12.551 3.79411V2.64892C12.551 2.27499 12.8551 1.97086 13.2291 1.97086H16.8043C17.1788 1.97086 17.4824 1.66727 17.4824 1.2928C17.4824 0.918335 17.1788 0.614746 16.8043 0.614746H13.2291C12.1074 0.614746 11.1949 1.52723 11.1949 2.64892V3.79411C11.1949 4.88035 12.0508 5.77051 13.1236 5.82556V9.29387H3.23903C1.61892 9.29387 0.300781 10.612 0.300781 12.2321V37.6065C0.300781 39.2266 1.61892 40.5448 3.23903 40.5448H24.5694C24.9439 40.5448 25.2475 40.2412 25.2475 39.8667C25.2475 39.4922 24.9439 39.1887 24.5694 39.1887H8.18188V36.7627H38.7083V39.1887H27.2816C26.9072 39.1887 26.6036 39.4922 26.6036 39.8667C26.6036 40.2412 26.9072 40.5448 27.2816 40.5448H43.6512C45.2713 40.5448 46.5894 39.2266 46.5894 37.6065V12.2321C46.5894 10.612 45.2713 9.29387 43.6512 9.29387ZM38.7273 35.4066H8.1628C8.00567 33.9776 6.86789 32.8398 5.43882 32.6827V17.156C6.86789 16.9988 8.00567 15.8611 8.1628 14.432H38.7273C38.8844 15.8611 40.0222 16.9988 41.4513 17.156V32.6828C40.0222 32.8399 38.8844 33.9777 38.7273 35.4066ZM1.65689 17.1751H4.0828V32.6637H1.65689V17.1751ZM38.7083 10.65V13.0759H8.18188V10.65H38.7083ZM18.3371 9.29387V5.82828H28.5531V9.29387H18.3371ZM42.8074 17.1751H45.2333V32.6637H42.8074V17.1751ZM45.2333 12.2321V15.8189H41.7903C40.8387 15.8189 40.0644 15.0446 40.0644 14.093V10.65H43.6512C44.5235 10.65 45.2333 11.3598 45.2333 12.2321ZM32.4105 5.82828V9.29387H29.9092V5.82828H32.4105ZM14.4797 5.82828H16.981V9.29387H14.4797V5.82828ZM3.23903 10.65H6.82576V14.093C6.82576 15.0446 6.05151 15.8189 5.09988 15.8189H1.65689V12.2321C1.65689 11.3598 2.36668 10.65 3.23903 10.65ZM3.23903 39.1887C2.36668 39.1887 1.65689 38.4789 1.65689 37.6065V34.0198H5.09988C6.05151 34.0198 6.82576 34.794 6.82576 35.7457V39.1887H3.23903ZM43.6512 39.1887H40.0644V35.7457C40.0644 34.794 40.8387 34.0198 41.7903 34.0198H45.2333V37.6065C45.2333 38.479 44.5235 39.1887 43.6512 39.1887Z" fill="black"/>
<path d="M24.8425 24.2186C24.6065 24.1352 24.3647 24.0474 24.124 23.9557V20.2362C24.7649 20.3646 25.1484 20.6925 25.1789 20.7192C25.4544 20.9693 25.8804 20.9508 26.133 20.6768C26.3868 20.4015 26.3696 19.9725 26.0943 19.7186C26.0515 19.6792 25.3197 19.0209 24.124 18.8624V18.0659C24.124 17.6914 23.8204 17.3878 23.446 17.3878C23.0715 17.3878 22.7679 17.6914 22.7679 18.0659V18.9144C22.6385 18.941 22.5063 18.9742 22.3711 19.0149C21.3187 19.3318 20.532 20.2335 20.3183 21.3676C20.1239 22.3994 20.4527 23.393 21.1765 23.9606C21.576 24.274 22.0762 24.5609 22.768 24.8658V29.5258C22.1256 29.4899 21.7079 29.3524 20.9995 28.889C20.6861 28.684 20.2659 28.7718 20.0609 29.0852C19.8559 29.3985 19.9438 29.8189 20.2572 30.0238C21.234 30.6628 21.8944 30.841 22.7681 30.8821V31.7725C22.7681 32.1469 23.0717 32.4505 23.4461 32.4505C23.8206 32.4505 24.1242 32.1469 24.1242 31.7725V30.8311C25.8202 30.5274 26.8107 29.1424 27.0282 27.8491C27.3034 26.2103 26.4456 24.7852 24.8425 24.2186ZM22.0133 22.8937C21.6895 22.6397 21.5506 22.1513 21.6509 21.619C21.7447 21.1215 22.0859 20.5172 22.7622 20.3135C22.7641 20.313 22.7659 20.3125 22.7678 20.312V23.3643C22.4813 23.2154 22.2235 23.0585 22.0133 22.8937ZM25.6905 27.6244C25.5653 28.3689 25.0324 29.1622 24.1239 29.4368V25.4017C24.2109 25.4332 24.2992 25.4649 24.3904 25.4972C25.8423 26.0103 25.7526 27.2551 25.6905 27.6244Z" fill="black"/>
</svg>
