<svg width="41" height="47" viewBox="0 0 41 47" fill="none" xmlns="http://www.w3.org/2000/svg">
<path d="M4.0481 6.7998H30.2209V43.5244H4.0481V6.7998Z" fill="#41D164"/>
<path d="M27.5027 6.7998H30.2208V43.5244H27.5027V6.7998Z" fill="#339A4C"/>
<path d="M8.0437 5.83333V2.07329C8.0437 1.32273 8.65219 0.714233 9.40275 0.714233H24.8658C25.6163 0.714233 26.2248 1.32273 26.2248 2.07329V5.83333H8.0437Z" fill="#41D164"/>
<path d="M0.7052 44.3851V42.9506C0.7052 42.2 1.31369 41.5916 2.06425 41.5916H32.205C32.9556 41.5916 33.5641 42.2 33.5641 42.9506V44.3851C33.5641 45.1357 32.9556 45.7442 32.205 45.7442H2.06425C1.31369 45.7442 0.7052 45.1357 0.7052 44.3851Z" fill="#41D164"/>
<path d="M32.2046 41.5916H28.5804C29.3311 41.5916 29.9395 42.2 29.9395 42.9506V44.3851C29.9395 45.1357 29.3311 45.7442 28.5804 45.7442H32.2046C32.9552 45.7442 33.5636 45.1357 33.5636 44.3851V42.9506C33.5636 42.2 32.9551 41.5916 32.2046 41.5916Z" fill="#339A4C"/>
<path d="M13.3531 21.5681H10.5807C9.83017 21.5681 9.22168 20.9596 9.22168 20.2091V15.7695C9.22168 14.2533 10.4508 13.0243 11.9669 13.0243C13.483 13.0243 14.7121 14.2533 14.7121 15.7695V20.2091C14.7122 20.9596 14.1037 21.5681 13.3531 21.5681Z" fill="white"/>
<path d="M11.9665 13.0243C11.4719 13.0243 11.0083 13.1558 10.6074 13.3846C11.4352 13.8574 11.9936 14.7479 11.9936 15.7695V20.2091C11.9936 20.9596 11.3851 21.5681 10.6345 21.5681H13.3526C14.1032 21.5681 14.7117 20.9596 14.7117 20.2091V15.7695C14.7118 14.2533 13.4826 13.0243 11.9665 13.0243Z" fill="#EBEBEB"/>
<path d="M22.0299 36.1541C26.4034 36.1541 29.9488 32.6087 29.9488 28.2352C29.9488 23.8617 26.4034 20.3163 22.0299 20.3163C17.6564 20.3163 14.111 23.8617 14.111 28.2352C14.111 32.6087 17.6564 36.1541 22.0299 36.1541Z" fill="#41D164"/>
<path d="M19.5569 20.2091V15.7695C19.5569 14.2533 20.7859 13.0243 22.3021 13.0243C23.8182 13.0243 25.0473 14.2533 25.0473 15.7695V20.2091" fill="white"/>
<path d="M14.3832 35.5923C14.1339 35.8816 13.7649 36.0648 13.353 36.0648H10.5807C9.83017 36.0648 9.22168 35.4563 9.22168 34.7057V30.2661C9.22168 28.9395 10.1627 27.8327 11.4137 27.5767" fill="white"/>
<path d="M11.4137 27.5766C11.5925 27.54 11.7775 27.5208 11.9669 27.5208C13.4831 27.5208 14.7121 28.7498 14.7121 30.2659V34.7055C14.7121 35.0443 14.5882 35.3541 14.3832 35.5921" fill="#FAFAEF"/>
<path d="M19.5569 34.8264V30.2661C19.5569 28.7499 20.7859 27.5209 22.3021 27.5209C23.8182 27.5209 25.0473 28.7499 25.0473 30.2661V34.8264" fill="white"/>
<path d="M22.3016 13.0243C21.807 13.0243 21.3433 13.1558 20.9425 13.3846C21.7703 13.8574 22.3286 14.7479 22.3286 15.7695V20.2091H25.0468V15.7695C25.0468 14.2533 23.8177 13.0243 22.3016 13.0243Z" fill="#EBEBEB"/>
<path d="M22.3016 27.5209C21.807 27.5209 21.3433 27.6523 20.9425 27.8813C21.7703 28.3541 22.3286 29.2446 22.3286 30.2662V34.8264H25.0468V30.2661C25.0468 28.7499 23.8177 27.5209 22.3016 27.5209Z" fill="#EBEBEB"/>
<path d="M38.9448 43.3223L37.0003 45.2668C36.3637 45.9034 35.3316 45.9034 34.6951 45.2668L24.9137 35.4854L29.1635 31.2356L38.9448 41.017C39.5814 41.6536 39.5814 42.6857 38.9448 43.3223Z" fill="#DADADA"/>
<path d="M30.317 41.5717L31.214 42.4687C31.7447 42.9995 32.6052 42.9995 33.136 42.4687L36.1471 39.4576C36.6778 38.9268 36.6778 38.0664 36.1471 37.5356L35.2501 36.6385C34.7193 36.1078 33.8589 36.1078 33.3281 36.6385L30.317 39.6497C29.7863 40.1804 29.7863 41.041 30.317 41.5717Z" fill="#E2E1E3"/>
<path d="M29.0893 21.0598C25.1264 17.0969 18.7013 17.0969 14.7384 21.0598C10.7755 25.0227 10.7755 31.4478 14.7384 35.4107C18.7012 39.3736 25.1264 39.3736 29.0893 35.4107C33.0522 31.4478 33.0522 25.0226 29.0893 21.0598ZM26.6974 33.0189C24.0555 35.6608 19.7722 35.6608 17.1303 33.0189C14.4883 30.3769 14.4883 26.0936 17.1303 23.4517C19.7722 20.8098 24.0555 20.8098 26.6974 23.4517C29.3394 26.0935 29.3394 30.3769 26.6974 33.0189Z" fill="white"/>
<path d="M29.0887 21.0597C26.7607 18.7318 23.5833 17.7721 20.5542 18.1792C22.6816 18.4651 24.7356 19.4248 26.3706 21.0597C30.3335 25.0227 30.3335 31.4477 26.3706 35.4106C24.7356 37.0456 22.6816 38.0053 20.5542 38.2912C23.5833 38.6983 26.7607 37.7385 29.0887 35.4106C33.0516 31.4477 33.0516 25.0226 29.0887 21.0597Z" fill="#D6D6D6"/>
<path d="M2.63794 7.67554V6.24101C2.63794 5.49045 3.24643 4.88196 3.99699 4.88196H30.272C31.0226 4.88196 31.6311 5.49045 31.6311 6.24101V7.67554C31.6311 8.4261 31.0226 9.03459 30.272 9.03459H3.99699C3.24643 9.03459 2.63794 8.42619 2.63794 7.67554Z" fill="#41D164"/>
<path d="M24.8657 0.714233H22.1476C22.8982 0.714233 23.5066 1.32273 23.5066 2.07329V5.83333H26.2247V2.07329C26.2247 1.32273 25.6162 0.714233 24.8657 0.714233Z" fill="#339A4C"/>
<path d="M30.2723 4.88196H27.5542C28.3048 4.88196 28.9133 5.49045 28.9133 6.24101V7.67554C28.9133 8.4261 28.3048 9.03459 27.5542 9.03459H30.2723C31.0229 9.03459 31.6314 8.4261 31.6314 7.67554V6.24101C31.6314 5.49045 31.023 4.88196 30.2723 4.88196Z" fill="#339A4C"/>
<path d="M39.4259 40.5364L37.2867 38.3973C37.2644 38.375 37.2406 38.3552 37.2161 38.3368C37.1797 37.8692 36.9845 37.4118 36.6277 37.055L35.7307 36.158C35.3859 35.8133 34.9391 35.6085 34.4585 35.5692L31.7183 32.829C33.3103 29.4224 33.0331 25.3519 30.8874 22.1764C30.8957 22.1338 30.9003 22.0898 30.9003 22.0449V9.61463C31.7178 9.34907 32.3105 8.58039 32.3105 7.67563V6.24101C32.3105 5.11689 31.396 4.20243 30.2719 4.20243H26.9045V2.07325C26.9045 0.949129 25.9899 0.034668 24.8659 0.034668H14.5205C14.1451 0.034668 13.841 0.338915 13.841 0.714194C13.841 1.08947 14.1451 1.39372 14.5205 1.39372H24.8659C25.2406 1.39372 25.5454 1.69851 25.5454 2.07325V4.20243H8.72333V2.07325C8.72333 1.69851 9.02812 1.39372 9.40285 1.39372H11.8024C12.1778 1.39372 12.4819 1.08947 12.4819 0.714194C12.4819 0.338915 12.1778 0.034668 11.8024 0.034668H9.40285C8.27883 0.034668 7.36428 0.949129 7.36428 2.07325V4.20243H3.99691C2.87288 4.20243 1.95833 5.11689 1.95833 6.24101V7.67563C1.95833 8.58048 2.55105 9.34898 3.36839 9.61463V40.912H2.06397C0.939942 40.912 0.0253906 41.8264 0.0253906 42.9506V44.3851C0.0253906 45.5092 0.939942 46.4237 2.06397 46.4237H5.67225C6.04763 46.4237 6.35178 46.1194 6.35178 45.7441C6.35178 45.3689 6.04763 45.0646 5.67225 45.0646H2.06397C1.68923 45.0646 1.38444 44.7598 1.38444 44.3851V42.9506C1.38444 42.5759 1.68923 42.271 2.06397 42.271H30.0555L30.7336 42.9491C31.0827 43.2982 31.5366 43.5033 32.024 43.5389C32.0477 43.5736 32.0745 43.6067 32.1052 43.6375L32.9075 44.4398C32.8884 44.4787 32.8725 44.5197 32.8608 44.563C32.7812 44.8584 32.5114 45.0647 32.2047 45.0647H8.39036C8.01499 45.0647 7.71083 45.369 7.71083 45.7442C7.71083 46.1195 8.01499 46.4238 8.39036 46.4238H32.2048C32.9198 46.4238 33.5668 46.0482 33.9324 45.4646L34.2152 45.7474C34.6654 46.1976 35.2568 46.4228 35.8482 46.4228C36.4396 46.4228 37.0311 46.1976 37.4813 45.7474L39.4259 43.8029C40.3263 42.9022 40.3263 41.4369 39.4259 40.5364ZM32.9933 36.026C32.9431 36.0675 32.8944 36.1114 32.8477 36.158L29.8366 39.1691C29.7897 39.216 29.7462 39.2648 29.7048 39.3149L27.7489 37.3591C28.3994 36.9412 29.0099 36.4509 29.5697 35.891C30.1341 35.3266 30.6222 34.7146 31.0357 34.0683L32.9933 36.026ZM28.6086 34.9301C26.8204 36.7184 24.4428 37.7032 21.9137 37.7032C19.3846 37.7032 17.0071 36.7183 15.2188 34.9301C13.4305 33.1417 12.4456 30.7641 12.4456 28.2351C12.4456 25.7061 13.4305 23.3285 15.2188 21.5401C16.4657 20.2933 17.9992 19.4375 19.6707 19.0333C19.7023 19.028 19.7334 19.021 19.7634 19.0114C20.4604 18.8503 21.1806 18.7669 21.9137 18.7669C24.4427 18.7669 26.8203 19.7518 28.6086 21.54C32.3003 25.2318 32.3003 31.2384 28.6086 34.9301ZM11.0886 28.3976C11.126 30.9545 12.0441 33.3682 13.6998 35.2899C13.596 35.3516 13.4765 35.3852 13.353 35.3852H10.5807C10.206 35.3852 9.90117 35.0804 9.90117 34.7056V30.2661C9.90117 29.4474 10.3824 28.7299 11.0886 28.3976ZM13.353 20.8886H10.5807C10.206 20.8886 9.90117 20.5838 9.90117 20.2091V15.7695C9.90117 14.6304 10.8278 13.7038 11.9669 13.7038C13.1059 13.7038 14.0326 14.6304 14.0326 15.7695V20.2091C14.0325 20.5838 13.7277 20.8886 13.353 20.8886ZM24.3676 17.6862C23.5722 17.5028 22.7503 17.408 21.9138 17.408C21.3466 17.408 20.7863 17.4519 20.2361 17.537V15.7695C20.2361 14.6304 21.1628 13.7038 22.3018 13.7038C23.4409 13.7038 24.3676 14.6304 24.3676 15.7695V17.6862ZM3.31738 6.24101C3.31738 5.86627 3.62217 5.56148 3.99691 5.56148H30.2719C30.6467 5.56148 30.9515 5.86627 30.9515 6.24101V7.67563C30.9515 8.05027 30.6467 8.35515 30.2719 8.35515H3.99691C3.62217 8.35515 3.31738 8.05027 3.31738 7.67563V6.24101ZM4.72744 9.7142H29.5412V20.5515C28.4379 19.4562 27.1405 18.6271 25.7265 18.0962V15.7695C25.7265 13.8811 24.1902 12.3448 22.3017 12.3448C20.4133 12.3448 18.877 13.8811 18.877 15.7695V17.8382C17.6221 18.2028 16.4437 18.794 15.3915 19.5913V15.7694C15.3915 13.881 13.8552 12.3447 11.9668 12.3447C10.0783 12.3447 8.54194 13.881 8.54194 15.7694V20.209C8.54194 21.3331 9.45649 22.2476 10.5805 22.2476H12.8889C11.9534 23.6513 11.3638 25.2498 11.1635 26.9369C9.64477 27.3016 8.54194 28.6694 8.54194 30.266V34.7056C8.54194 35.8297 9.45649 36.7441 10.5805 36.7441H13.3529C13.8336 36.7441 14.2941 36.5748 14.6579 36.2715C16.651 38.0752 19.2064 39.0621 21.9137 39.0621C23.5294 39.0621 25.0909 38.7103 26.5112 38.0434L29.2443 40.7764C29.2457 40.7778 29.2472 40.7789 29.2486 40.7803C29.2522 40.8243 29.2585 40.868 29.265 40.9118H4.72744V9.7142ZM30.7977 41.0912C30.5327 40.8263 30.5327 40.3951 30.7977 40.1302L33.8088 37.1191C33.9371 36.9907 34.1077 36.92 34.2893 36.92C34.4708 36.92 34.6415 36.9907 34.7698 37.1191L35.6666 38.0159C35.9317 38.2809 35.9317 38.712 35.6666 38.977L32.6555 41.9881C32.5272 42.1164 32.3565 42.1871 32.175 42.1871C31.9936 42.1871 31.8229 42.1165 31.6946 41.9881L30.7977 41.0912ZM38.4648 42.8418L36.5204 44.7862C36.1496 45.1569 35.5467 45.1568 35.1761 44.7862L33.471 43.0811C33.5211 43.0396 33.5699 42.9958 33.6166 42.949L36.6277 39.9379C36.6745 39.8911 36.7181 39.8421 36.7594 39.792L38.4647 41.4974C38.8354 41.868 38.8353 42.4711 38.4648 42.8418Z" fill="black"/>
<path d="M21.9133 20.7906C19.9248 20.7906 18.0553 21.565 16.6491 22.9711C13.7465 25.8738 13.7465 30.5968 16.6491 33.4993C18.0553 34.9055 19.9247 35.6798 21.9133 35.6798C23.9018 35.6798 25.7712 34.9055 27.1774 33.4993C30.08 30.5967 30.08 25.8737 27.1774 22.9711C25.7712 21.565 23.9018 20.7906 21.9133 20.7906ZM20.2354 34.0861C20.2354 34.0839 20.2357 34.0818 20.2357 34.0797V30.2662C20.2357 29.1272 21.1624 28.2006 22.3014 28.2006C23.4405 28.2006 24.3672 29.1273 24.3672 30.2662V33.7977C24.3672 33.8004 24.3675 33.8029 24.3675 33.8057C23.6042 34.1423 22.7727 34.3208 21.9133 34.3208C21.3374 34.3207 20.7743 34.2397 20.2354 34.0861ZM26.2163 32.5384C26.0598 32.6949 25.8958 32.8407 25.7261 32.9778V30.2662C25.7261 28.3778 24.1898 26.8415 22.3013 26.8415C20.4129 26.8415 18.8766 28.3778 18.8766 30.2662V33.5102C18.4196 33.2461 17.9934 32.9217 17.6101 32.5385C15.2374 30.1657 15.2374 26.305 17.6101 23.9322C18.7595 22.7828 20.2877 22.1499 21.9132 22.1499C23.5387 22.1499 25.0669 22.7828 26.2162 23.9322C28.589 26.3049 28.589 30.1656 26.2163 32.5384Z" fill="black"/>
</svg>
