<svg width="55" height="52" viewBox="0 0 55 52" fill="none" xmlns="http://www.w3.org/2000/svg">
<path d="M2.44817 47.5145H3.92391C4.80512 47.5145 5.51954 46.8001 5.51954 45.9189V32.7092C5.51954 31.828 4.80512 31.1136 3.92391 31.1136H2.44817C1.56695 31.1136 0.852539 31.828 0.852539 32.7092V45.9189C0.852539 46.8001 1.56685 47.5145 2.44817 47.5145Z" fill="#339A4C"/>
<path d="M53.2346 30.3427C51.5442 28.3922 48.5933 28.1797 46.6407 29.8679L41.6495 34.1834C40.0233 35.5872 37.9464 36.3596 35.798 36.3596C37.6374 36.3595 39.1284 34.8683 39.1284 33.0289C39.1284 31.1894 37.6372 29.6982 35.7977 29.6982H24.4533C22.4994 29.6982 20.5558 29.9803 18.6825 30.5359L10.5571 32.9455V45.6856H36.198C37.7374 45.6856 39.2252 45.1307 40.3885 44.1225L53.0348 33.1501C53.8649 32.4298 53.9544 31.1732 53.2346 30.3427Z" fill="white"/>
<path d="M53.2345 30.3427C51.929 28.8364 49.8723 28.3678 48.1038 29.0093C48.83 29.2721 49.5015 29.7177 50.0432 30.3427C50.7629 31.1732 50.6735 32.4298 49.8434 33.15L37.1971 44.1224C36.0338 45.1307 34.5459 45.6856 33.0066 45.6856H36.1978C37.7372 45.6856 39.2251 45.1307 40.3884 44.1224L53.0347 33.1501C53.8647 32.4298 53.9542 31.1732 53.2345 30.3427Z" fill="#FFDECF"/>
<path d="M7.1154 51.0148H10.5856C11.4668 51.0148 12.1812 50.3004 12.1812 49.4191V32.7092C12.1812 31.828 11.4668 31.1136 10.5856 31.1136H7.1154C6.23419 31.1136 5.51978 31.828 5.51978 32.7092V49.4193C5.51978 50.3005 6.23419 51.0148 7.1154 51.0148Z" fill="#41D164"/>
<path d="M3.92373 31.1136H2.44799C2.29896 31.1136 2.15514 31.135 2.01855 31.1734C2.69148 31.3607 3.18592 31.9765 3.18592 32.7092V45.919C3.18592 46.6517 2.69148 47.2674 2.01855 47.4548C2.15525 47.4933 2.29896 47.5146 2.44799 47.5146H3.92373C4.80495 47.5146 5.51936 46.8002 5.51936 45.919V32.7092C5.51936 31.8279 4.80505 31.1136 3.92373 31.1136Z" fill="#41D164"/>
<path d="M10.5853 31.1136H7.39404C8.27525 31.1136 8.98967 31.828 8.98967 32.7092V49.4193C8.98967 50.3005 8.27525 51.0149 7.39404 51.0149H10.5853C11.4665 51.0149 12.1809 50.3005 12.1809 49.4193V32.7092C12.1809 31.8279 11.4665 31.1136 10.5853 31.1136Z" fill="#339A4C"/>
<path d="M40.6686 13.3336H35.6438V3.15873C35.6438 2.21869 36.4059 1.45673 37.3458 1.45673H38.9666C39.9067 1.45673 40.6686 2.21869 40.6686 3.15873V13.3336Z" fill="#41D164"/>
<path d="M17.6965 28.112V14.8013L29.3422 4.61139L40.9877 14.8013V28.112C40.9877 28.9932 40.2733 29.7076 39.3921 29.7076H19.2922C18.4109 29.7076 17.6965 28.9932 17.6965 28.112Z" fill="#FAFAEF"/>
<path d="M37.7963 12.009V27.7064C37.7963 28.8117 37.0819 29.7077 36.2007 29.7077H39.3919C40.2731 29.7077 40.9876 28.9933 40.9876 28.112V14.8013L37.7963 12.009Z" fill="#F2E4C8"/>
<path d="M43.6379 12.8035L31.7611 2.29679C30.3772 1.0823 28.3072 1.0823 26.9233 2.29679L15.0568 12.8035C14.3425 13.4303 14.2375 14.5041 14.8169 15.2574C15.4513 16.0823 16.6505 16.2 17.4333 15.5144L28.5484 5.69377C29.0028 5.29582 29.6816 5.29582 30.136 5.69377L41.2614 15.5144C42.0442 16.2 43.2433 16.0823 43.8778 15.2574C44.4572 14.5041 44.3522 13.4302 43.6379 12.8035Z" fill="#41D164"/>
<path d="M43.6378 12.8035L31.7609 2.29678C30.631 1.30537 29.0441 1.12368 27.7463 1.75108C28.0381 1.89213 28.3156 2.07382 28.5697 2.29678L40.4466 12.8035C41.1129 13.3882 41.2485 14.3617 40.7934 15.1014L41.2612 15.5144C42.044 16.2 43.2432 16.0823 43.8776 15.2575C44.4571 14.5041 44.3521 13.4302 43.6378 12.8035Z" fill="#339A4C"/>
<path d="M32.4198 14.2427C32.8152 12.5459 31.7602 10.8497 30.0634 10.4542C28.3665 10.0588 26.6704 11.1138 26.2749 12.8106C25.8794 14.5075 26.9344 16.2036 28.6313 16.5991C30.3281 16.9946 32.0243 15.9396 32.4198 14.2427Z" fill="#B5E9FF"/>
<path d="M29.342 10.3726C28.7596 10.3726 28.2145 10.5311 27.7463 10.8063C28.6788 11.3543 29.3052 12.3672 29.3052 13.527C29.3052 14.6868 28.6788 15.6997 27.7463 16.2478C28.2145 16.523 28.7596 16.6815 29.342 16.6815C31.0841 16.6815 32.4964 15.2691 32.4964 13.527C32.4963 11.7849 31.0841 10.3726 29.342 10.3726Z" fill="#93DDFE"/>
<path d="M32.406 29.7076H26.2786V23.5919C26.2786 22.1754 27.4269 21.0271 28.8434 21.0271H29.8412C31.2577 21.0271 32.406 22.1754 32.406 23.5919V29.7076Z" fill="#41D164"/>
<path d="M29.8408 21.0271H28.8431C28.4506 21.0271 28.0789 21.1156 27.7463 21.2731C28.6141 21.6843 29.2144 22.5678 29.2144 23.5919V29.7076H32.4057V23.5919C32.4057 22.1754 31.2574 21.0271 29.8408 21.0271Z" fill="#339A4C"/>
<path d="M53.8375 29.8202C51.8626 27.5414 48.4001 27.2919 46.1189 29.2642L41.1281 33.5793C40.6592 33.9841 40.1491 34.3312 39.6086 34.6167C39.8131 34.1276 39.9262 33.5912 39.9262 33.0288C39.9262 32.0788 39.6029 31.2036 39.0617 30.5053H39.3919C40.7117 30.5053 41.7853 29.4317 41.7853 28.1119V16.6707C42.0018 16.7279 42.2256 16.7586 42.4513 16.7586C42.5351 16.7586 42.6192 16.7544 42.703 16.7462C43.4151 16.6762 44.0737 16.3109 44.51 15.7437C45.3435 14.6602 45.1915 13.1053 44.1664 12.2058L41.4663 9.81717V3.15872C41.4663 1.78031 40.3449 0.658905 38.9665 0.658905H37.3457C35.9673 0.658905 34.8458 1.78031 34.8458 3.15872V3.96058L32.2872 1.69713C30.6083 0.223831 28.076 0.223725 26.3943 1.69947L21.2798 6.22786C20.9498 6.51996 20.9192 7.02418 21.2113 7.35405C21.5033 7.68403 22.0075 7.71466 22.3375 7.42255L27.4494 2.8964C28.5283 1.94966 30.1558 1.94955 31.2324 2.89427L43.1116 13.4031C43.5086 13.7515 43.5673 14.3523 43.2452 14.771C43.0742 14.9933 42.8262 15.1308 42.5471 15.1583C42.2683 15.1857 41.998 15.099 41.7892 14.9163L30.6615 5.09358C29.9093 4.4348 28.7748 4.4348 28.02 5.09581L16.9075 14.9141C16.6964 15.099 16.4269 15.1858 16.1472 15.1583C15.8681 15.1308 15.6201 14.9933 15.4491 14.771C15.1271 14.3523 15.1857 13.7514 15.5855 13.4007L20.2316 9.28699C20.5616 8.99489 20.5922 8.49067 20.3001 8.1608C20.008 7.83082 19.5039 7.80019 19.1739 8.09229L14.5304 12.2037C13.503 13.1053 13.3509 14.6602 14.1844 15.7437C14.6206 16.3109 15.2792 16.6762 15.9914 16.7462C16.2976 16.7761 16.6048 16.7503 16.8987 16.6737V28.1119C16.8987 28.861 17.2448 29.5304 17.7852 29.9696L12.6461 31.4937C12.229 30.7892 11.4617 30.3155 10.5854 30.3155H7.11512C6.50262 30.3155 5.9433 30.5471 5.5195 30.9269C5.0957 30.547 4.53638 30.3155 3.92387 30.3155H2.44813C1.12833 30.3155 0.0546875 31.3892 0.0546875 32.709V45.9188C0.0546875 47.2386 1.12833 48.3122 2.44813 48.3122H3.92387C4.20353 48.3122 4.47202 48.2636 4.72168 48.175V49.419C4.72168 50.7388 5.79533 51.8125 7.11512 51.8125H10.5854C11.9052 51.8125 12.9788 50.7388 12.9788 49.419V46.4833H23.7602C24.2008 46.4833 24.558 46.1261 24.558 45.6855C24.558 45.2449 24.2008 44.8877 23.7602 44.8877H12.9788V33.0595L18.9093 31.3007C20.5223 30.8223 22.1874 30.5558 23.8671 30.5054H36.0092C37.3072 30.6133 38.3306 31.7034 38.3306 33.0289C38.3306 34.4254 37.1944 35.5616 35.7979 35.5618H24.4732C24.0326 35.5618 23.6754 35.919 23.6754 36.3596C23.6754 36.8002 24.0326 37.1574 24.4732 37.1574H36.4423V37.1337C38.5497 36.9939 40.5636 36.1747 42.1713 34.7869L47.1625 30.4714C48.7788 29.0738 51.2323 29.2505 52.6317 30.8653C53.0622 31.362 53.0084 32.1167 52.512 32.5474L39.8661 43.5196C38.8479 44.402 37.5452 44.8879 36.1981 44.8879H26.9514C26.5108 44.8879 26.1536 45.2451 26.1536 45.6857C26.1536 46.1263 26.5108 46.4835 26.9514 46.4835H36.1981C37.9291 46.4835 39.6029 45.8591 40.9115 44.7251L53.5577 33.7526C54.7184 32.7455 54.8438 30.9815 53.8375 29.8202ZM36.4415 3.15872C36.4415 2.66014 36.8471 2.25453 37.3457 2.25453H38.9665C39.4651 2.25453 39.8707 2.66014 39.8707 3.15872V8.40567L36.4415 5.37207V3.15872ZM18.4943 24.6611H25.4805V28.9097H19.2921C18.8521 28.9097 18.4943 28.5518 18.4943 28.1119V24.6611ZM31.608 28.9098H27.0761V23.5919C27.0761 22.6175 27.8688 21.8249 28.8431 21.8249H29.8408C30.8152 21.8249 31.6079 22.6176 31.6079 23.5919V28.9098H31.608ZM39.392 28.9098H33.2036V24.655L40.1898 24.6612V28.112C40.1898 28.552 39.832 28.9098 39.392 28.9098ZM29.0739 6.29381C29.2269 6.15999 29.4574 6.15988 29.6079 6.29168L40.1933 15.6357C40.1913 15.6589 40.1898 15.6823 40.1898 15.706V23.0653C40.1898 23.0653 33.208 23.0701 33.1644 23.0775C32.9161 21.4665 31.5203 20.2291 29.841 20.2291H28.8433C27.1682 20.2291 25.7756 21.4604 25.5222 23.0653H18.4945V15.7061C18.4945 15.6851 18.493 15.6646 18.4914 15.6441L29.0739 6.29381ZM3.92387 46.7167H2.44813C2.00816 46.7167 1.65031 46.3588 1.65031 45.9189V32.7092C1.65031 32.2692 2.00816 31.9114 2.44813 31.9114H3.92387C4.36384 31.9114 4.72168 32.2692 4.72168 32.7092V45.919C4.72168 46.3588 4.36384 46.7167 3.92387 46.7167ZM11.3832 49.4191C11.3832 49.8591 11.0254 50.217 10.5854 50.217H7.11512C6.67516 50.217 6.31731 49.8591 6.31731 49.4191V45.9189V32.7092C6.31731 32.2692 6.67516 31.9114 7.11512 31.9114H10.5854C11.0254 31.9114 11.3832 32.2692 11.3832 32.7092V49.4191Z" fill="black"/>
<path d="M29.3419 17.4793C31.5212 17.4793 33.2942 15.7063 33.2942 13.527C33.2942 11.3477 31.5212 9.57477 29.3419 9.57477C27.1626 9.57477 25.3896 11.3477 25.3896 13.527C25.3896 15.7063 27.1626 17.4793 29.3419 17.4793ZM29.3419 11.1704C30.6414 11.1704 31.6985 12.2276 31.6985 13.527C31.6985 14.8265 30.6414 15.8837 29.3419 15.8837C28.0424 15.8837 26.9853 14.8265 26.9853 13.527C26.9853 12.2276 28.0424 11.1704 29.3419 11.1704Z" fill="black"/>
</svg>
