<svg width="39" height="52" viewBox="0 0 39 52" fill="none" xmlns="http://www.w3.org/2000/svg">
<path d="M35.2392 42.4594H15.5958C14.2792 42.4594 13.2119 41.3921 13.2119 40.0755V5.89037C13.2119 4.57379 14.2792 3.50647 15.5958 3.50647H35.2392C36.5557 3.50647 37.6231 4.57379 37.6231 5.89037V40.0755C37.6231 41.3921 36.5557 42.4594 35.2392 42.4594Z" fill="white"/>
<path d="M23.0341 50.8984H3.39074C2.07416 50.8984 1.00684 49.8311 1.00684 48.5145V14.3293C1.00684 13.0128 2.07416 11.9454 3.39074 11.9454H23.0341C24.3507 11.9454 25.418 13.0128 25.418 14.3293V48.5145C25.418 49.8311 24.3507 50.8984 23.0341 50.8984Z" fill="white"/>
<path d="M23.0345 11.9454H20.1738C21.4904 11.9454 22.5577 13.0128 22.5577 14.3293V48.5145C22.5577 49.8311 21.4904 50.8984 20.1738 50.8984H23.0345C24.3511 50.8984 25.4184 49.8311 25.4184 48.5145V14.3293C25.4184 13.0128 24.3511 11.9454 23.0345 11.9454Z" fill="#41D164"/>
<path d="M35.2396 3.50647H32.3789C33.6955 3.50647 34.7628 4.57379 34.7628 5.89037V40.0755C34.7628 41.3921 33.6955 42.4594 32.3789 42.4594H35.2396C36.5562 42.4594 37.6235 41.3921 37.6235 40.0755V5.89037C37.6235 4.57379 36.5563 3.50647 35.2396 3.50647Z" fill="#41D164"/>
<path d="M22.2817 4.94876H13.2124V0.17981L22.2817 4.94876Z" fill="#339A4C"/>
<path d="M1.00684 46.528V48.5146C1.00684 49.8312 2.07416 50.8985 3.39074 50.8985H23.0341C24.3507 50.8985 25.418 49.8312 25.418 48.5146V42.4595H23.3967C21.3724 42.4595 19.3667 42.8458 17.4871 43.5975L15.0786 44.5609C11.8301 45.8603 8.36346 46.5279 4.86466 46.5279H1.00684V46.528Z" fill="#339A4C"/>
<path d="M25.418 16.3159V14.3293C25.418 13.0128 24.3507 11.9454 23.0341 11.9454H3.39074C2.07416 11.9454 1.00684 13.0128 1.00684 14.3293V20.3844H3.0281C5.05241 20.3844 7.05813 19.9982 8.9377 19.2464L11.3462 18.283C14.5947 16.9836 18.0614 16.316 21.5602 16.316H25.418V16.3159Z" fill="#339A4C"/>
<path d="M23.3971 42.4595C23.1169 42.4595 22.837 42.4677 22.5577 42.4824V48.5146C22.5577 49.8312 21.4904 50.8985 20.1738 50.8985H23.0345C24.3511 50.8985 25.4184 49.8312 25.4184 48.5146V42.4595H23.3971Z" fill="#41D164"/>
<path d="M23.0345 11.9454H20.1738C21.4904 11.9454 22.5577 13.0128 22.5577 14.3293V16.3159H25.4184V14.3293C25.4184 13.0128 24.3511 11.9454 23.0345 11.9454Z" fill="#339A4C"/>
<path d="M16.833 32.2603H9.59173C8.99308 32.2603 8.50781 31.775 8.50781 31.1764V26.8813C8.50781 26.4625 8.70139 26.0672 9.03227 25.8105L12.3815 23.2117C12.8704 22.8323 13.5542 22.8323 14.0431 23.2117L17.3923 25.8105C17.7232 26.0672 17.9168 26.4625 17.9168 26.8813V31.1764C17.9169 31.775 17.4316 32.2603 16.833 32.2603Z" fill="#339A4C"/>
<path d="M17.3927 25.8106L14.0435 23.2118C13.5546 22.8324 12.8707 22.8324 12.3818 23.2118L11.7822 23.677L14.5319 25.8106C14.8628 26.0673 15.0564 26.4625 15.0564 26.8813V31.1764C15.0564 31.7751 14.5711 32.2603 13.9725 32.2603H16.8331C17.4318 32.2603 17.9171 31.7751 17.9171 31.1764V26.8813C17.9171 26.4626 17.7235 26.0673 17.3927 25.8106Z" fill="#41D164"/>
<path d="M37.6239 22.0532C38.019 22.0532 38.3391 21.733 38.3391 21.338V5.89033C38.3391 4.18155 36.9489 2.79126 35.24 2.79126H15.5966C13.8878 2.79126 12.4976 4.18155 12.4976 5.89033V11.2303H3.39106C1.68219 11.2303 0.291992 12.6206 0.291992 14.3293V35.8859C0.291992 36.2809 0.612102 36.6011 1.00716 36.6011C1.40222 36.6011 1.72233 36.2809 1.72233 35.8859V21.0996H3.02842C5.15324 21.0996 7.23086 20.6995 9.20359 19.9103L11.6122 18.9469C14.7904 17.6757 18.1375 17.0311 21.5605 17.0311H24.7031V41.7442H23.3971C21.2723 41.7442 19.1947 42.1443 17.2219 42.9335L14.8134 43.8969C11.6352 45.1682 8.28807 45.8127 4.86498 45.8127H1.72233V38.7465C1.72233 38.3515 1.40222 38.0313 1.00716 38.0313C0.612102 38.0313 0.291992 38.3515 0.291992 38.7465V48.5145C0.291992 50.2233 1.68219 51.6136 3.39106 51.6136H23.0344C24.7433 51.6136 26.1335 50.2233 26.1335 48.5145V43.1746H35.24C36.9489 43.1746 38.3391 41.7843 38.3391 40.0755V24.1987C38.3391 23.8037 38.019 23.4835 37.6239 23.4835C37.2288 23.4835 36.9087 23.8037 36.9087 24.1987V40.0755C36.9087 40.9956 36.1601 41.7442 35.24 41.7442H26.1335V35.9535H32.3539C32.749 35.9535 33.0691 35.6333 33.0691 35.2384C33.0691 34.8434 32.749 34.5232 32.3539 34.5232H26.1335V32.2664H32.3539C32.749 32.2664 33.0691 31.9462 33.0691 31.5512C33.0691 31.1563 32.749 30.836 32.3539 30.836H26.1335V28.5794H32.3539C32.749 28.5794 33.0691 28.2591 33.0691 27.8642C33.0691 27.4692 32.749 27.149 32.3539 27.149H26.1335V24.8922H32.3539C32.749 24.8922 33.0691 24.572 33.0691 24.177C33.0691 23.7821 32.749 23.4619 32.3539 23.4619H26.1335V21.2051H32.3539C32.749 21.2051 33.0691 20.8849 33.0691 20.4899C33.0691 20.095 32.749 19.7747 32.3539 19.7747H26.1335V14.3293C26.1335 13.1202 25.437 12.0712 24.4245 11.5608C24.4245 11.5607 24.4249 11.5602 24.4249 11.5602L14.6403 6.66272C14.2561 6.47067 13.9992 6.10898 13.9407 5.69285C14.0389 4.86564 14.7435 4.2216 15.5966 4.2216H35.24C36.1601 4.2216 36.9087 4.97024 36.9087 5.89033V21.338C36.9087 21.733 37.2288 22.0532 37.6239 22.0532ZM24.7031 48.5145C24.7031 49.4346 23.9545 50.1832 23.0344 50.1832H3.39106C2.47097 50.1832 1.72233 49.4346 1.72233 48.5145V47.2431H4.86498C8.47097 47.2431 11.9968 46.5641 15.3446 45.225L17.7531 44.2615C19.5562 43.5403 21.4551 43.1746 23.3971 43.1746H24.7031V48.5145ZM24.7031 15.6007H21.5605C17.9547 15.6007 14.4288 16.2798 11.0811 17.6189L8.67245 18.5824C6.86946 19.3036 4.97045 19.6693 3.02842 19.6693H1.72233V14.3293C1.72233 13.4093 2.47097 12.6606 3.39106 12.6606H23.0344C23.9545 12.6606 24.7031 13.4093 24.7031 14.3293V15.6007ZM20.57 11.2303H13.9279V7.90149C13.9523 7.91465 13.9754 7.92943 14.0003 7.94192L20.57 11.2303Z" fill="black"/>
<path d="M16.8342 32.9754C17.8262 32.9754 18.6333 32.1684 18.6333 31.1763V26.8812C18.6333 26.2368 18.3413 25.6405 17.8321 25.2455L14.4828 22.6467C13.7358 22.0669 12.6917 22.0668 11.9443 22.6467L8.59513 25.2455C8.08593 25.6406 7.79395 26.2368 7.79395 26.8812V31.1763C7.79395 32.1683 8.60094 32.9754 9.59293 32.9754H16.8342ZM9.22419 31.1763V26.8812C9.22419 26.682 9.31449 26.4977 9.47193 26.3754L12.8211 23.7767C12.9367 23.6871 13.0751 23.6422 13.2135 23.6422C13.352 23.6422 13.4904 23.6871 13.6059 23.7767L16.9552 26.3754C17.1125 26.4976 17.2029 26.6819 17.2029 26.8812V31.1763C17.2029 31.3796 17.0376 31.5451 16.8342 31.5451H13.9287V29.1734C13.9287 28.7784 13.6086 28.4582 13.2135 28.4582C12.8184 28.4582 12.4983 28.7784 12.4983 29.1734V31.5451H9.59284C9.38954 31.5451 9.22419 31.3797 9.22419 31.1763Z" fill="black"/>
<path d="M6.64844 35.9473C6.64844 36.3423 6.96855 36.6625 7.36361 36.6625H19.0618C19.4568 36.6625 19.777 36.3423 19.777 35.9473C19.777 35.5524 19.4568 35.2322 19.0618 35.2322H7.36361C6.96864 35.2322 6.64844 35.5524 6.64844 35.9473Z" fill="black"/>
<path d="M10.6058 38.9193C10.2107 38.9193 9.89062 39.2395 9.89062 39.6345C9.89062 40.0294 10.2107 40.3497 10.6058 40.3497H15.8197C16.2147 40.3497 16.5348 40.0294 16.5348 39.6345C16.5348 39.2395 16.2147 38.9193 15.8197 38.9193H10.6058Z" fill="black"/>
<path d="M32.3545 12.1577H30.5872C30.1922 12.1577 29.8721 12.4779 29.8721 12.8729C29.8721 13.2679 30.1922 13.5881 30.5872 13.5881H32.3545C32.7495 13.5881 33.0696 13.2679 33.0696 12.8729C33.0696 12.4779 32.7495 12.1577 32.3545 12.1577Z" fill="black"/>
<path d="M32.3543 1.48987H28.3431C27.948 1.48987 27.6279 1.81007 27.6279 2.20504C27.6279 2.6 27.948 2.92021 28.3431 2.92021H32.3543C32.7493 2.92021 33.0694 2.6 33.0694 2.20504C33.0694 1.81007 32.7493 1.48987 32.3543 1.48987Z" fill="black"/>
</svg>
