<svg width="25" height="23" viewBox="0 0 25 23" fill="none" xmlns="http://www.w3.org/2000/svg">
<path d="M12.0763 20.4865C12.0763 21.6331 11.1468 22.5626 10.0001 22.5626C8.85348 22.5626 7.92396 21.6331 7.92396 20.4865C7.92396 19.3398 8.85349 18.4103 10.0001 18.4103C11.1468 18.4103 12.0763 19.3398 12.0763 20.4865ZM18.4068 18.4103C17.2601 18.4103 16.3306 19.3398 16.3306 20.4865C16.3306 21.6331 17.2601 22.5627 18.4068 22.5627C19.5534 22.5627 20.483 21.6331 20.483 20.4865C20.4829 19.3398 19.5534 18.4103 18.4068 18.4103ZM24.8514 8.66376L22.2967 16.2569C22.2967 16.2569 22.0853 17.3837 21.0078 17.3837C19.9303 17.3837 9.39348 17.3837 8.10764 17.3837C6.8218 17.3837 6.76776 15.9713 6.76776 15.9713C6.76776 15.9713 5.39703 5.80188 5.3291 5.18751C5.26117 4.57314 4.47548 4.11777 4.47548 4.11777L1.09491 2.53864C-0.755903 1.57078 0.0853742 -0.27078 1.09491 0.152179C5.38158 2.17433 7.37287 3.16998 7.501 3.96649C7.63067 4.76455 7.85603 6.68638 7.85603 6.68638V6.69872C7.88228 6.69101 7.9008 6.68638 7.9008 6.68638C7.9008 6.68638 21.0464 6.68638 23.7014 6.68638C25.6094 6.68638 24.8514 8.66686 24.8514 8.66376ZM21.156 12.8918L21.1297 12.8933H8.62322L8.881 14.9371H20.5478L21.156 12.8918ZM22.3739 8.77028H8.1061L8.38087 10.9545C11.1177 10.9545 19.1323 10.9545 21.7287 10.9545L22.3739 8.77028Z" fill="#313131"/>
</svg>
