<svg width="11" height="21" viewBox="0 0 11 21" fill="none" xmlns="http://www.w3.org/2000/svg">
<path d="M5.75876 0.102561C2.99902 0.132621 0.769351 2.36289 0.740018 5.12265L0.740047 16.8204C0.764981 18.9605 2.52007 20.6751 4.66018 20.6502C6.7651 20.6257 8.46552 18.9253 8.49002 16.8204L8.49002 6.22792C8.49002 4.85088 7.37369 3.73455 5.99665 3.73455C4.61962 3.73455 3.50329 4.85088 3.50329 6.22792L3.50326 16.3598C3.50952 16.7195 3.80614 17.0059 4.16579 16.9997C4.51665 16.9936 4.79958 16.7106 4.80568 16.3598L4.80568 6.22792C4.81979 5.57016 5.36448 5.04841 6.02221 5.06255C6.66008 5.07626 7.17389 5.59008 7.1876 6.22794L7.1876 16.8203C7.17743 18.2411 6.01738 19.3846 4.5966 19.3745C3.19018 19.3644 2.05253 18.2268 2.04247 16.8203L2.04244 5.12262C2.04206 3.03858 3.73117 1.34888 5.81518 1.34847C7.89919 1.34807 9.58892 3.03721 9.58933 5.12122L9.58933 16.819C9.56159 17.1776 9.82982 17.4908 10.1884 17.5186C10.5471 17.5463 10.8603 17.2781 10.8881 16.9195C10.8906 16.886 10.8906 16.8524 10.8881 16.819L10.8881 5.12122C10.8575 2.31896 8.56104 0.0719869 5.75876 0.102561Z" fill="#008001"/>
</svg>
