<svg width="25" height="22" viewBox="0 0 25 22" fill="none" xmlns="http://www.w3.org/2000/svg">
<path d="M19.1869 13.3508C18.7154 12.9258 18.1466 12.6985 17.5438 12.6985C16.9459 12.6985 16.3722 12.9215 15.8812 13.3465L14.345 14.6721C14.2186 14.6131 14.0922 14.5584 13.9707 14.5037C13.7957 14.428 13.6304 14.3565 13.4894 14.2807C12.0505 13.4896 10.7427 12.4587 9.48851 11.1247C8.88084 10.4599 8.47249 9.90021 8.17594 9.33213C8.57457 9.01654 8.94404 8.68831 9.30378 8.37271C9.4399 8.25489 9.57602 8.13286 9.71214 8.01504C10.733 7.13136 10.733 5.98679 9.71214 5.10311L8.38498 3.95434C8.23428 3.82389 8.07871 3.68923 7.93287 3.55458C7.64119 3.29368 7.33493 3.02437 7.01894 2.77189C6.54738 2.36793 5.98346 2.15332 5.39038 2.15332C4.79729 2.15332 4.22365 2.36793 3.73751 2.77189C3.73265 2.7761 3.73265 2.7761 3.72779 2.78031L2.07492 4.22365C1.45267 4.76227 1.09779 5.41871 1.02 6.18036C0.903331 7.40909 1.32141 8.55366 1.64226 9.30268C2.4298 11.1416 3.60625 12.8458 5.36121 14.6721C7.49049 16.8728 10.0524 18.6107 12.979 19.8353C14.0971 20.2939 15.5895 20.8368 17.257 20.9293C17.3591 20.9335 17.466 20.9377 17.5633 20.9377C18.6862 20.9377 19.6293 20.5885 20.3683 19.8942C20.3731 19.8857 20.3828 19.8815 20.3877 19.8731C20.6405 19.608 20.9322 19.3682 21.2384 19.1115C21.4475 18.939 21.6614 18.758 21.8704 18.5687C22.3517 18.1352 22.6045 17.6303 22.6045 17.1127C22.6045 16.5909 22.3468 16.0902 21.8558 15.6694L19.1869 13.3508ZM20.9273 17.7818C20.9225 17.7818 20.9225 17.786 20.9273 17.7818C20.7377 17.9585 20.5433 18.1184 20.3342 18.2951C20.0182 18.556 19.6974 18.8295 19.396 19.1367C18.905 19.5912 18.3265 19.8058 17.5681 19.8058C17.4952 19.8058 17.4174 19.8058 17.3445 19.8016C15.9007 19.7216 14.5589 19.2335 13.5526 18.8169C10.8011 17.6639 8.38498 16.027 6.37724 13.9525C4.71951 12.223 3.61111 10.624 2.87705 8.90713C2.42494 7.85934 2.25965 7.04299 2.33257 6.27293C2.38119 5.7806 2.59995 5.37243 3.00344 5.02316L4.66117 3.58824C4.89938 3.39467 5.15217 3.28947 5.4001 3.28947C5.70637 3.28947 5.9543 3.44938 6.10986 3.58403C6.11472 3.58824 6.11958 3.59245 6.12444 3.59666C6.42099 3.83651 6.70295 4.08478 6.99949 4.34989C7.15019 4.48454 7.30576 4.6192 7.46132 4.75806L8.78848 5.90684C9.30378 6.35288 9.30378 6.76527 8.78848 7.21131C8.6475 7.33334 8.51138 7.45537 8.3704 7.5732C7.96204 7.93508 7.57313 8.27172 7.15019 8.59995C7.14047 8.60836 7.13075 8.61257 7.12589 8.62099C6.70781 8.98287 6.78559 9.33634 6.87309 9.5762C6.87796 9.58882 6.88282 9.60144 6.88768 9.61407C7.23284 10.3378 7.71897 11.0195 8.4579 11.8317L8.46276 11.8359C9.8045 13.2666 11.2192 14.3817 12.7797 15.2359C12.979 15.3453 13.1832 15.4337 13.3776 15.5179C13.5526 15.5936 13.7179 15.6651 13.8589 15.7409C13.8783 15.7493 13.8978 15.7619 13.9172 15.7703C14.0825 15.8419 14.2381 15.8755 14.3985 15.8755C14.802 15.8755 15.0548 15.6567 15.1374 15.5852L16.8 14.1461C16.9653 14.003 17.2278 13.8305 17.5341 13.8305C17.8355 13.8305 18.0834 13.9946 18.2341 14.1376C18.239 14.1419 18.239 14.1419 18.2438 14.1461L20.9225 16.4647C21.4232 16.8939 21.4232 17.3357 20.9273 17.7818Z" fill="#313131" stroke="#313131" stroke-width="0.9"/>
<path d="M13.4308 5.74265C14.7045 5.9278 15.8615 6.44959 16.7852 7.24911C17.7088 8.04862 18.3068 9.05012 18.5255 10.1526C18.579 10.4303 18.8561 10.6239 19.1721 10.6239C19.211 10.6239 19.245 10.6197 19.2839 10.6155C19.6436 10.565 19.8818 10.2704 19.8235 9.95905C19.561 8.62512 18.8318 7.40901 17.7185 6.44538C16.6053 5.48176 15.2004 4.85056 13.6593 4.62333C13.2996 4.57283 12.9641 4.77902 12.9009 5.08621C12.8377 5.39339 13.0711 5.69216 13.4308 5.74265Z" fill="#313131" stroke="#313131" stroke-width="0.9"/>
<path d="M23.99 9.79493C23.5573 7.59836 22.3614 5.59957 20.5238 4.00895C18.6862 2.41834 16.3771 1.38317 13.8394 1.00866C13.4846 0.953957 13.1491 1.16436 13.0859 1.47154C13.0276 1.78293 13.2658 2.07328 13.6255 2.12798C15.8909 2.46042 17.957 3.39038 19.6002 4.80847C21.2433 6.23077 22.3128 8.01916 22.6969 9.98008C22.7503 10.2578 23.0274 10.4514 23.3434 10.4514C23.3823 10.4514 23.4164 10.4472 23.4552 10.443C23.8101 10.3967 24.0532 10.1021 23.99 9.79493Z" fill="#313131" stroke="#313131" stroke-width="0.9"/>
</svg>
