<svg width="37" height="55" viewBox="0 0 37 55" fill="none" xmlns="http://www.w3.org/2000/svg">
<rect x="6.35742" y="10" width="5.65887" height="29.3615" rx="2.82943" fill="white" stroke="#F16B11" stroke-width="2"/>
<rect x="4.12207" y="40.5149" width="2.50946" height="10.1811" rx="1.25473" fill="white" stroke="#F16B11" stroke-width="2"/>
<rect x="30.4895" y="40.5149" width="2.50946" height="10.1811" rx="1.25473" fill="white" stroke="#F16B11" stroke-width="2"/>
<rect x="1" y="28.925" width="35" height="16.6051" rx="3.09426" fill="#FFAF79" stroke="#F16B11" stroke-width="2"/>
<circle cx="4.24471" cy="49.8502" r="3.24471" fill="#FFAF79" stroke="#F16B11" stroke-width="2"/>
<circle cx="6.15933" cy="39.515" r="1.32999" fill="white" stroke="#F16B11" stroke-width="2"/>
<circle cx="11.6776" cy="39.515" r="1.32999" fill="white" stroke="#F16B11" stroke-width="2"/>
<circle cx="32.7552" cy="49.8502" r="3.24471" fill="#FFAF79" stroke="#F16B11" stroke-width="2"/>
<path d="M15.2106 29.7872C14.7398 27.8402 16.2151 25.9658 18.2182 25.9658H30.5919C32.6451 25.9658 34.1289 27.9289 33.5688 29.9042L29.5316 44.1426C29.1541 45.474 27.9385 46.3928 26.5547 46.3928H21.6606C20.2317 46.3928 18.9887 45.4145 18.653 44.0257L15.2106 29.7872Z" fill="white" stroke="#F16B11" stroke-width="2"/>
<path d="M18.3945 28.7715H30.6304" stroke="#F16B11" stroke-width="2" stroke-linecap="round"/>
<path d="M22.4958 43.9722H26.5289" stroke="#F16B11" stroke-width="2" stroke-linecap="round"/>
<path d="M9.18677 1.38232L9.18677 6.80051" stroke="#F16B11" stroke-width="2" stroke-linecap="round"/>
<path d="M9.18677 31.9233L9.18677 34.6325" stroke="#F16B11" stroke-width="2" stroke-linecap="round"/>
<path d="M6.15942 33.9114L6.15942 34.6324" stroke="#F16B11" stroke-width="2" stroke-linecap="round"/>
<path d="M11.6775 33.9114L11.6775 34.6324" stroke="#F16B11" stroke-width="2" stroke-linecap="round"/>
</svg>
