<svg width="34" height="33" viewBox="0 0 34 33" fill="none" xmlns="http://www.w3.org/2000/svg">
<path d="M10.2068 10.0853H1.17739V31.5166H10.2068V28.9953V12.6066V10.0853Z" fill="#FFAF79"/>
<path d="M1.17743 32.7773H10.2068C10.5062 32.7773 10.7933 32.6445 11.0049 32.4081C11.2166 32.1717 11.3355 31.851 11.3355 31.5167V30.9998C13.752 32.1659 16.3556 32.7707 18.9879 32.7773H28.2656C29.1628 32.7744 30.0225 32.3749 30.657 31.6663C31.2914 30.9577 31.649 29.9975 31.6517 28.9953C31.6495 28.3441 31.4938 27.7049 31.2002 27.1422C31.6182 26.8511 31.9736 26.4607 32.2413 25.9989C32.5091 25.5371 32.6825 25.0151 32.7493 24.4701C32.8161 23.925 32.7746 23.3702 32.6278 22.845C32.481 22.3198 32.2325 21.8372 31.9 21.4313C32.4642 20.7426 32.7782 19.8436 32.7803 18.91C32.7781 18.2587 32.6224 17.6196 32.3289 17.0568C32.9458 16.6177 33.4188 15.9673 33.6772 15.2028C33.9355 14.4384 33.9652 13.6011 33.7619 12.8162C33.5586 12.0313 33.1332 11.341 32.5493 10.8487C31.9654 10.3565 31.2545 10.0886 30.523 10.0853H24.8796V3.78198C24.8769 2.77986 24.5193 1.81963 23.8849 1.11101C23.2505 0.402393 22.3908 0.00297546 21.4936 -1.90735e-05H19.2362C18.9369 -1.90735e-05 18.6498 0.132801 18.4381 0.369221C18.2265 0.60564 18.1076 0.926298 18.1076 1.26065V5.04265C18.1076 5.87042 17.9616 6.69008 17.678 7.45484C17.3944 8.21959 16.9787 8.91447 16.4547 9.49979C15.9306 10.0851 15.3085 10.5494 14.6238 10.8662C13.9391 11.1829 13.2053 11.346 12.4642 11.346H11.3355V10.0853C11.3355 9.75097 11.2166 9.43032 11.0049 9.1939C10.7933 8.95747 10.5062 8.82466 10.2068 8.82466H1.17743C0.878086 8.82466 0.591003 8.95747 0.379333 9.1939C0.167667 9.43032 0.0487556 9.75097 0.0487556 10.0853V31.5167C0.0487556 31.851 0.167667 32.1717 0.379333 32.4081C0.591003 32.6445 0.878086 32.7773 1.17743 32.7773ZM11.3355 13.8673H12.4642C14.5589 13.8647 16.567 12.9341 18.0482 11.2797C19.5294 9.62532 20.3625 7.38228 20.3649 5.04265V2.52132H21.4936C21.7929 2.52132 22.08 2.65413 22.2917 2.89056C22.5034 3.12698 22.6223 3.44763 22.6223 3.78198V11.346C22.6223 11.6803 22.7412 12.001 22.9528 12.2374C23.1645 12.4738 23.4516 12.6067 23.7509 12.6067H30.523C30.8223 12.6067 31.1094 12.7395 31.3211 12.9759C31.5328 13.2123 31.6517 13.533 31.6517 13.8673C31.6517 14.2017 31.5328 14.5223 31.3211 14.7588C31.1094 14.9952 30.8223 15.128 30.523 15.128H27.137C26.8376 15.128 26.5505 15.2608 26.3389 15.4972C26.1272 15.7337 26.0083 16.0543 26.0083 16.3887C26.0083 16.723 26.1272 17.0437 26.3389 17.2801C26.5505 17.5165 26.8376 17.6493 27.137 17.6493H29.3943C29.6937 17.6493 29.9807 17.7821 30.1924 18.0186C30.4041 18.255 30.523 18.5756 30.523 18.91C30.523 19.2443 30.4041 19.565 30.1924 19.8014C29.9807 20.0378 29.6937 20.1707 29.3943 20.1707H27.137C26.8376 20.1707 26.5505 20.3035 26.3389 20.5399C26.1272 20.7763 26.0083 21.097 26.0083 21.4313C26.0083 21.7657 26.1272 22.0863 26.3389 22.3228C26.5505 22.5592 26.8376 22.692 27.137 22.692H29.3943C29.6937 22.692 29.9807 22.8248 30.1924 23.0612C30.4041 23.2977 30.523 23.6183 30.523 23.9527C30.523 24.287 30.4041 24.6077 30.1924 24.8441C29.9807 25.0805 29.6937 25.2133 29.3943 25.2133H27.137C26.8376 25.2133 26.5505 25.3462 26.3389 25.5826C26.1272 25.819 26.0083 26.1397 26.0083 26.474C26.0083 26.8084 26.1272 27.129 26.3389 27.3654C26.5505 27.6019 26.8376 27.7347 27.137 27.7347H28.2656C28.565 27.7347 28.8521 27.8675 29.0637 28.1039C29.2754 28.3403 29.3943 28.661 29.3943 28.9953C29.3943 29.3297 29.2754 29.6503 29.0637 29.8868C28.8521 30.1232 28.565 30.256 28.2656 30.256H18.9879C16.3682 30.254 13.7841 29.5767 11.4371 28.2768L11.3355 28.2137V13.8673ZM2.30611 11.346H9.07816V30.256H2.30611V11.346Z" fill="#F16B11"/>
</svg>
