<svg width="45" height="44" viewBox="0 0 45 44" fill="none" xmlns="http://www.w3.org/2000/svg">
<path d="M39.1712 8.2521L32.9836 14.9847L26.5594 8.56051L34.0733 2.02127L39.1712 8.2521Z" fill="#FFAF79" stroke="#F16B11" stroke-width="2"/>
<path d="M43.2944 21.0903C43.2944 19.4335 41.9513 18.0903 40.2944 18.0903L35.0944 18.0903C33.4376 18.0903 32.0944 19.4335 32.0944 21.0903V36.9903L31.7988 37.5815C30.6482 39.8828 32.3216 42.5903 34.8944 42.5903H38.0444C40.9439 42.5903 43.2944 40.2398 43.2944 37.3403V21.0903Z" fill="#FFAF79" stroke="#F16B11" stroke-width="2"/>
<path d="M9.29443 1.59009L33.1944 1.59009V7.29009C33.1944 8.39466 34.0899 9.29009 35.1944 9.29009H39.4944V35.3901C39.4944 36.4947 38.599 37.3901 37.4944 37.3901H9.29443V1.59009Z" fill="white" stroke="#F16B11" stroke-width="2"/>
<path d="M1.29443 14.7903C1.29443 13.1334 2.63758 11.7903 4.29443 11.7903H11.5944C13.2513 11.7903 14.5944 13.1334 14.5944 14.7903V15.0903C14.5944 16.7471 15.9376 18.0903 17.5944 18.0903H29.0944C30.7513 18.0903 32.0944 19.4334 32.0944 21.0903V37.3403V39.0903C32.0944 41.0233 33.6614 42.5903 35.5944 42.5903H1.29443V14.7903Z" fill="#FFAF79" stroke="#F16B11" stroke-width="2"/>
<path d="M15.2944 6.19019H26.4944" stroke="#F16B11" stroke-width="2" stroke-linecap="round"/>
<path d="M19.4944 10.3901H30.6944" stroke="#F16B11" stroke-width="2" stroke-linecap="round"/>
<path d="M19.4944 14.5903L36.2944 14.5903" stroke="#F16B11" stroke-width="2" stroke-linecap="round"/>
</svg>
