<svg width="167" height="28" viewBox="0 0 167 28" fill="none" xmlns="http://www.w3.org/2000/svg">
<path d="M38.4258 20.5408C37.4369 19.5801 36.9565 18.3087 36.9565 16.7547V6.55492C36.9565 4.97268 37.4369 3.7295 38.4258 2.76885C39.4147 1.80821 40.7426 1.32788 42.3531 1.32788C43.9636 1.32788 45.3198 1.80821 46.3087 2.76885C47.2976 3.7295 47.8344 5.00093 47.8344 6.55492V7.68509C47.8344 7.76985 47.7779 7.85462 47.7497 7.93938C47.6649 8.02415 47.6084 8.02414 47.4954 8.02414H44.8395C44.7547 8.02414 44.67 7.96764 44.5852 7.93938C44.5004 7.85462 44.5004 7.79811 44.5004 7.68509V6.52667C44.5004 5.82031 44.2744 5.25523 43.8788 4.85967C43.4833 4.43585 42.9747 4.20981 42.3531 4.20981C41.7033 4.20981 41.2229 4.43585 40.8274 4.85967C40.4318 5.28348 40.2623 5.82031 40.2623 6.52667V16.7547C40.2623 17.4611 40.4318 18.0262 40.8274 18.4217C41.2229 18.8455 41.7033 19.0716 42.3531 19.0716C43.003 19.0716 43.4833 18.8455 43.8788 18.4217C44.2744 17.9979 44.5004 17.4611 44.5004 16.7547V14.0141C44.5004 13.9293 44.4439 13.8728 44.3592 13.8728H42.6074C42.5226 13.8728 42.4379 13.8163 42.3531 13.788C42.2684 13.7033 42.2683 13.6467 42.2683 13.5337V11.4429C42.2683 11.3582 42.3249 11.2734 42.3531 11.1886C42.4379 11.1039 42.4944 11.1039 42.6074 11.1039H47.4954C47.5802 11.1039 47.6649 11.1604 47.7497 11.1886C47.8344 11.2734 47.8344 11.3299 47.8344 11.4429V16.7547C47.8344 18.337 47.2976 19.5801 46.3087 20.5408C45.3198 21.5014 43.9919 21.9818 42.3531 21.9818C40.7426 21.9818 39.4429 21.5014 38.4258 20.5408Z" fill="white"/>
<path d="M58.1757 21.4733L55.7458 13.2513C55.6893 13.1665 55.661 13.11 55.6045 13.11H54.0788C53.994 13.11 53.9375 13.1665 53.9375 13.2513V21.445C53.9375 21.5298 53.881 21.6145 53.8528 21.6993C53.768 21.7841 53.7115 21.7841 53.5985 21.7841H50.9426C50.8578 21.7841 50.7731 21.7275 50.6883 21.6993C50.6035 21.6145 50.6035 21.558 50.6035 21.445V2.00605C50.6035 1.92128 50.66 1.83652 50.6883 1.75176C50.7731 1.667 50.8296 1.66699 50.9426 1.66699H56.3392C57.3281 1.66699 58.2604 1.92128 59.0516 2.40161C59.8427 2.88193 60.436 3.58828 60.8881 4.49242C61.3119 5.3683 61.5379 6.41371 61.5379 7.54388C61.5379 8.73056 61.3119 9.77598 60.8316 10.6236C60.3513 11.4995 59.7297 12.1493 58.9103 12.5732C58.8255 12.5732 58.8255 12.6579 58.8255 12.7427L61.651 21.4167C61.651 21.4733 61.7075 21.5015 61.7075 21.558C61.7075 21.7275 61.6227 21.8123 61.3967 21.8123H58.656C58.3452 21.7558 58.2604 21.6428 58.1757 21.4733ZM53.9375 4.63369V10.3411C53.9375 10.4258 53.994 10.4823 54.0788 10.4823H55.8306C56.5369 10.4823 57.102 10.2281 57.5258 9.69122C57.9496 9.15439 58.1757 8.41977 58.1757 7.51563C58.1757 6.6115 57.9496 5.84863 57.5258 5.28355C57.102 4.71846 56.5369 4.46417 55.8306 4.46417H54.0788C53.994 4.46417 53.9375 4.54893 53.9375 4.63369Z" fill="white"/>
<path d="M65.2109 20.3714C64.222 19.326 63.7417 17.885 63.7417 16.1332V1.92133C63.7417 1.83657 63.7982 1.7518 63.8265 1.66703C63.9112 1.58227 63.9677 1.58228 64.0808 1.58228H66.7367C66.8214 1.58228 66.9062 1.63878 66.9909 1.66703C67.0757 1.7518 67.0757 1.80831 67.0757 1.92133V16.4723C67.0757 17.2634 67.2452 17.8567 67.6408 18.3371C68.0364 18.8174 68.5167 19.0717 69.1665 19.0717C69.8164 19.0717 70.2967 18.8174 70.6923 18.3371C71.0878 17.8567 71.2574 17.2352 71.2574 16.4723V1.92133C71.2574 1.83657 71.3139 1.7518 71.3421 1.66703C71.4269 1.58227 71.4834 1.58228 71.5964 1.58228H74.2523C74.3371 1.58228 74.4218 1.63878 74.5066 1.66703C74.5914 1.7518 74.5914 1.80831 74.5914 1.92133V16.1332C74.5914 17.885 74.111 19.2695 73.1221 20.3714C72.1332 21.4168 70.8053 21.9819 69.1948 21.9819C67.5278 21.9819 66.1716 21.4733 65.2109 20.3714Z" fill="white"/>
<path d="M86.7407 20.3431C85.6953 21.3037 84.3956 21.7841 82.7286 21.7841H77.6711C77.5863 21.7841 77.5016 21.7275 77.4168 21.6993C77.332 21.6145 77.332 21.558 77.332 21.445V2.00605C77.332 1.92128 77.3885 1.83652 77.4168 1.75176C77.5016 1.667 77.5581 1.66699 77.6711 1.66699H82.1918C84.0283 1.66699 85.4693 2.14732 86.4582 3.05146C87.5036 3.9556 88.0404 5.31181 88.0404 7.06357C88.0404 9.01312 87.3341 10.4541 85.9496 11.3017C85.8648 11.3582 85.8083 11.443 85.8931 11.4712C86.6277 11.9516 87.2493 12.6014 87.6448 13.3925C88.0687 14.1836 88.2947 15.1443 88.2947 16.2745C88.2664 17.9697 87.7861 19.3824 86.7407 20.3431ZM80.6943 4.63369V10.002C80.6943 10.0868 80.7508 10.1433 80.8356 10.1433H82.3048C83.0959 10.1433 83.6892 9.889 84.1413 9.40867C84.5651 8.92835 84.7912 8.22199 84.7912 7.37436C84.7912 6.47023 84.5651 5.76387 84.1413 5.22703C83.7175 4.74671 83.0959 4.49242 82.3048 4.49242H80.8356C80.7225 4.46417 80.6943 4.54893 80.6943 4.63369ZM84.3108 18.0262C84.7347 17.4894 84.9607 16.7265 84.9607 15.7659C84.9607 14.777 84.7347 13.9859 84.3108 13.4208C83.887 12.8557 83.2654 12.6014 82.4743 12.6014H80.8073C80.7225 12.6014 80.666 12.6579 80.666 12.7427V18.6761C80.666 18.7608 80.7225 18.8174 80.8073 18.8174H82.4743C83.2654 18.8456 83.8588 18.5913 84.3108 18.0262Z" fill="white"/>
<path d="M99.1158 21.5016L95.9231 12.4037C95.9231 12.3472 95.8666 12.319 95.7818 12.319H92.9564C92.8717 12.319 92.8151 12.3755 92.8151 12.4602V21.4734C92.8151 21.6429 92.7304 21.7842 92.5044 21.7842H91.5437C91.3742 21.7842 91.2329 21.6994 91.2329 21.4734V1.92139C91.2329 1.75187 91.3177 1.6106 91.5437 1.6106H96.0361C97.3923 1.6106 98.466 2.09091 99.3136 3.07981C100.133 4.06871 100.529 5.39667 100.529 7.00717C100.529 8.27861 100.274 9.40877 99.7092 10.2847C99.1441 11.1888 98.4095 11.8104 97.4489 12.1212C97.3641 12.1212 97.3641 12.2059 97.3641 12.2625L100.642 21.4169L100.698 21.5581C100.698 21.6994 100.613 21.7842 100.444 21.7842H99.4832C99.2854 21.7559 99.1724 21.6711 99.1158 21.5016ZM92.8434 3.07981V10.9345C92.8434 11.0193 92.8999 11.0758 92.9847 11.0758H95.8949C96.8555 11.0758 97.5901 10.7367 98.1552 9.97387C98.7203 9.23926 99.0311 8.27861 99.0311 7.06368C99.0311 5.84874 98.7203 4.83158 98.1552 4.09697C97.5901 3.36236 96.799 2.99505 95.8949 2.99505H92.9847C92.8999 2.93855 92.8434 2.99505 92.8434 3.07981Z" fill="white"/>
<path d="M104.993 20.5127C104.117 19.5238 103.693 18.1959 103.693 16.5571V1.92139C103.693 1.75187 103.778 1.6106 104.004 1.6106H104.965C105.134 1.6106 105.276 1.69536 105.276 1.92139V16.7266C105.276 17.9133 105.586 18.874 106.151 19.5521C106.717 20.2584 107.508 20.654 108.468 20.654C109.429 20.654 110.22 20.3149 110.813 19.5521C111.435 18.8175 111.718 17.8851 111.718 16.7266V1.92139C111.718 1.75187 111.802 1.6106 112.028 1.6106H112.989C113.159 1.6106 113.3 1.69536 113.3 1.92139V16.5571C113.3 18.1676 112.876 19.5238 112 20.4845C111.124 21.4734 109.938 21.9537 108.553 21.9537C106.999 21.9819 105.869 21.5016 104.993 20.5127Z" fill="white"/>
<path d="M125.364 1.61053H126.268C126.438 1.61053 126.579 1.6953 126.579 1.92133V21.4733C126.579 21.6428 126.495 21.7841 126.268 21.7841H125.138C124.969 21.7841 124.884 21.6993 124.828 21.5581L118.696 5.42486C118.696 5.36835 118.64 5.34009 118.612 5.34009C118.555 5.34009 118.555 5.39661 118.555 5.42486L118.612 21.445C118.612 21.6146 118.527 21.7558 118.301 21.7558H117.34C117.171 21.7558 117.029 21.6711 117.029 21.445V1.89307C117.029 1.72355 117.114 1.58228 117.34 1.58228H118.414C118.583 1.58228 118.668 1.66703 118.725 1.80831L124.856 17.8285C124.856 17.885 124.912 17.9133 124.941 17.9133C124.997 17.9133 124.997 17.8568 124.997 17.8285V1.89307C125.082 1.72355 125.167 1.61053 125.364 1.61053Z" fill="white"/>
<path d="M139.435 1.61053H140.339C140.509 1.61053 140.65 1.6953 140.65 1.92133V21.4733C140.65 21.6428 140.565 21.7841 140.339 21.7841H139.209C139.039 21.7841 138.955 21.6993 138.898 21.5581L132.739 5.42486C132.739 5.36835 132.682 5.34009 132.654 5.34009C132.598 5.34009 132.598 5.39661 132.598 5.42486L132.654 21.445C132.654 21.6146 132.569 21.7558 132.343 21.7558H131.383C131.213 21.7558 131.072 21.6711 131.072 21.445V1.89307C131.072 1.72355 131.157 1.58228 131.383 1.58228H132.484C132.654 1.58228 132.739 1.66703 132.795 1.80831L138.926 17.8285C138.926 17.885 138.983 17.9133 139.011 17.9133C139.068 17.9133 139.068 17.8568 139.068 17.8285V1.89307C139.124 1.72355 139.209 1.61053 139.435 1.61053Z" fill="white"/>
<path d="M153.618 2.93838H146.809C146.724 2.93838 146.668 2.99489 146.668 3.07966V10.8779C146.668 10.9626 146.724 11.0191 146.809 11.0191H151.16C151.33 11.0191 151.471 11.1039 151.471 11.3299V12.121C151.471 12.2906 151.386 12.4318 151.16 12.4318H146.809C146.724 12.4318 146.668 12.4883 146.668 12.5731V20.3713C146.668 20.456 146.724 20.5126 146.809 20.5126H153.618C153.788 20.5126 153.929 20.5973 153.929 20.8233V21.6145C153.929 21.784 153.844 21.9253 153.618 21.9253H145.481C145.312 21.9253 145.17 21.8405 145.17 21.6145V2.06251C145.17 1.89298 145.255 1.75171 145.481 1.75171H153.618C153.788 1.75171 153.929 1.83647 153.929 2.06251V2.85362C153.901 2.85362 153.788 2.93838 153.618 2.93838Z" fill="white"/>
<path d="M165.231 21.5016L162.038 12.4037C162.038 12.3472 161.982 12.319 161.897 12.319H159.072C158.987 12.319 158.93 12.3755 158.93 12.4602V21.4734C158.93 21.6429 158.846 21.7842 158.62 21.7842H157.659C157.489 21.7842 157.348 21.6994 157.348 21.4734V1.92139C157.348 1.75187 157.433 1.6106 157.659 1.6106H162.095C163.451 1.6106 164.525 2.09091 165.372 3.07981C166.192 4.06871 166.587 5.39667 166.587 7.00717C166.587 8.27861 166.333 9.40877 165.768 10.2847C165.203 11.1888 164.468 11.8104 163.508 12.1212C163.423 12.1212 163.423 12.2059 163.423 12.2625L166.7 21.4169L166.757 21.5581C166.757 21.6994 166.672 21.7842 166.503 21.7842H165.542C165.401 21.7559 165.259 21.6711 165.231 21.5016ZM158.987 3.07981V10.9345C158.987 11.0193 159.043 11.0758 159.128 11.0758H162.038C162.999 11.0758 163.734 10.7367 164.299 9.97387C164.864 9.23926 165.175 8.27861 165.175 7.06368C165.175 5.84874 164.864 4.83158 164.299 4.09697C163.734 3.36236 162.942 2.99505 162.038 2.99505H159.128C158.987 2.93855 158.987 2.99505 158.987 3.07981Z" fill="white"/>
<path d="M22.4055 21.4732C22.4055 21.219 22.6316 20.9929 22.8859 20.9929C23.1401 20.9929 23.3662 21.219 23.3662 21.4732L23.5357 27.5197C23.5357 27.6892 23.4509 27.8587 23.2814 27.9435C23.1967 28 23.1401 28 23.0554 28C22.9706 28 22.8293 27.9435 22.7446 27.9152L15.3702 21.8688C15.1442 21.6993 15.1442 21.3885 15.3137 21.219C15.4832 20.9929 15.794 20.9929 15.9636 21.1624" fill="white"/>
<path d="M28.7911 7.76987V4.94443C28.7911 2.37329 22.3774 0.282471 14.4944 0.282471C6.61147 0.282471 0.197754 2.37329 0.197754 4.94443V7.82636L28.7911 7.76987Z" fill="white"/>
<path d="M0.226031 7.99597C0.169522 7.99597 0.0847663 7.93946 0.056512 7.93946C0.0282577 7.93946 0 7.8547 0 7.76994V4.888C0 2.14733 6.35722 0 14.5227 0C22.66 0 29.0172 2.14733 29.0172 4.888V7.71343C29.0172 7.8547 28.9324 7.93946 28.7911 7.93946L0.226031 7.99597ZM14.5227 0.45207C6.89405 0.45207 0.452062 2.48638 0.452062 4.888V7.54389H28.5368V4.91625C28.5933 2.51463 22.1231 0.45207 14.5227 0.45207Z" fill="white"/>
<path d="M0.226074 18.676C0.226074 21.8688 6.63981 22.0665 14.5228 22.0665C22.4057 22.0665 28.8194 21.8123 28.8194 18.676V17.3198H0.226074V18.676Z" fill="white"/>
<path d="M14.4944 22.2925C6.3007 22.2925 0 22.0382 0 18.676V17.3198C0 17.1785 0.0847594 17.0938 0.226031 17.0938H28.7629C28.9041 17.0938 28.9889 17.1785 28.9889 17.3198V18.676C29.0172 22.0382 22.6882 22.2925 14.4944 22.2925ZM0.423814 17.5458V18.676C0.423814 21.6427 6.78103 21.8687 14.4944 21.8687C22.2079 21.8687 28.5651 21.6144 28.5651 18.676V17.5458H0.423814Z" fill="white"/>
<path d="M1.13017 13.675H27.9152C28.5368 13.675 29.0454 13.1947 29.0454 12.5731C29.0454 11.9515 28.5368 11.4712 27.9152 11.4712H1.13017C0.508577 11.4712 0 11.9515 0 12.5731C0 13.1382 0.508577 13.675 1.13017 13.675Z" fill="white"/>
</svg>
