<svg width="49" height="61" viewBox="0 0 49 61" fill="none" xmlns="http://www.w3.org/2000/svg">
<path fill-rule="evenodd" clip-rule="evenodd" d="M27.7836 48.4845C39.4919 46.7605 48.4811 36.6222 48.4811 24.3717C48.4811 10.9117 37.6282 0 24.2406 0C10.853 0 0 10.9117 0 24.3717C0 36.2411 8.44097 46.1288 19.6152 48.3001C20.5476 48.7107 21.6573 49.4077 22.3556 50.5509C22.7944 51.2682 23.0183 51.8134 23.1552 52.2199C23.4268 53.0269 23.6396 53.2918 23.9223 53.2918C24.2051 53.2918 24.3976 53.0137 24.6591 52.1934C24.7888 51.7889 25.0057 51.2509 25.4344 50.5509C26.0364 49.5636 26.9465 48.9094 27.7836 48.4845ZM23.8372 60.1166C25.176 60.1166 26.2614 59.0253 26.2614 57.6793C26.2614 56.3333 25.176 55.242 23.8372 55.242C22.4984 55.242 21.4131 56.3333 21.4131 57.6793C21.4131 59.0253 22.4984 60.1166 23.8372 60.1166Z" fill="#F16B11"/>
<path d="M14.1469 20.7797L16.7765 17.467H20.2361V28H16.3284V22.9612L14.1469 25.6716L11.9654 22.9612V28H8.05036V17.467H11.51L14.1469 20.7797ZM30.1668 23.7912L32.5026 26.1931C32.4634 26.2518 32.3997 26.3302 32.3116 26.4281C32.2283 26.5212 32.0374 26.6901 31.7387 26.9349C31.4448 27.1749 31.129 27.3879 30.7911 27.574C30.4581 27.7601 30.0174 27.9265 29.469 28.0735C28.9205 28.2253 28.3525 28.3012 27.7649 28.3012C26.0608 28.3012 24.6309 27.7552 23.4753 26.6632C22.3197 25.5663 21.7418 24.2564 21.7418 22.7335C21.7418 21.2106 22.3172 19.9031 23.468 18.8111C24.6236 17.7143 26.0559 17.1658 27.7649 17.1658C28.3574 17.1658 28.923 17.2393 29.4616 17.3862C30.0052 17.5331 30.4508 17.7094 30.7985 17.915C31.151 18.1207 31.462 18.3264 31.7313 18.532C32.0055 18.7377 32.2014 18.914 32.3189 19.0609L32.5026 19.2739L30.1668 21.6831C30.0982 21.6048 30.0003 21.5068 29.873 21.3893C29.7506 21.2718 29.4935 21.1151 29.1017 20.9192C28.71 20.7233 28.3133 20.6254 27.9118 20.6254C27.2801 20.6254 26.7464 20.8335 26.3105 21.2498C25.8747 21.666 25.6568 22.1606 25.6568 22.7335C25.6568 23.3064 25.8747 23.801 26.3105 24.2172C26.7464 24.6334 27.2801 24.8416 27.9118 24.8416C28.3133 24.8416 28.7026 24.7534 29.0797 24.5771C29.4567 24.4008 29.7285 24.227 29.895 24.0556L30.1668 23.7912ZM33.6998 17.467H38.8929C40.1856 17.467 41.2238 17.8342 42.0073 18.5688C42.7907 19.2984 43.1825 20.2361 43.1825 21.382C43.1825 22.5229 42.7907 23.4607 42.0073 24.1952C41.2238 24.9248 40.1856 25.2896 38.8929 25.2896H37.6148V28H33.6998V17.467ZM38.5917 20.7797H37.6148V21.9843H38.5917C38.7729 21.9843 38.9296 21.9231 39.0618 21.8006C39.1989 21.6733 39.2675 21.5338 39.2675 21.382C39.2675 21.2302 39.1989 21.0931 39.0618 20.9706C38.9296 20.8433 38.7729 20.7797 38.5917 20.7797Z" fill="white"/>
</svg>
