<svg width="24" height="24" viewBox="0 0 24 24" fill="none" xmlns="http://www.w3.org/2000/svg">
<path d="M15.703 13.6517C15.4544 13.3887 15.1546 13.2481 14.8368 13.2481C14.5216 13.2481 14.2192 13.3861 13.9604 13.6491L13.1505 14.4694C13.0839 14.433 13.0173 14.3991 12.9532 14.3653C12.8609 14.3184 12.7738 14.2741 12.6995 14.2272C11.9409 13.7377 11.2515 13.0997 10.5903 12.2741C10.27 11.8627 10.0547 11.5163 9.89839 11.1648C10.1085 10.9695 10.3033 10.7664 10.493 10.5711C10.5647 10.4981 10.6365 10.4226 10.7082 10.3497C11.2464 9.80284 11.2464 9.09452 10.7082 8.54765L10.0086 7.83673C9.92915 7.756 9.84714 7.67267 9.77026 7.58934C9.61649 7.42788 9.45504 7.26122 9.28846 7.10497C9.03987 6.85498 8.74259 6.72217 8.42994 6.72217C8.11728 6.72217 7.81488 6.85498 7.5586 7.10497C7.55604 7.10758 7.55604 7.10758 7.55348 7.11018L6.68214 8.00339C6.35411 8.33672 6.16703 8.74296 6.12602 9.21431C6.06452 9.97471 6.28491 10.683 6.45406 11.1466C6.86922 12.2846 7.48941 13.3392 8.41456 14.4694C9.53705 15.8314 10.8876 16.9069 12.4304 17.6647C13.0198 17.9485 13.8066 18.2845 14.6856 18.3417C14.7394 18.3443 14.7958 18.347 14.8471 18.347C15.4391 18.347 15.9362 18.1308 16.3258 17.7011C16.3283 17.6959 16.3335 17.6933 16.336 17.6881C16.4693 17.5241 16.6231 17.3756 16.7845 17.2168C16.8947 17.11 17.0075 16.998 17.1177 16.8808C17.3714 16.6126 17.5046 16.3001 17.5046 15.9798C17.5046 15.6569 17.3688 15.347 17.11 15.0866L15.703 13.6517ZM16.6205 16.3939C16.6179 16.3939 16.6179 16.3965 16.6205 16.3939C16.5205 16.5032 16.418 16.6022 16.3078 16.7116C16.1413 16.873 15.9721 17.0423 15.8132 17.2324C15.5544 17.5136 15.2494 17.6464 14.8496 17.6464C14.8112 17.6464 14.7702 17.6464 14.7317 17.6438C13.9706 17.5944 13.2633 17.2923 12.7328 17.0345C11.2823 16.3209 10.0086 15.3079 8.95018 14.0241C8.07628 12.9538 7.49197 11.9643 7.10499 10.9018C6.86666 10.2534 6.77953 9.74815 6.81797 9.2716C6.84359 8.96692 6.95892 8.71432 7.17163 8.49818L8.04552 7.61017C8.1711 7.49038 8.30436 7.42528 8.43506 7.42528C8.59652 7.42528 8.72722 7.52424 8.80922 7.60757C8.81179 7.61017 8.81435 7.61278 8.81691 7.61538C8.97324 7.76382 9.12188 7.91746 9.27821 8.08152C9.35765 8.16485 9.43966 8.24818 9.52167 8.33412L10.2213 9.04504C10.493 9.32108 10.493 9.57628 10.2213 9.85232C10.147 9.92784 10.0752 10.0034 10.0009 10.0763C9.78563 10.3002 9.58061 10.5086 9.35765 10.7117C9.35253 10.7169 9.3474 10.7195 9.34484 10.7247C9.12444 10.9487 9.16545 11.1674 9.21158 11.3158C9.21414 11.3236 9.2167 11.3315 9.21926 11.3393C9.40122 11.7872 9.65749 12.209 10.047 12.7116L10.0496 12.7142C10.7569 13.5996 11.5027 14.2897 12.3253 14.8184C12.4304 14.8861 12.538 14.9408 12.6405 14.9928C12.7328 15.0397 12.8199 15.084 12.8942 15.1309C12.9045 15.1361 12.9148 15.1439 12.925 15.1491C13.0121 15.1934 13.0941 15.2142 13.1787 15.2142C13.3914 15.2142 13.5247 15.0788 13.5683 15.0345L14.4447 14.1439C14.5318 14.0554 14.6702 13.9486 14.8317 13.9486C14.9906 13.9486 15.1213 14.0502 15.2007 14.1387C15.2033 14.1413 15.2033 14.1413 15.2059 14.1439L16.6179 15.5788C16.8819 15.8444 16.8819 16.1178 16.6205 16.3939Z" fill="#9B9B9B" stroke="#9B9B9B" stroke-width="0.4"/>
<path d="M12.6686 8.9435C13.34 9.05808 13.9499 9.38099 14.4369 9.87577C14.9238 10.3706 15.239 10.9903 15.3543 11.6726C15.3825 11.8445 15.5286 11.9643 15.6952 11.9643C15.7157 11.9643 15.7336 11.9617 15.7541 11.9591C15.9438 11.9278 16.0693 11.7455 16.0386 11.5528C15.9002 10.7273 15.5158 9.97473 14.9289 9.37838C14.342 8.78204 13.6014 8.39142 12.789 8.2508C12.5994 8.21955 12.4225 8.34715 12.3892 8.53725C12.3559 8.72735 12.4789 8.91225 12.6686 8.9435Z" fill="#9B9B9B" stroke="#9B9B9B" stroke-width="0.4"/>
<path d="M18.235 11.4513C18.0069 10.0919 17.3764 8.855 16.4077 7.87064C15.439 6.88628 14.2217 6.24567 12.8839 6.0139C12.6968 5.98005 12.52 6.11026 12.4867 6.30036C12.4559 6.49306 12.5815 6.67275 12.7712 6.7066C13.9654 6.91232 15.0546 7.48783 15.9208 8.36542C16.787 9.24561 17.3508 10.3524 17.5533 11.5659C17.5815 11.7378 17.7275 11.8575 17.8941 11.8575C17.9146 11.8575 17.9326 11.8549 17.9531 11.8523C18.1401 11.8237 18.2683 11.6414 18.235 11.4513Z" fill="#9B9B9B" stroke="#9B9B9B" stroke-width="0.4"/>
<circle cx="12.1778" cy="12.0001" r="10.9664" stroke="#9B9B9B"/>
</svg>
