<svg width="23" height="23" viewBox="0 0 23 23" fill="none" xmlns="http://www.w3.org/2000/svg">
<g clip-path="url(#clip0)">
<path d="M15.3713 15.231C17.7123 11.5575 17.4181 12.0158 17.4855 11.92C18.3378 10.7178 18.7883 9.3029 18.7883 7.82812C18.7883 3.91711 15.6146 0.695312 11.6985 0.695312C7.79512 0.695312 4.60864 3.91075 4.60864 7.82812C4.60864 9.30195 5.06858 10.7539 5.94884 11.9723L8.0256 15.231C5.80519 15.5723 2.03052 16.5891 2.03052 18.8281C2.03052 19.6443 2.56324 20.8075 5.10115 21.7139C6.87327 22.3468 9.21622 22.6953 11.6985 22.6953C16.3402 22.6953 21.3665 21.386 21.3665 18.8281C21.3665 16.5887 17.5962 15.5729 15.3713 15.231ZM7.02559 11.2633C7.0185 11.2522 7.01111 11.2413 7.00338 11.2307C6.27089 10.223 5.89771 9.02872 5.89771 7.82812C5.89771 4.6047 8.49328 1.98438 11.6985 1.98438C14.897 1.98438 17.4993 4.60586 17.4993 7.82812C17.4993 9.03065 17.1331 10.1844 16.4403 11.1656C16.3782 11.2474 16.7021 10.7442 11.6985 18.5956L7.02559 11.2633ZM11.6985 21.4062C6.62843 21.4062 3.31958 19.916 3.31958 18.8281C3.31958 18.097 5.01977 16.8947 8.78727 16.4261L11.1549 20.1413C11.2733 20.327 11.4782 20.4395 11.6984 20.4395C11.9187 20.4395 12.1237 20.327 12.242 20.1413L14.6096 16.4261C18.3772 16.8947 20.0774 18.097 20.0774 18.8281C20.0774 19.9067 16.7983 21.4062 11.6985 21.4062Z" fill="#AFAFAF"/>
<path d="M11.6985 4.60547C9.92151 4.60547 8.47583 6.05115 8.47583 7.82812C8.47583 9.6051 9.92151 11.0508 11.6985 11.0508C13.4755 11.0508 14.9211 9.6051 14.9211 7.82812C14.9211 6.05115 13.4755 4.60547 11.6985 4.60547ZM11.6985 9.76172C10.6323 9.76172 9.76489 8.89431 9.76489 7.82812C9.76489 6.76194 10.6323 5.89453 11.6985 5.89453C12.7647 5.89453 13.6321 6.76194 13.6321 7.82812C13.6321 8.89431 12.7647 9.76172 11.6985 9.76172Z" fill="#AFAFAF"/>
</g>
<defs>
<clipPath id="clip0">
<rect width="22" height="22" fill="white" transform="translate(0.698486 0.695312)"/>
</clipPath>
</defs>
</svg>
