<svg width="100" height="100" viewBox="0 0 100 100" fill="none" xmlns="http://www.w3.org/2000/svg">
<rect width="100" height="100" rx="50" fill="#2F57F6"/>
<g clip-path="url(#clip0)">
<path d="M50 80C55.9334 80 61.7336 78.2405 66.6671 74.9441C71.6006 71.6476 75.4457 66.9623 77.7164 61.4805C79.987 55.9987 80.5811 49.9667 79.4235 44.1473C78.266 38.3279 75.4088 32.9824 71.2132 28.7868C67.0176 24.5912 61.6721 21.734 55.8527 20.5765C50.0333 19.4189 44.0013 20.013 38.5195 22.2836C33.0377 24.5543 28.3524 28.3994 25.0559 33.3329C21.7595 38.2664 20 44.0666 20 50C20.0091 57.9537 23.1727 65.5791 28.7968 71.2032C34.4209 76.8273 42.0463 79.9909 50 80ZM58.0349 76.0953C60.6237 73.6183 62.7807 69.9623 64.2926 65.5039C66.8388 65.8156 69.2439 66.2247 71.5518 66.7332C68.1112 71.1645 63.393 74.4325 58.0349 76.0953ZM73.217 64.3469C70.5324 63.7172 67.8164 63.2296 65.0805 62.8861C66.0573 59.1153 66.5888 55.2429 66.6641 51.3483H77.2691C77.0459 55.9553 75.6512 60.4292 73.217 64.3469ZM77.2691 48.6517H66.6641C66.5887 44.7569 66.0572 40.8844 65.0803 37.1133C67.8162 36.7698 70.5322 36.2824 73.2168 35.653C75.6511 39.5707 77.0459 44.0447 77.2691 48.6517ZM71.5516 33.2667C69.2438 33.775 66.8385 34.1839 64.2924 34.4956C62.7803 30.0374 60.6236 26.3816 58.0349 23.9047C63.3929 25.5675 68.1111 28.8355 71.5516 33.2667ZM51.3483 23.1868C55.4854 23.9909 59.1579 28.4431 61.4636 34.7969C58.3322 35.0831 54.983 35.2377 51.3483 35.2681V23.1868ZM51.3483 37.9647C55.2988 37.9321 58.9237 37.7545 62.3088 37.4245C63.3206 41.0846 63.8777 44.8554 63.9677 48.6517H51.3483V37.9647ZM51.3483 51.3483H63.9677C63.8778 55.1444 63.3207 58.915 62.309 62.5749C58.924 62.2448 55.2991 62.0672 51.3483 62.0347L51.3483 51.3483ZM51.3483 64.7313C54.9833 64.7617 58.3325 64.9163 61.4638 65.2025C59.1581 71.5566 55.4856 76.0091 51.3483 76.8132V64.7313ZM48.6517 76.8132C44.5139 76.0092 40.8413 71.5566 38.5357 65.2026C41.667 64.9163 45.0166 64.7617 48.6517 64.7313V76.8132ZM48.6517 62.0347C44.7007 62.0673 41.0756 62.2449 37.6904 62.5749C36.6787 58.915 36.1216 55.1444 36.0316 51.3483H48.6516L48.6517 62.0347ZM48.6517 48.6517H36.0317C36.1216 44.8554 36.6788 41.0846 37.6906 37.4245C41.0758 37.7545 44.7009 37.9321 48.6517 37.9647L48.6517 48.6517ZM48.6517 23.1868V35.2681C45.0169 35.2377 41.6674 35.0831 38.5359 34.7968C40.8416 28.4431 44.5141 23.9908 48.6517 23.1868ZM41.9644 23.9049C39.3758 26.3818 37.219 30.0375 35.7069 34.4955C33.1612 34.1839 30.7561 33.775 28.4482 33.2668C31.8886 28.8357 36.6066 25.5678 41.9644 23.9049ZM26.783 35.6531C29.4675 36.2824 32.1833 36.7698 34.919 37.1133C33.9422 40.8843 33.4106 44.7569 33.3352 48.6517H22.7309C22.9541 44.0447 24.3488 39.5709 26.783 35.6531ZM22.7309 51.3483H33.3352C33.4105 55.2429 33.9421 59.1153 34.919 62.8862C32.1832 63.2297 29.4675 63.7172 26.783 64.3468C24.3488 60.4291 22.9541 55.9552 22.7309 51.3483ZM35.7067 65.5039C37.2188 69.9622 39.3756 73.6181 41.9644 76.0951C36.6066 74.4322 31.8885 71.1642 28.448 66.733C30.7559 66.2247 33.1609 65.8156 35.7067 65.5039Z" fill="white"/>
</g>
<defs>
<clipPath id="clip0">
<rect width="60" height="60" fill="white" transform="translate(20 20)"/>
</clipPath>
</defs>
</svg>
