<svg width="100" height="100" viewBox="0 0 100 100" fill="none" xmlns="http://www.w3.org/2000/svg">
<rect width="100" height="100" rx="50" fill="#2F57F6"/>
<path d="M48.75 25V35.0635C45.2198 35.3612 41.9089 36.8987 39.4038 39.4038C36.8987 41.9089 35.3612 45.2198 35.0635 48.75H25V51.25H35.0635C35.3612 54.7802 36.8987 58.0911 39.4038 60.5962C41.9089 63.1013 45.2198 64.6388 48.75 64.9365V75H51.25V64.9365C54.7802 64.6388 58.0911 63.1013 60.5962 60.5962C63.1013 58.0911 64.6388 54.7802 64.9365 51.25H75V48.75H64.9365C64.6388 45.2198 63.1013 41.9089 60.5962 39.4038C58.0911 36.8987 54.7802 35.3612 51.25 35.0635V25H48.75ZM50 40C50.4182 40.0048 50.8357 40.0357 51.25 40.0928V40.0879C53.4632 40.3699 55.5185 41.3838 57.089 42.9684C58.6594 44.5531 59.6549 46.6174 59.917 48.833C59.9531 49.1102 59.9775 49.3888 59.9902 49.668C59.9953 49.7786 59.9986 49.8893 60 50C59.9952 50.4182 59.9643 50.8357 59.9072 51.25H59.9122C59.6303 53.4632 58.6163 55.5185 57.0317 57.089C55.447 58.6594 53.3827 59.6549 51.1671 59.917C50.8899 59.9531 50.6114 59.9775 50.3321 59.9902C50.2215 59.9953 50.1108 59.9986 50 60C49.5818 59.9952 49.1643 59.9643 48.75 59.9072V59.9122C46.5368 59.6303 44.4815 58.6163 42.911 57.0316C41.3405 55.447 40.3451 53.3826 40.083 51.167C40.0469 50.8898 40.0225 50.6113 40.0098 50.332C40.0047 50.2214 40.0014 50.1107 40 50C40.0048 49.5818 40.0357 49.1643 40.0928 48.75H40.0879C40.3699 46.5368 41.3838 44.4815 42.9684 42.9111C44.5531 41.3406 46.6174 40.3451 48.833 40.083C49.1102 40.0469 49.3887 40.0225 49.668 40.0098C49.7786 40.0047 49.8893 40.0014 50 40ZM50 42.5C48.0109 42.5 46.1032 43.2902 44.6967 44.6967C43.2902 46.1032 42.5 48.0109 42.5 50C42.5 51.9891 43.2902 53.8968 44.6967 55.3033C46.1032 56.7098 48.0109 57.5 50 57.5C51.9891 57.5 53.8968 56.7098 55.3033 55.3033C56.7098 53.8968 57.5 51.9891 57.5 50C57.5 48.0109 56.7098 46.1032 55.3033 44.6967C53.8968 43.2902 51.9891 42.5 50 42.5ZM50 47.5C50.663 47.5 51.2989 47.7634 51.7678 48.2322C52.2366 48.7011 52.5 49.337 52.5 50C52.5 50.663 52.2366 51.2989 51.7678 51.7678C51.2989 52.2366 50.663 52.5 50 52.5C49.337 52.5 48.7011 52.2366 48.2322 51.7678C47.7634 51.2989 47.5 50.663 47.5 50C47.5 49.337 47.7634 48.7011 48.2322 48.2322C48.7011 47.7634 49.337 47.5 50 47.5Z" fill="white"/>
</svg>
