<svg width="418" height="420" viewBox="0 0 418 420" fill="none" xmlns="http://www.w3.org/2000/svg">
<path d="M393.321 184.838C406.595 286.984 334.704 380.349 232.557 393.623C130.411 406.896 37.6118 334.27 24.4228 232.775C11.1493 130.628 83.0402 37.2628 185.187 23.9893C287.333 10.7158 380.048 82.6912 393.321 184.838Z" fill="url(#paint0_radial)"/>
<path d="M75.3346 341.046C68.3787 333.912 62.8258 327.264 62.7402 326.606C62.7402 326.606 67.5487 332.68 75.1634 339.729C82.1194 346.863 88.9041 352.68 88.9041 352.68C88.9897 353.339 82.2906 348.181 75.3346 341.046Z" fill="url(#paint1_linear)"/>
<path d="M76.9099 342.851C80.7172 346.376 83.7802 349.327 83.7802 349.327C83.7802 349.327 80.8028 347.035 76.9099 342.851C73.8469 339.9 70.6983 336.29 69.954 335.717C69.124 334.485 53.4666 317.093 42.7368 296.382C42.6512 295.723 41.9068 295.15 41.8212 294.491C36.2423 282.489 32.1521 271.632 31.3222 270.4C31.2366 269.742 34.5824 280.025 40.1613 292.027C45.7403 304.03 52.2943 313.226 52.3799 313.885C53.0386 313.8 69.954 335.717 76.9099 342.851Z" fill="url(#paint2_linear)"/>
<path d="M25.9819 239.61C24.7834 230.388 23.585 221.165 23.4733 215.151C21.6757 201.317 23.2835 193.07 24.4037 186.225C24.8057 184.164 25.122 181.443 26.0971 178.637C27.1317 171.134 28.3375 164.948 28.2519 164.29C28.1663 163.631 26.2162 169.243 25.1815 176.746C24.8652 179.467 23.8901 182.273 24.2325 184.908C23.1979 192.411 22.3345 201.232 22.4722 212.601C22.4983 217.957 23.6111 226.521 24.8095 235.743C26.8639 251.553 30.5522 264.471 30.7234 265.789C30.809 266.448 28.0363 255.42 25.9819 239.61Z" fill="url(#paint3_linear)"/>
<path d="M83.0348 348.753C89.1608 354.656 95.03 358.582 95.03 358.582C95.03 358.582 93.6269 358.094 92.1382 356.948C89.2464 355.314 90.6495 355.802 92.2238 357.607C92.9682 358.18 92.9682 358.18 93.7125 358.753C93.7125 358.753 93.7125 358.753 93.6269 358.094C93.4557 356.777 92.5402 354.886 90.9659 353.081C90.2215 352.508 89.4772 351.935 88.904 352.679C88.3309 353.424 87.5865 352.851 83.608 348.009C81.8625 344.886 79.5438 342.508 78.0551 341.362C75.5653 337.666 76.8232 342.192 83.0348 348.753Z" fill="url(#paint4_linear)"/>
<path d="M37.4469 276.303C35.1282 273.925 36.9854 283.062 43.3087 295.638C49.6319 308.213 56.2715 318.068 57.7602 319.215C58.5046 319.788 57.6746 318.556 55.9291 315.433C52.4381 309.188 54.5855 310.249 58.9065 317.726C60.652 320.849 62.3119 323.312 63.715 323.8C65.9481 325.519 64.7757 321.652 62.431 313.919C60.0007 305.526 56.0817 295.987 52.3599 293.122C50.8712 291.975 49.5537 292.147 49.8105 294.123C49.751 298.82 48.2623 297.673 43.5133 286.903C40.8523 281.889 38.9356 277.449 37.4469 276.303Z" fill="url(#paint5_linear)"/>
<path d="M82.2047 347.522C81.5459 347.607 81.4603 346.949 82.2047 347.522C72.9301 338.009 72.2192 327.383 75.111 329.017C76.5997 330.164 77.746 328.675 77.318 325.381C76.8899 322.087 74.9732 317.647 72.7402 315.928C70.5072 314.209 69.3609 315.697 69.8745 319.65C71.3892 326.152 74.3332 338.497 71.2702 335.545C69.7815 334.399 73.0157 338.668 79.1417 344.57C85.2676 350.473 90.4781 354.485 90.4781 354.485C90.5637 355.144 86.8419 352.278 82.2047 347.522Z" fill="url(#paint6_linear)"/>
<path d="M30.478 181.416L30.5636 182.075C28.5539 192.384 29.8379 202.265 32.0709 203.985C35.0483 206.277 38.316 200.494 41.07 190.758C43.1654 181.107 43.1132 170.396 40.1358 168.103C35.6697 164.664 42.0152 131.016 47.4043 120.938C50.0988 115.899 52.2202 111.604 52.1346 110.945C52.1346 110.945 49.2689 114.667 45.9156 119.791C43.2211 124.831 41.1853 129.784 41.1853 129.784C40.7833 131.846 34.181 163.518 30.478 181.416Z" fill="url(#paint7_linear)"/>
<path d="M45.4112 152.011C49.8773 155.45 57.6706 148.409 64.8647 136.756C72.0588 125.103 74.4704 112.732 69.3456 109.379C65.6239 106.513 56.4275 113.067 49.9777 125.293C43.4424 136.86 41.6895 149.145 45.4112 152.011Z" fill="url(#paint8_linear)"/>
<path d="M58.5884 268.866C59.1095 257.41 55.9087 243.089 49.8683 237.845C46.891 235.552 44.256 235.895 42.5365 238.128C39.7564 242.508 38.2677 241.362 35.5806 230.993C34.0658 224.491 32.6367 218.648 30.4036 216.929C27.255 213.319 24.0134 224.458 25.9822 239.609C28.0367 255.419 33.128 268.825 35.5323 271.862C37.1066 273.667 37.5085 271.605 38.3124 267.481C38.8595 261.381 41.0926 263.101 44.1816 271.408C46.0983 275.848 47.9294 279.629 50.2481 282.007C54.7142 285.446 58.0674 280.321 58.5884 268.866Z" fill="url(#paint9_linear)"/>
<path d="M79.2522 166.599C82.2292 164.615 85.7195 161.845 88.1497 157.261C93.0101 148.093 92.1231 137.419 86.6157 133.825C81.1084 130.231 72.5542 134.745 68.3439 143.776C65.9137 148.36 65.5705 153.184 65.7406 157.221C66.7976 171.933 64.0242 181.341 54.7166 188.728C51.7397 190.712 49.9595 195.159 48.9662 200.12C47.1162 210.691 50.0901 221.605 54.9473 225.336C60.4547 228.929 66.2719 224.312 68.9087 214.254C70.5521 209.157 70.1086 203.82 69.0151 198.619C64.1609 181.991 68.2345 172.31 79.2522 166.599Z" fill="url(#paint10_linear)"/>
<path d="M89.0295 327.878C87.1389 328.794 85.9926 330.282 85.6763 333.003C84.958 337.785 87.7046 343.457 90.682 345.75C93.6594 348.042 97.6119 347.529 99.8189 343.893C100.88 341.745 101.282 339.683 100.939 337.048C99.2531 329.229 100.63 324.361 109.853 323.163C113.146 322.735 116.928 320.904 119.135 317.267C124.207 309.909 122.179 299.455 114.65 293.065C107.206 287.333 98.0695 289.191 94.4855 297.695C93.0229 301.904 92.9634 306.601 94.1357 310.468C97.5672 321.41 95.4458 325.705 89.0295 327.878Z" fill="url(#paint11_linear)"/>
<path d="M73.589 219.356C71.1513 226.371 70.861 234.447 72.4614 241.608C75.2341 252.635 73.1983 257.589 68.3564 261.568C65.2338 263.313 63.7712 267.522 63.1385 272.964C61.8732 283.846 66.7933 295.934 72.7481 300.519C78.7029 305.104 85.0336 302.272 87.7876 292.536C89.1647 287.668 89.1386 282.313 88.4538 277.043C86.5966 267.906 87.8881 262.379 96.2806 259.949C101.465 258.605 106.966 254.541 110.062 247.44C117.085 234.47 114.115 216.769 103.609 208.086C92.5289 200.148 79.1232 205.239 73.589 219.356Z" fill="url(#paint12_linear)"/>
<path d="M117.678 254.489C112.776 263.164 114.976 274.936 122.419 280.668C129.863 286.399 140.403 285.029 146.049 276.927C152.353 268.739 150.068 256.309 141.88 250.004C133.607 243.041 122.494 245.155 117.678 254.489Z" fill="url(#paint13_linear)"/>
<path d="M290.991 41.7247C291.735 42.2978 299.581 45.9674 307.597 50.9545C315.614 55.9416 320.91 60.6124 320.91 60.6124C320.91 60.6124 314.211 55.4541 305.45 49.8938C296.689 44.3336 290.247 41.1515 290.991 41.7247Z" fill="url(#paint14_linear)"/>
<path d="M306.938 51.0402C305.535 50.5527 305.621 51.2114 306.365 51.7846C308.512 52.8453 313.466 54.8811 317.102 57.088C320.738 59.295 323.057 61.6732 322.971 61.0145C322.971 61.0145 322.227 60.4413 320.653 58.6363C316.101 54.5387 315.357 53.9655 319.908 58.0631C322.141 59.7826 322.971 61.0145 322.971 61.0145C322.971 61.0145 316.931 55.7705 308.914 50.7834C300.898 45.7963 294.627 43.9318 296.688 44.3337C297.433 44.9068 300.239 45.8819 303.131 47.5158C309.744 52.0153 310.489 52.5885 306.938 51.0402Z" fill="url(#paint15_linear)"/>
<path d="M222.925 23.1054C224.328 23.5929 237.845 24.5159 251.705 28.0738C259.952 29.6816 266.882 31.4606 271.091 32.9232C280.254 36.4216 288.1 40.0912 295.286 43.8464C298.178 45.4803 301.07 47.1141 304.706 49.3211C312.723 54.3082 317.933 58.3202 317.933 58.3202C317.933 58.3202 311.978 53.735 303.962 48.7479C300.326 46.541 297.434 44.9071 294.542 43.2733C287.355 39.5181 280.169 35.7629 269.03 32.5212C264.162 31.1442 257.146 28.7065 248.899 27.0987C234.466 24.2851 222.266 23.191 222.925 23.1054Z" fill="url(#paint16_linear)"/>
<path d="M230.771 26.7745C232.259 27.9208 237.042 28.6391 243.227 29.8449C252.792 31.2815 254.281 32.4278 249.755 33.6858C247.206 34.6869 247.292 35.3457 248.866 37.1507C253.246 39.9308 264.873 41.7693 275.011 42.4616C284.49 43.2394 289.187 43.2989 286.954 41.5795C285.551 41.0919 282.659 39.4581 279.109 37.9099C272.093 35.4721 270.604 34.3259 276.876 36.1904C279.682 37.1655 281.744 37.5675 280.999 36.9943C279.511 35.848 267.456 30.7158 252.364 27.9878C237.931 25.1742 227.879 25.1407 230.771 26.7745Z" fill="url(#paint17_linear)"/>
<path d="M295.186 71.4539C301.885 76.6122 311.193 76.0725 315.29 71.5208C317.01 69.2878 317.326 66.5672 317.069 64.591C316.556 60.6385 318.532 60.3817 321.338 61.3568C321.997 61.2712 322.741 61.8443 323.4 61.7587C324.059 61.6731 324.144 62.3319 324.144 62.3319C324.144 62.3319 322.57 60.5268 320.423 59.4661C319.678 58.893 318.361 59.0642 318.361 59.0642C317.043 59.2354 315.811 60.0653 308.967 58.9451C305.502 58.0556 301.464 57.9105 297.597 59.0828C289.607 59.4513 289.145 66.21 295.186 71.4539Z" fill="url(#paint18_linear)"/>
<path d="M204.795 22.781C207.43 22.4386 209.406 22.1818 208.747 22.2674C208.089 22.353 200.013 22.0627 190.131 23.3467C180.25 24.6308 173.004 25.5724 173.748 26.1455C174.407 26.0599 176.383 25.8031 179.677 25.3751C192.193 23.7487 193.596 24.2362 184.716 28.0696C182.167 29.0708 181.021 30.5595 182.424 31.047C185.315 32.6809 196.027 32.6287 206.481 30.6004C216.362 29.3164 222.12 27.2284 219.887 25.509C218.484 25.0215 215.677 24.0464 211.639 23.9012C196.317 24.5526 195.573 23.9794 204.795 22.781Z" fill="url(#paint19_linear)"/>
<path d="M240.874 37.5182C236.493 34.7381 222.805 32.4976 211.033 34.6972C205.19 36.1264 200.75 38.0431 198.286 39.703C194.103 43.5959 189.004 45.5982 178.378 46.3091C171.705 46.5064 163.313 48.9367 155.75 52.5989C141.943 59.7521 136.81 71.8068 144.998 78.1114C153.845 84.3304 171.631 82.0192 184.523 72.9753C191.341 68.74 195.353 63.5295 196.816 59.3202C198.681 53.0491 204.438 50.9612 213.832 51.0803C219.187 51.0542 225.116 50.2838 230.874 48.1959C241.157 44.85 245.34 40.9571 240.874 37.5182Z" fill="url(#paint20_linear)"/>
<path d="M288.111 76.2613C288.025 75.6026 288.025 75.6026 288.111 76.2613C277.775 68.896 283.138 53.462 289.067 52.6916C292.361 52.2636 293.593 51.4336 291.445 50.3729C289.957 49.2266 285.089 47.8496 281.795 48.2776C277.757 48.1325 276.611 49.6212 278.185 51.4262C281.907 54.2919 279.264 70.0423 268.75 76.7675L268.092 76.8531C261.932 81.0029 261.727 89.7378 268.341 94.2374C275.04 99.3957 284.263 98.1973 289.592 92.8156C294.177 86.8608 293.236 79.6146 288.111 76.2613Z" fill="url(#paint21_linear)"/>
<path d="M136.74 40.3321C148.743 34.7531 157.623 30.9197 156.22 30.4322C155.561 30.5178 144.619 33.9493 132.531 38.8694C120.528 44.4483 111.161 49.6848 111.819 49.5992C113.308 50.7455 124.079 45.9966 136.74 40.3321Z" fill="url(#paint22_linear)"/>
<path d="M128.486 54.1331C132.123 56.34 141.918 54.3973 151.286 49.1608C160.08 44.6686 165.495 39.9457 161.859 37.7387C158.967 36.1049 149.086 37.3889 140.292 41.8811L139.633 41.9667C123.276 50.121 93.5989 64.0255 92.1958 63.538C91.537 63.6236 87.9269 66.7722 83.085 70.7507C78.9017 74.6437 75.3773 78.451 75.3773 78.451C76.1216 79.0242 79.7317 75.8756 83.9149 71.9826C92.4526 65.5142 124.02 50.6942 128.486 54.1331Z" fill="url(#paint23_linear)"/>
<path d="M186.842 75.3537C175.096 82.9088 174.087 95.7674 183.764 103.218C194.099 110.584 209.995 109.188 220.166 99.8277C225.581 95.1048 227.617 90.1512 228.25 84.71C228.283 74.6576 234.614 71.8253 245.239 71.1145C249.936 71.174 254.462 69.9161 258.158 67.4262C265.635 63.1052 266.926 57.5785 261.716 53.5664C256.591 50.2132 245.708 48.9478 236.743 52.1225C232.217 53.3804 229.924 56.3578 228.205 58.5909C225.682 64.9476 220.754 68.2674 206.749 68.7475C200.162 69.6036 193.001 71.2039 186.842 75.3537Z" fill="url(#paint24_linear)"/>
<path d="M238.341 131.972C242.721 134.752 249.309 133.896 252.833 130.089C256.357 126.281 255.587 120.352 251.78 116.828C248.058 113.962 241.385 114.16 237.775 117.308C229.982 124.35 194.666 130.948 178.692 116.277C177.948 115.704 177.948 115.704 177.204 115.131C168.271 108.253 152.461 110.308 143.034 120.241C133.607 130.174 133.514 144.924 143.191 152.375C152.867 159.825 168.592 157.112 177.933 146.52C178.506 145.776 179.165 145.69 179.079 145.031C193.981 125.678 229.58 126.411 238.341 131.972Z" fill="url(#paint25_linear)"/>
<path d="M143.767 78.9424C138.643 75.5891 131.225 75.2132 122.833 77.6436C104.901 83.9929 104.302 79.3817 105.594 73.8549C106.081 72.4518 105.91 71.1343 105.08 69.9024C102.847 68.183 96.5162 71.0152 91.1011 75.7381C85.8572 81.7785 83.2483 87.4765 85.4813 89.1959C86.2257 89.7691 88.2019 89.5123 90.1782 89.2555C96.5944 87.082 101.95 87.0559 96.6726 103.149C94.3205 110.823 95.8353 117.325 101.046 121.337C110.722 128.788 126.849 124.013 139.313 111.675C150.545 100.167 152.7 85.8201 143.767 78.9424Z" fill="url(#paint26_linear)"/>
<path d="M217.767 154.071C209.579 147.767 197.063 149.393 190.1 157.667C183.136 165.94 184.018 177.883 192.95 184.761C201.797 190.98 213.655 189.439 220.618 181.166C227.496 172.233 225.955 160.376 217.767 154.071Z" fill="url(#paint27_linear)"/>
<path d="M127.099 378.53C126.354 377.957 118.509 374.287 110.492 369.3C102.476 364.313 97.1797 359.642 97.1797 359.642C97.1797 359.642 103.879 364.801 112.64 370.361C121.401 375.921 128.502 379.018 127.099 378.53Z" fill="url(#paint28_linear)"/>
<path d="M111.81 369.129C113.213 369.617 113.128 368.958 112.383 368.385C110.236 367.324 105.282 365.289 101.646 363.082C98.01 360.875 95.6914 358.496 95.777 359.155C95.777 359.155 96.5213 359.728 98.0956 361.533C102.647 365.631 103.392 366.204 98.84 362.107C96.6069 360.387 95.777 359.155 95.777 359.155C95.777 359.155 101.817 364.399 109.834 369.386C117.851 374.373 124.122 376.238 122.06 375.836C121.316 375.263 118.509 374.288 115.618 372.654C108.345 368.24 107.601 367.667 111.81 369.129Z" fill="url(#paint29_linear)"/>
<path d="M195.165 397.151C193.762 396.663 180.159 395.082 166.385 392.182C158.796 390.489 151.866 388.71 147.657 387.247C137.835 383.835 130.648 380.079 122.803 376.41C119.911 374.776 117.019 373.142 113.383 370.935C105.367 365.948 100.156 361.936 100.156 361.936C100.156 361.936 106.111 366.521 114.128 371.508C117.764 373.715 120.656 375.349 123.547 376.983C130.734 380.738 137.921 384.493 149.06 387.735C153.928 389.112 160.943 391.55 169.191 393.157C183.624 395.971 195.824 397.065 195.165 397.151Z" fill="url(#paint30_linear)"/>
<path d="M187.892 392.737C186.403 391.59 181.62 390.872 175.435 389.666C165.87 388.23 164.381 387.083 168.907 385.826C171.542 385.483 171.371 384.166 169.796 382.361C165.416 379.58 153.789 377.742 143.651 377.05C134.172 376.272 129.475 376.212 131.708 377.932C133.111 378.419 136.003 380.053 139.554 381.601C146.569 384.039 148.058 385.185 141.787 383.321C138.322 382.431 136.26 382.029 137.004 382.603C138.493 383.749 150.548 388.881 165.639 391.609C180.158 395.081 190.869 395.029 187.892 392.737Z" fill="url(#paint31_linear)"/>
<path d="M123.904 348.801C117.204 343.643 107.896 344.182 103.799 348.734C102.079 350.967 101.763 353.688 102.02 355.664C102.533 359.616 100.557 359.873 97.7509 358.898C97.0921 358.984 96.3478 358.411 95.6891 358.496C95.0303 358.582 94.9447 357.923 94.9447 357.923C94.9447 357.923 96.519 359.728 98.6664 360.789C99.4108 361.362 100.728 361.191 100.728 361.191C102.046 361.02 103.278 360.19 110.122 361.31C113.587 362.199 117.625 362.344 121.492 361.172C129.482 360.804 130.603 353.959 123.904 348.801Z" fill="url(#paint32_linear)"/>
<path d="M213.208 396.815C210.573 397.157 208.596 397.414 209.255 397.328C209.914 397.243 217.99 397.533 227.871 396.249C237.753 394.965 244.999 394.023 244.254 393.45C243.596 393.536 241.619 393.793 238.326 394.221C225.809 395.847 224.406 395.359 233.286 391.526C235.836 390.525 236.982 389.036 235.579 388.549C232.687 386.915 221.976 386.967 211.522 388.995C201.641 390.279 195.883 392.367 198.116 394.087C199.519 394.574 202.325 395.549 206.363 395.694C221.686 395.043 223.175 396.189 213.208 396.815Z" fill="url(#paint33_linear)"/>
<path d="M177.874 382.651C182.254 385.431 195.943 387.671 207.715 385.472C213.558 384.042 217.998 382.126 220.462 380.466C224.645 376.573 229.744 374.571 240.369 373.86C247.042 373.663 255.435 371.232 262.997 367.57C276.805 360.417 281.937 348.362 273.749 342.057C264.903 335.838 247.117 338.15 234.225 347.194C227.406 351.429 223.394 356.639 221.932 360.849C220.067 367.12 214.31 369.208 204.916 369.089C199.56 369.115 193.632 369.885 187.874 371.973C177.591 375.319 172.749 379.297 177.874 382.651Z" fill="url(#paint34_linear)"/>
<path d="M129.979 343.994C129.979 343.994 130.064 344.652 129.979 343.994C140.314 351.359 134.951 366.793 129.022 367.563C125.728 367.991 124.497 368.821 126.644 369.882C128.133 371.028 133.001 372.405 136.294 371.977C140.333 372.123 141.479 370.634 139.905 368.829C136.183 365.963 138.825 350.213 149.339 343.487L149.998 343.402C156.157 339.252 156.362 330.517 149.748 326.018C143.049 320.859 133.827 322.058 128.497 327.439C123.912 333.394 124.768 339.982 129.979 343.994Z" fill="url(#paint35_linear)"/>
<path d="M282.008 379.837C270.005 385.416 261.125 389.249 262.528 389.737C263.187 389.651 274.129 386.219 286.217 381.299C298.219 375.72 307.587 370.484 306.928 370.569C304.781 369.509 294.01 374.258 282.008 379.837Z" fill="url(#paint36_linear)"/>
<path d="M290.263 366.036C289.605 366.122 289.519 365.463 290.263 366.036C286.627 363.829 276.831 365.772 267.464 371.008C257.925 374.927 253.169 379.565 256.805 381.772C259.697 383.406 269.578 382.122 278.372 377.629L279.031 377.544C295.388 369.389 325.065 355.485 326.468 355.972C327.127 355.887 330.737 352.738 335.579 348.76C339.762 344.867 343.287 341.059 343.287 341.059C342.542 340.486 338.932 343.635 334.749 347.528C325.638 354.741 294.071 369.561 290.263 366.036Z" fill="url(#paint37_linear)"/>
<path d="M231.248 344.901C242.993 337.346 244.002 324.487 234.325 317.037C223.99 309.671 208.095 311.067 197.923 320.427C192.508 325.15 190.472 330.104 189.84 335.545C189.806 345.597 183.475 348.43 172.85 349.14C168.153 349.081 163.627 350.339 159.932 352.829C152.455 357.15 151.163 362.676 156.374 366.688C161.499 370.042 172.381 371.307 181.347 368.132C185.872 366.874 188.165 363.897 189.884 361.664C192.408 355.307 197.335 351.987 211.34 351.507C217.928 350.651 225.088 349.051 231.248 344.901Z" fill="url(#paint38_linear)"/>
<path d="M179.749 293.985C175.368 291.205 168.781 292.061 165.256 295.868C161.732 299.675 161.843 305.69 166.309 309.129C170.031 311.994 176.704 311.797 180.314 308.648C188.108 301.607 223.423 295.008 239.397 309.679C240.141 310.252 240.141 310.252 240.886 310.825C249.818 317.703 265.628 315.649 275.055 305.715C284.482 295.782 284.575 281.033 274.898 273.582C265.222 266.131 249.498 268.844 240.156 279.436C239.583 280.181 238.924 280.266 239.01 280.925C224.767 300.192 188.51 299.545 179.749 293.985Z" fill="url(#paint39_linear)"/>
<path d="M274.322 341.312C279.447 344.666 286.865 345.042 295.257 342.611C313.188 336.262 313.788 340.873 312.496 346.4C312.009 347.803 312.18 349.12 313.01 350.352C315.243 352.072 321.574 349.24 326.989 344.517C332.318 339.135 334.927 333.437 332.78 332.376C332.035 331.803 330.059 332.06 328.083 332.317C321.667 334.49 316.311 334.516 321.588 318.424C323.94 310.749 322.426 304.247 317.215 300.235C307.539 292.785 291.412 297.56 278.948 309.897C268.204 320.002 265.39 334.435 274.322 341.312Z" fill="url(#paint40_linear)"/>
<path d="M217.642 268.323C209.454 274.627 196.938 273.001 189.975 264.727C183.011 256.454 183.893 244.511 192.826 237.633C201.672 231.414 213.53 232.955 220.493 241.228C227.371 250.161 225.83 262.018 217.642 268.323Z" fill="url(#paint41_linear)"/>
<path d="M171.062 227.339C159.105 237.303 141.169 237.303 132.534 228.667C127.219 223.353 125.226 216.046 126.555 209.403C129.876 192.796 121.905 188.146 110.612 186.817C106.626 186.153 102.641 184.825 99.9835 182.167C93.3407 175.525 93.3407 164.896 100.648 157.589C107.955 150.946 119.248 150.946 125.891 157.589C129.212 160.91 130.541 164.232 130.541 168.217C131.205 179.51 135.855 186.817 153.791 184.825C161.762 184.16 169.734 186.153 175.048 191.467C185.012 200.767 183.019 217.375 171.062 227.339Z" fill="url(#paint42_linear)"/>
<path d="M300.412 165.767C305.313 157.091 303.114 145.319 295.67 139.588C288.227 133.856 277.687 135.226 272.041 143.328C265.736 151.516 268.021 163.947 276.209 170.251C284.483 177.215 295.596 175.101 300.412 165.767Z" fill="url(#paint43_linear)"/>
<path d="M329.058 92.3774C330.949 91.4618 332.095 89.9731 332.411 87.2526C333.13 82.4701 330.383 76.7982 327.406 74.5056C324.428 72.213 320.476 72.7266 318.269 76.3628C317.208 78.5102 316.806 80.5721 317.148 83.2071C318.92 91.6852 317.457 95.8945 308.235 97.0929C304.941 97.5209 301.16 99.352 298.953 102.988C293.88 110.346 295.909 120.8 303.438 127.191C310.881 132.922 320.018 131.065 323.602 122.561C325.065 118.351 325.124 113.655 323.952 109.788C321.179 98.7602 323.3 94.4653 329.058 92.3774Z" fill="url(#paint44_linear)"/>
<path d="M317.324 254.671C325.664 241.529 323.353 223.743 313.677 216.292C307.722 211.707 300.219 210.672 293.802 212.846C277.762 218.28 272.123 210.974 269.351 199.946C268.178 196.08 266.347 192.298 263.37 190.006C255.926 184.274 245.386 185.644 239.082 193.832C233.436 201.934 234.891 213.133 242.335 218.864C246.056 221.73 249.521 222.619 253.474 222.106C264.758 221.309 272.603 224.979 272.938 243.022C273.307 251.012 276.31 258.661 282.265 263.246C292.772 271.929 308.984 267.812 317.324 254.671Z" fill="url(#paint45_linear)"/>
<path d="M344.498 200.899C346.936 193.884 347.226 185.808 345.626 178.647C342.853 167.62 344.889 162.666 349.731 158.687C352.853 156.942 354.316 152.733 354.949 147.291C356.214 136.409 351.294 124.321 345.998 119.65C340.043 115.065 333.712 117.897 330.958 127.633C329.581 132.501 329.607 137.857 330.292 143.127C332.149 152.264 330.858 157.79 322.465 160.221C317.281 161.564 311.78 165.629 308.684 172.73C301.661 185.7 304.631 203.4 315.137 212.083C326.217 220.022 339.623 214.93 344.498 200.899Z" fill="url(#paint46_linear)"/>
<path d="M335.054 71.5022C328.928 65.5996 323.059 61.6732 323.059 61.6732C323.059 61.6732 324.462 62.1607 325.95 63.307C328.842 64.9408 327.439 64.4533 325.865 62.6482C325.206 62.7338 324.547 62.8195 324.462 62.1607C324.462 62.1607 324.462 62.1607 324.547 62.8194C324.718 64.1369 325.634 66.0276 327.208 67.8326C327.953 68.4058 328.697 68.9789 329.27 68.2346C329.843 67.4902 330.588 68.0634 334.566 72.9053C336.312 76.0279 338.63 78.406 340.119 79.5523C342.523 82.5893 341.265 78.0636 335.054 71.5022Z" fill="url(#paint47_linear)"/>
<path d="M335.855 252.934C332.732 254.679 329.037 257.169 326.256 261.55C320.696 270.311 320.748 281.022 325.959 285.034C331.169 289.046 340.049 285.212 344.951 276.537C347.731 272.156 348.449 267.374 348.594 263.336C348.687 248.587 352.186 239.424 362.041 232.784C365.163 231.039 367.285 226.744 368.662 221.876C371.33 211.481 369.216 200.368 364.665 196.27C359.454 192.258 353.295 196.408 349.882 206.23C347.846 211.183 347.872 216.539 348.557 221.809C352.015 238.106 347.857 247.355 335.855 252.934Z" fill="url(#paint48_linear)"/>
<path d="M359.501 151.39C358.98 162.845 362.181 177.167 368.221 182.411C371.198 184.703 373.833 184.361 375.553 182.128C378.419 178.406 380.566 179.467 382.594 189.921C384.109 196.423 385.538 202.266 387.771 203.985C391.579 207.51 394.162 196.456 392.107 180.646C390.053 164.837 384.961 151.431 382.557 148.394C380.983 146.589 380.581 148.651 379.777 152.774C379.23 158.874 376.997 157.155 373.908 148.848C371.991 144.408 370.16 140.627 367.841 138.248C363.29 134.151 360.681 139.849 359.501 151.39Z" fill="url(#paint49_linear)"/>
<path d="M336.542 72.6481C345.817 82.1609 346.528 92.7864 343.636 91.1526C342.147 90.0063 341.001 91.495 341.429 94.7887C341.857 98.0825 343.774 102.522 346.007 104.242C348.24 105.961 349.386 104.473 348.872 100.52C347.358 94.0183 344.414 81.6733 347.477 84.6247C348.965 85.7709 345.731 81.5021 339.605 75.5995C333.479 69.6968 328.269 65.6848 328.269 65.6848C327.524 65.1116 331.905 67.8918 336.542 72.6481Z" fill="url(#paint50_linear)"/>
<path d="M372.593 267.585C368.126 264.146 360.333 271.188 353.139 282.84C345.945 294.493 343.533 306.864 348.658 310.218C352.38 313.083 361.576 306.529 368.026 294.303C374.647 283.395 376.4 271.109 372.593 267.585Z" fill="url(#paint51_linear)"/>
<path d="M387.526 238.179L387.44 237.521C389.45 227.212 388.166 217.33 385.933 215.611C382.955 213.318 379.688 219.102 376.933 228.838C374.838 238.488 374.89 249.2 377.868 251.492C382.334 254.931 375.988 288.579 370.599 298.658C367.905 303.697 365.783 307.992 365.869 308.651C365.869 308.651 368.735 304.929 372.088 299.804C374.782 294.765 376.818 289.811 376.818 289.811C377.965 288.322 383.908 256.736 387.526 238.179Z" fill="url(#paint52_linear)"/>
<path d="M380.641 143.954C382.96 146.332 381.103 137.195 374.78 124.619C368.456 112.044 361.817 102.189 360.328 101.042C359.584 100.469 360.414 101.701 362.159 104.824C364.991 111.154 363.503 110.008 359.182 102.531C357.436 99.4084 355.776 96.9446 354.373 96.4571C352.14 94.7376 353.313 98.6045 355.657 106.338C358.088 114.731 362.007 124.27 365.728 127.135C367.217 128.282 368.535 128.11 368.278 126.134C368.337 121.437 369.826 122.584 374.575 133.354C377.236 138.368 379.811 142.722 380.641 143.954Z" fill="url(#paint53_linear)"/>
<path d="M341.18 77.4042C337.373 73.8797 334.31 70.9284 334.31 70.9284C334.224 70.2697 337.287 73.221 341.18 77.4042C344.243 80.3555 347.392 83.9656 348.136 84.5388C349.625 85.6851 364.623 103.162 375.353 123.874C375.439 124.532 376.183 125.106 376.269 125.764C381.848 137.767 385.938 148.623 386.768 149.855C386.853 150.514 383.508 140.231 377.929 128.228C372.35 116.226 365.796 107.029 365.71 106.37C365.051 106.456 348.795 84.4532 341.18 77.4042Z" fill="url(#paint54_linear)"/>
<path d="M392.107 180.645C393.306 189.868 394.504 199.09 394.616 205.104C396.414 218.938 394.806 227.185 393.686 234.03C393.284 236.092 392.967 238.812 391.992 241.618C390.957 249.121 389.752 255.307 389.837 255.966C389.923 256.624 391.873 251.012 392.908 243.509C393.224 240.788 394.199 237.982 393.857 235.347C394.891 227.844 395.755 219.024 395.617 207.654C395.591 202.298 394.478 193.734 393.28 184.512C391.225 168.702 387.537 155.784 387.366 154.466C387.28 153.808 390.053 164.835 392.107 180.645Z" fill="url(#paint55_linear)"/>
<path d="M342.667 78.5507C349.623 85.6852 355.176 92.3322 355.262 92.991C355.262 92.991 350.453 86.9171 342.838 79.8682C335.882 72.7336 329.098 66.9166 329.098 66.9166C329.756 66.831 335.797 72.0749 342.667 78.5507Z" fill="url(#paint56_linear)"/>
<defs>
<radialGradient id="paint0_radial" cx="0" cy="0" r="1" gradientUnits="userSpaceOnUse" gradientTransform="translate(209.056 208.544) rotate(-7.40386) scale(186.092)">
<stop stop-color="white"/>
<stop offset="0.494" stop-color="#FDFDFD"/>
<stop offset="0.6861" stop-color="#F0F4FF"/>
<stop offset="0.8256" stop-color="#F0F4FF"/>
<stop offset="0.939" stop-color="#F0F4FF"/>
<stop offset="1" stop-color="#F0F4FF"/>
</radialGradient>
<linearGradient id="paint1_linear" x1="73.9389" y1="325.151" x2="77.7119" y2="354.185" gradientUnits="userSpaceOnUse">
<stop stop-color="#78CAF7"/>
<stop offset="0.5" stop-color="#5192FB"/>
<stop offset="1" stop-color="#2F57F6"/>
</linearGradient>
<linearGradient id="paint2_linear" x1="52.0689" y1="267.675" x2="63.0297" y2="352.024" gradientUnits="userSpaceOnUse">
<stop stop-color="#78CAF7"/>
<stop offset="0.5" stop-color="#5192FB"/>
<stop offset="1" stop-color="#2F57F6"/>
</linearGradient>
<linearGradient id="paint3_linear" x1="21.9866" y1="165.047" x2="35.0089" y2="265.26" gradientUnits="userSpaceOnUse">
<stop stop-color="#78CAF7"/>
<stop offset="0.5" stop-color="#5192FB"/>
<stop offset="1" stop-color="#2F57F6"/>
</linearGradient>
<linearGradient id="paint4_linear" x1="84.6004" y1="339.035" x2="87.2714" y2="359.59" gradientUnits="userSpaceOnUse">
<stop stop-color="#78CAF7"/>
<stop offset="0.5" stop-color="#5192FB"/>
<stop offset="1" stop-color="#2F57F6"/>
</linearGradient>
<linearGradient id="paint5_linear" x1="47.3679" y1="274.556" x2="53.9977" y2="325.575" gradientUnits="userSpaceOnUse">
<stop stop-color="#78CAF7"/>
<stop offset="0.5" stop-color="#5192FB"/>
<stop offset="1" stop-color="#2F57F6"/>
</linearGradient>
<linearGradient id="paint6_linear" x1="76.7362" y1="314.485" x2="82.0867" y2="355.66" gradientUnits="userSpaceOnUse">
<stop stop-color="#78CAF7"/>
<stop offset="0.5" stop-color="#5192FB"/>
<stop offset="1" stop-color="#2F57F6"/>
</linearGradient>
<linearGradient id="paint7_linear" x1="35.6503" y1="113.087" x2="47.2946" y2="202.696" gradientUnits="userSpaceOnUse">
<stop stop-color="#78CAF7"/>
<stop offset="0.5" stop-color="#5192FB"/>
<stop offset="1" stop-color="#2F57F6"/>
</linearGradient>
<linearGradient id="paint8_linear" x1="55.067" y1="110.248" x2="60.4035" y2="151.316" gradientUnits="userSpaceOnUse">
<stop stop-color="#78CAF7"/>
<stop offset="0.5" stop-color="#5192FB"/>
<stop offset="1" stop-color="#2F57F6"/>
</linearGradient>
<linearGradient id="paint9_linear" x1="37.648" y1="215.138" x2="46.5834" y2="283.9" gradientUnits="userSpaceOnUse">
<stop stop-color="#78CAF7"/>
<stop offset="0.5" stop-color="#5192FB"/>
<stop offset="1" stop-color="#2F57F6"/>
</linearGradient>
<linearGradient id="paint10_linear" x1="61.479" y1="136.772" x2="79.4661" y2="222.312" gradientUnits="userSpaceOnUse">
<stop stop-color="#78CAF7"/>
<stop offset="0.5" stop-color="#5192FB"/>
<stop offset="1" stop-color="#2F57F6"/>
</linearGradient>
<linearGradient id="paint11_linear" x1="99.7493" y1="290.434" x2="106.914" y2="345.573" gradientUnits="userSpaceOnUse">
<stop stop-color="#78CAF7"/>
<stop offset="0.5" stop-color="#5192FB"/>
<stop offset="1" stop-color="#2F57F6"/>
</linearGradient>
<linearGradient id="paint12_linear" x1="82.0946" y1="205.557" x2="94.4481" y2="300.623" gradientUnits="userSpaceOnUse">
<stop stop-color="#78CAF7"/>
<stop offset="0.5" stop-color="#5192FB"/>
<stop offset="1" stop-color="#2F57F6"/>
</linearGradient>
<linearGradient id="paint13_linear" x1="129.829" y1="245.937" x2="134.776" y2="284.005" gradientUnits="userSpaceOnUse">
<stop stop-color="#78CAF7"/>
<stop offset="0.5" stop-color="#5192FB"/>
<stop offset="1" stop-color="#2F57F6"/>
</linearGradient>
<linearGradient id="paint14_linear" x1="304.461" y1="39.9018" x2="307.381" y2="62.3705" gradientUnits="userSpaceOnUse">
<stop stop-color="#78CAF7"/>
<stop offset="0.5" stop-color="#5192FB"/>
<stop offset="1" stop-color="#2F57F6"/>
</linearGradient>
<linearGradient id="paint15_linear" x1="308.341" y1="42.719" x2="310.935" y2="62.6826" gradientUnits="userSpaceOnUse">
<stop stop-color="#78CAF7"/>
<stop offset="0.5" stop-color="#5192FB"/>
<stop offset="1" stop-color="#2F57F6"/>
</linearGradient>
<linearGradient id="paint16_linear" x1="267.377" y1="17.329" x2="273.455" y2="64.1" gradientUnits="userSpaceOnUse">
<stop stop-color="#78CAF7"/>
<stop offset="0.5" stop-color="#5192FB"/>
<stop offset="1" stop-color="#2F57F6"/>
</linearGradient>
<linearGradient id="paint17_linear" x1="257.347" y1="22.4168" x2="260.442" y2="46.238" gradientUnits="userSpaceOnUse">
<stop stop-color="#78CAF7"/>
<stop offset="0.5" stop-color="#5192FB"/>
<stop offset="1" stop-color="#2F57F6"/>
</linearGradient>
<linearGradient id="paint18_linear" x1="306.852" y1="57.6174" x2="309.093" y2="74.8596" gradientUnits="userSpaceOnUse">
<stop stop-color="#78CAF7"/>
<stop offset="0.5" stop-color="#5192FB"/>
<stop offset="1" stop-color="#2F57F6"/>
</linearGradient>
<linearGradient id="paint19_linear" x1="196.558" y1="22.5116" x2="197.779" y2="31.9055" gradientUnits="userSpaceOnUse">
<stop stop-color="#78CAF7"/>
<stop offset="0.5" stop-color="#5192FB"/>
<stop offset="1" stop-color="#2F57F6"/>
</linearGradient>
<linearGradient id="paint20_linear" x1="189.493" y1="37.4224" x2="194.659" y2="77.1846" gradientUnits="userSpaceOnUse">
<stop stop-color="#78CAF7"/>
<stop offset="0.5" stop-color="#5192FB"/>
<stop offset="1" stop-color="#2F57F6"/>
</linearGradient>
<linearGradient id="paint21_linear" x1="275.403" y1="48.9339" x2="281.676" y2="97.2093" gradientUnits="userSpaceOnUse">
<stop stop-color="#78CAF7"/>
<stop offset="0.5" stop-color="#5192FB"/>
<stop offset="1" stop-color="#2F57F6"/>
</linearGradient>
<linearGradient id="paint22_linear" x1="133.211" y1="33.4221" x2="134.961" y2="46.8921" gradientUnits="userSpaceOnUse">
<stop stop-color="#78CAF7"/>
<stop offset="0.5" stop-color="#5192FB"/>
<stop offset="1" stop-color="#2F57F6"/>
</linearGradient>
<linearGradient id="paint23_linear" x1="117.019" y1="42.194" x2="120.974" y2="72.6292" gradientUnits="userSpaceOnUse">
<stop stop-color="#78CAF7"/>
<stop offset="0.5" stop-color="#5192FB"/>
<stop offset="1" stop-color="#2F57F6"/>
</linearGradient>
<linearGradient id="paint24_linear" x1="218.259" y1="53.841" x2="224.887" y2="104.847" gradientUnits="userSpaceOnUse">
<stop stop-color="#78CAF7"/>
<stop offset="0.5" stop-color="#5192FB"/>
<stop offset="1" stop-color="#2F57F6"/>
</linearGradient>
<linearGradient id="paint25_linear" x1="192.417" y1="107.206" x2="198.156" y2="151.366" gradientUnits="userSpaceOnUse">
<stop stop-color="#78CAF7"/>
<stop offset="0.5" stop-color="#5192FB"/>
<stop offset="1" stop-color="#2F57F6"/>
</linearGradient>
<linearGradient id="paint26_linear" x1="114.309" y1="67.9147" x2="121.58" y2="123.868" gradientUnits="userSpaceOnUse">
<stop stop-color="#78CAF7"/>
<stop offset="0.5" stop-color="#5192FB"/>
<stop offset="1" stop-color="#2F57F6"/>
</linearGradient>
<linearGradient id="paint27_linear" x1="202.77" y1="150.494" x2="207.692" y2="188.372" gradientUnits="userSpaceOnUse">
<stop stop-color="#78CAF7"/>
<stop offset="0.5" stop-color="#5192FB"/>
<stop offset="1" stop-color="#2F57F6"/>
</linearGradient>
<linearGradient id="paint28_linear" x1="110.768" y1="357.877" x2="113.688" y2="380.345" gradientUnits="userSpaceOnUse">
<stop stop-color="#78CAF7"/>
<stop offset="0.5" stop-color="#5192FB"/>
<stop offset="1" stop-color="#2F57F6"/>
</linearGradient>
<linearGradient id="paint29_linear" x1="107.813" y1="357.487" x2="110.408" y2="377.451" gradientUnits="userSpaceOnUse">
<stop stop-color="#78CAF7"/>
<stop offset="0.5" stop-color="#5192FB"/>
<stop offset="1" stop-color="#2F57F6"/>
</linearGradient>
<linearGradient id="paint30_linear" x1="144.635" y1="356.156" x2="150.712" y2="402.927" gradientUnits="userSpaceOnUse">
<stop stop-color="#78CAF7"/>
<stop offset="0.5" stop-color="#5192FB"/>
<stop offset="1" stop-color="#2F57F6"/>
</linearGradient>
<linearGradient id="paint31_linear" x1="158.209" y1="373.275" x2="161.361" y2="397.524" gradientUnits="userSpaceOnUse">
<stop stop-color="#78CAF7"/>
<stop offset="0.5" stop-color="#5192FB"/>
<stop offset="1" stop-color="#2F57F6"/>
</linearGradient>
<linearGradient id="paint32_linear" x1="110.139" y1="345.377" x2="112.38" y2="362.619" gradientUnits="userSpaceOnUse">
<stop stop-color="#78CAF7"/>
<stop offset="0.5" stop-color="#5192FB"/>
<stop offset="1" stop-color="#2F57F6"/>
</linearGradient>
<linearGradient id="paint33_linear" x1="220.224" y1="387.69" x2="221.445" y2="397.084" gradientUnits="userSpaceOnUse">
<stop stop-color="#78CAF7"/>
<stop offset="0.5" stop-color="#5192FB"/>
<stop offset="1" stop-color="#2F57F6"/>
</linearGradient>
<linearGradient id="paint34_linear" x1="223.951" y1="343.002" x2="229.118" y2="382.764" gradientUnits="userSpaceOnUse">
<stop stop-color="#78CAF7"/>
<stop offset="0.5" stop-color="#5192FB"/>
<stop offset="1" stop-color="#2F57F6"/>
</linearGradient>
<linearGradient id="paint35_linear" x1="136.413" y1="323.046" x2="142.686" y2="371.321" gradientUnits="userSpaceOnUse">
<stop stop-color="#78CAF7"/>
<stop offset="0.5" stop-color="#5192FB"/>
<stop offset="1" stop-color="#2F57F6"/>
</linearGradient>
<linearGradient id="paint36_linear" x1="283.787" y1="373.277" x2="285.537" y2="386.747" gradientUnits="userSpaceOnUse">
<stop stop-color="#78CAF7"/>
<stop offset="0.5" stop-color="#5192FB"/>
<stop offset="1" stop-color="#2F57F6"/>
</linearGradient>
<linearGradient id="paint37_linear" x1="297.659" y1="346.885" x2="301.614" y2="377.32" gradientUnits="userSpaceOnUse">
<stop stop-color="#78CAF7"/>
<stop offset="0.5" stop-color="#5192FB"/>
<stop offset="1" stop-color="#2F57F6"/>
</linearGradient>
<linearGradient id="paint38_linear" x1="193.202" y1="315.408" x2="199.83" y2="366.414" gradientUnits="userSpaceOnUse">
<stop stop-color="#78CAF7"/>
<stop offset="0.5" stop-color="#5192FB"/>
<stop offset="1" stop-color="#2F57F6"/>
</linearGradient>
<linearGradient id="paint39_linear" x1="219.802" y1="274.608" x2="225.541" y2="318.767" gradientUnits="userSpaceOnUse">
<stop stop-color="#78CAF7"/>
<stop offset="0.5" stop-color="#5192FB"/>
<stop offset="1" stop-color="#2F57F6"/>
</linearGradient>
<linearGradient id="paint40_linear" x1="296.758" y1="297.694" x2="303.857" y2="352.33" gradientUnits="userSpaceOnUse">
<stop stop-color="#78CAF7"/>
<stop offset="0.5" stop-color="#5192FB"/>
<stop offset="1" stop-color="#2F57F6"/>
</linearGradient>
<linearGradient id="paint41_linear" x1="207.568" y1="234.022" x2="202.645" y2="271.9" gradientUnits="userSpaceOnUse">
<stop stop-color="#78CAF7"/>
<stop offset="0.5" stop-color="#5192FB"/>
<stop offset="1" stop-color="#2F57F6"/>
</linearGradient>
<linearGradient id="paint42_linear" x1="181.428" y1="193.797" x2="95.0815" y2="193.797" gradientUnits="userSpaceOnUse">
<stop stop-color="#78CAF7"/>
<stop offset="0.5" stop-color="#5192FB"/>
<stop offset="1" stop-color="#2F57F6"/>
</linearGradient>
<linearGradient id="paint43_linear" x1="283.314" y1="136.25" x2="288.26" y2="174.318" gradientUnits="userSpaceOnUse">
<stop stop-color="#78CAF7"/>
<stop offset="0.5" stop-color="#5192FB"/>
<stop offset="1" stop-color="#2F57F6"/>
</linearGradient>
<linearGradient id="paint44_linear" x1="311.173" y1="74.6821" x2="318.338" y2="129.822" gradientUnits="userSpaceOnUse">
<stop stop-color="#78CAF7"/>
<stop offset="0.5" stop-color="#5192FB"/>
<stop offset="1" stop-color="#2F57F6"/>
</linearGradient>
<linearGradient id="paint45_linear" x1="274.271" y1="183.646" x2="285.397" y2="269.272" gradientUnits="userSpaceOnUse">
<stop stop-color="#78CAF7"/>
<stop offset="0.5" stop-color="#5192FB"/>
<stop offset="1" stop-color="#2F57F6"/>
</linearGradient>
<linearGradient id="paint46_linear" x1="323.973" y1="119.589" x2="336.327" y2="214.655" gradientUnits="userSpaceOnUse">
<stop stop-color="#78CAF7"/>
<stop offset="0.5" stop-color="#5192FB"/>
<stop offset="1" stop-color="#2F57F6"/>
</linearGradient>
<linearGradient id="paint47_linear" x1="330.817" y1="60.665" x2="333.526" y2="81.5101" gradientUnits="userSpaceOnUse">
<stop stop-color="#78CAF7"/>
<stop offset="0.5" stop-color="#5192FB"/>
<stop offset="1" stop-color="#2F57F6"/>
</linearGradient>
<linearGradient id="paint48_linear" x1="339.985" y1="197.373" x2="351.249" y2="284.055" gradientUnits="userSpaceOnUse">
<stop stop-color="#78CAF7"/>
<stop offset="0.5" stop-color="#5192FB"/>
<stop offset="1" stop-color="#2F57F6"/>
</linearGradient>
<linearGradient id="paint49_linear" x1="371.47" y1="136.081" x2="380.527" y2="205.775" gradientUnits="userSpaceOnUse">
<stop stop-color="#78CAF7"/>
<stop offset="0.5" stop-color="#5192FB"/>
<stop offset="1" stop-color="#2F57F6"/>
</linearGradient>
<linearGradient id="paint50_linear" x1="336.624" y1="64.5141" x2="341.974" y2="105.689" gradientUnits="userSpaceOnUse">
<stop stop-color="#78CAF7"/>
<stop offset="0.5" stop-color="#5192FB"/>
<stop offset="1" stop-color="#2F57F6"/>
</linearGradient>
<linearGradient id="paint51_linear" x1="357.6" y1="268.281" x2="362.937" y2="309.348" gradientUnits="userSpaceOnUse">
<stop stop-color="#78CAF7"/>
<stop offset="0.5" stop-color="#5192FB"/>
<stop offset="1" stop-color="#2F57F6"/>
</linearGradient>
<linearGradient id="paint52_linear" x1="370.709" y1="216.899" x2="382.353" y2="306.509" gradientUnits="userSpaceOnUse">
<stop stop-color="#78CAF7"/>
<stop offset="0.5" stop-color="#5192FB"/>
<stop offset="1" stop-color="#2F57F6"/>
</linearGradient>
<linearGradient id="paint53_linear" x1="364.091" y1="94.6822" x2="370.72" y2="145.701" gradientUnits="userSpaceOnUse">
<stop stop-color="#78CAF7"/>
<stop offset="0.5" stop-color="#5192FB"/>
<stop offset="1" stop-color="#2F57F6"/>
</linearGradient>
<linearGradient id="paint54_linear" x1="355.049" y1="68.148" x2="366.021" y2="152.581" gradientUnits="userSpaceOnUse">
<stop stop-color="#78CAF7"/>
<stop offset="0.5" stop-color="#5192FB"/>
<stop offset="1" stop-color="#2F57F6"/>
</linearGradient>
<linearGradient id="paint55_linear" x1="383.08" y1="154.995" x2="396.103" y2="255.208" gradientUnits="userSpaceOnUse">
<stop stop-color="#78CAF7"/>
<stop offset="0.5" stop-color="#5192FB"/>
<stop offset="1" stop-color="#2F57F6"/>
</linearGradient>
<linearGradient id="paint56_linear" x1="340.296" y1="65.4613" x2="344.063" y2="94.4462" gradientUnits="userSpaceOnUse">
<stop stop-color="#78CAF7"/>
<stop offset="0.5" stop-color="#5192FB"/>
<stop offset="1" stop-color="#2F57F6"/>
</linearGradient>
</defs>
</svg>
