<svg width="180" height="44" viewBox="0 0 180 44" fill="none" xmlns="http://www.w3.org/2000/svg">
<path d="M67.3281 11.9361V10.8931L71.2682 0.811218H73.0064L76.9465 10.7772V11.9361H75.3241L74.2812 9.15486H69.7617L68.7187 11.9361H67.3281ZM72.0794 3.24478L70.457 7.64837H73.8176L72.0794 3.24478ZM78.1053 4.5195H79.7277L79.8436 5.56246C80.1912 4.86716 80.8865 4.40362 81.9295 4.40362C82.9725 4.40362 83.6678 4.98304 83.6678 5.67834V6.7213H82.393C82.393 6.7213 82.2771 5.91011 81.2342 5.91011C80.3071 5.79423 79.9595 6.60541 79.9595 7.64837V11.8202H78.2212V4.5195H78.1053ZM85.6378 9.38663V6.02599H84.4789V4.5195H85.7537V2.66536H87.376V4.5195H90.2731V6.02599H87.376V9.27074C87.376 10.0819 87.6078 10.5455 88.419 10.5455C89.2302 10.5455 89.3461 9.96605 89.3461 9.85016H90.6208V10.8931C90.389 11.4725 89.6937 12.052 88.419 12.052C86.5649 12.052 85.6378 11.1249 85.6378 9.38663ZM91.6637 1.15887H93.5179V3.01301H91.6637V1.15887ZM91.7796 4.5195H93.5179V11.9361H91.7796V4.5195ZM96.0673 6.02599H94.7926V4.5195H96.0673V3.94008C96.0673 1.85417 97.4579 0.811218 99.3121 0.811218C100.934 0.811218 101.746 1.62241 101.977 2.31771V3.36066H100.471C100.471 3.24478 100.355 2.43359 99.1962 2.43359C98.385 2.43359 97.8056 2.89713 97.8056 4.05597V4.75127H99.428V6.25776H97.8056V12.1678H96.0673V6.02599ZM100.239 4.5195H101.977V11.9361H100.239V4.5195ZM103.6 8.22779C103.6 6.02599 104.99 4.28774 107.308 4.28774C109.626 4.28774 110.089 5.79423 110.089 5.79423V6.83718H108.93C108.93 6.83718 108.699 5.79423 107.308 5.79423C105.917 5.79423 105.338 6.83718 105.338 8.1119C105.338 9.38663 106.033 10.4296 107.308 10.4296C108.699 10.4296 108.93 9.50251 108.93 9.50251H110.089V10.4296C110.089 10.4296 109.51 11.9361 107.192 11.9361C104.759 12.052 103.6 10.3137 103.6 8.22779ZM111.712 1.15887H113.566V3.01301H111.712V1.15887ZM111.712 4.5195H113.566V11.9361H111.828V4.5195H111.712ZM115.072 9.73428C115.072 8.45956 115.999 7.53248 118.085 7.53248C118.896 7.53248 119.592 7.64837 119.592 7.64837V7.30072C119.592 6.25776 119.128 5.79423 118.201 5.79423C117.042 5.79423 116.695 6.60541 116.695 6.60541H115.42V5.67834C115.42 5.67834 116.115 4.40362 118.201 4.40362C120.287 4.40362 121.33 5.44657 121.33 7.4166V11.9361H119.824L119.708 10.8931C119.36 11.4725 118.665 12.052 117.506 12.052C115.883 12.052 115.072 11.009 115.072 9.73428ZM119.592 9.27074V8.92309C119.592 8.92309 119.012 8.80721 118.085 8.80721C117.042 8.80721 116.695 9.27074 116.695 9.85016C116.695 10.5455 117.158 10.8931 117.854 10.8931C118.896 10.6613 119.592 9.85016 119.592 9.27074ZM123.184 0.811218H124.922V11.9361H123.184V0.811218ZM68.3711 15.7602H70.3411V26.8851H68.3711V15.7602ZM72.427 19.3526H74.0494L74.1653 20.3956C74.397 20.0479 74.7447 19.7003 75.0924 19.5844C75.44 19.3526 75.9035 19.2368 76.3671 19.2368C78.3371 19.2368 79.0324 20.6274 79.0324 22.2497V26.7692H77.2941V22.4815C77.2941 21.4386 76.9465 20.7432 75.7877 20.7432C74.5129 20.7432 74.1653 21.6703 74.1653 22.4815V26.7692H72.427V19.3526ZM81.3501 24.3356V20.8591H80.1912V19.3526H81.466L81.5818 17.4985H83.2042V19.3526H86.1013V20.8591H83.2042V24.1039C83.2042 24.9151 83.436 25.3786 84.2472 25.3786C85.0584 25.3786 85.1742 24.7992 85.1742 24.6833H86.449V25.7263C86.2172 26.3057 85.5219 26.8851 84.2472 26.8851C82.2771 27.001 81.3501 26.0739 81.3501 24.3356ZM87.0284 23.1768C87.0284 20.975 88.3031 19.2368 90.7367 19.2368C93.0544 19.2368 94.2132 20.6274 94.2132 22.5974C94.2132 23.0609 94.0973 23.5245 94.0973 23.5245H88.8825C88.9984 24.7992 89.6937 25.6104 90.9684 25.6104C92.4749 25.6104 92.8226 24.7992 92.8226 24.7992H94.0973V25.8421C94.0973 25.8421 93.402 27.1169 90.9684 27.1169C88.3031 27.001 87.0284 25.3786 87.0284 23.1768ZM92.4749 22.2497C92.4749 21.4386 91.8955 20.6274 90.7367 20.6274C89.5778 20.6274 88.9984 21.3227 88.8825 22.2497H92.4749ZM95.8356 15.7602H97.5738V26.8851H95.8356V15.7602ZM99.428 15.7602H101.166V26.8851H99.428V15.7602ZM103.136 16.1079H104.99V17.962H103.136V16.1079ZM103.136 19.3526H104.875V26.7692H103.136V19.3526ZM106.845 28.971V27.9281H108.119C108.119 27.9281 108.583 29.0869 110.089 29.0869C111.596 29.0869 112.291 28.0439 112.291 26.4216V25.7263C111.828 26.4216 110.9 27.001 109.858 27.001C107.772 27.001 106.497 25.2627 106.497 23.1768C106.497 20.975 107.772 19.2368 109.858 19.2368C111.016 19.2368 111.828 19.7003 112.291 20.5115L112.407 19.4685H114.029V26.5374C114.029 29.0869 112.523 30.7093 110.089 30.7093C107.54 30.7093 106.845 28.971 106.845 28.971ZM112.291 23.1768C112.291 21.9021 111.48 20.8591 110.205 20.8591C108.815 20.8591 108.119 21.9021 108.119 23.1768C108.119 24.4515 108.815 25.4945 110.205 25.4945C111.48 25.4945 112.291 24.3356 112.291 23.1768ZM115.536 23.1768C115.536 20.975 116.811 19.2368 119.244 19.2368C121.562 19.2368 122.721 20.6274 122.721 22.5974C122.721 23.0609 122.605 23.5245 122.605 23.5245H117.274C117.39 24.7992 118.085 25.6104 119.36 25.6104C120.866 25.6104 121.214 24.7992 121.214 24.7992H122.489V25.8421C122.489 25.8421 121.794 27.1169 119.36 27.1169C116.926 27.001 115.536 25.3786 115.536 23.1768ZM120.982 22.2497C120.982 21.4386 120.403 20.6274 119.244 20.6274C118.085 20.6274 117.506 21.3227 117.39 22.2497H120.982ZM124.343 19.3526H125.965L126.081 20.3956C126.313 20.0479 126.661 19.7003 127.008 19.5844C127.356 19.4685 127.82 19.2368 128.283 19.2368C130.253 19.2368 130.948 20.6274 130.948 22.2497V26.7692H129.21V22.4815C129.21 21.4386 128.747 20.7432 127.704 20.7432C126.429 20.7432 126.081 21.6703 126.081 22.4815V26.7692H124.343V19.3526ZM132.455 23.1768C132.455 20.975 133.845 19.2368 136.163 19.2368C138.481 19.2368 139.06 20.7432 139.06 20.7432V21.7862H137.786C137.786 21.7862 137.554 20.7432 136.163 20.7432C134.773 20.7432 134.193 21.7862 134.193 23.0609C134.193 24.3356 134.888 25.3786 136.163 25.3786C137.67 25.3786 137.786 24.3356 137.786 24.3356H139.06V25.3786C139.06 25.3786 138.481 26.8851 136.163 26.8851C133.614 27.001 132.455 25.2627 132.455 23.1768ZM140.219 23.1768C140.219 20.975 141.494 19.2368 143.927 19.2368C146.245 19.2368 147.288 20.6274 147.288 22.5974C147.288 23.0609 147.172 23.5245 147.172 23.5245H141.841C141.957 24.7992 142.653 25.6104 143.927 25.6104C145.434 25.6104 145.782 24.7992 145.782 24.7992H147.056V25.8421C147.056 25.8421 146.361 27.1169 143.927 27.1169C141.494 27.001 140.219 25.3786 140.219 23.1768ZM145.55 22.2497C145.55 21.4386 144.97 20.6274 143.812 20.6274C142.653 20.6274 142.073 21.3227 141.957 22.2497H145.55ZM67.3281 41.8341V40.7912L71.2682 30.7093H73.0064L76.9465 40.6753V41.8341H75.3241L74.2812 39.0529H69.7617L68.7187 41.8341H67.3281ZM72.0794 33.1428L70.457 37.5464H73.8176L72.0794 33.1428ZM78.2212 30.7093H79.9595V41.8341H78.2212V30.7093ZM81.9295 30.7093H83.6678V41.8341H81.9295V30.7093ZM85.5219 31.0569H87.376V32.9111H85.5219V31.0569ZM85.5219 34.3017H87.2602V41.7182H85.5219V34.3017ZM88.7666 39.6323C88.7666 38.3576 89.6937 37.4305 91.7796 37.4305C92.5908 37.4305 93.2861 37.5464 93.2861 37.5464V37.0829C93.2861 36.0399 92.8226 35.5764 91.8955 35.5764C90.7367 35.5764 90.389 36.3876 90.389 36.3876H89.1143V35.3446C89.1143 35.3446 89.8096 34.0699 91.8955 34.0699C93.9814 34.0699 95.0244 35.1129 95.0244 37.0829V41.6024H93.5179L93.402 40.5594C93.0544 41.1388 92.359 41.7182 91.2002 41.7182C89.5778 41.95 88.7666 40.907 88.7666 39.6323ZM93.402 39.1688V38.8211C93.402 38.8211 92.8226 38.7053 91.8955 38.7053C90.8526 38.7053 90.5049 39.1688 90.5049 39.7482C90.5049 40.4435 90.9684 40.7912 91.6637 40.7912C92.8226 40.5594 93.402 39.7482 93.402 39.1688ZM96.9944 34.3017H98.6168L98.7327 35.3446C98.9644 34.997 99.3121 34.6493 99.6597 34.5334C100.007 34.3017 100.471 34.1858 100.934 34.1858C102.904 34.1858 103.6 35.5764 103.6 37.1988V41.7182H101.862V37.4305C101.862 36.3876 101.514 35.6923 100.355 35.6923C99.0803 35.6923 98.7327 36.6193 98.7327 37.4305V41.7182H96.9944V34.3017ZM105.222 38.0099C105.222 35.8082 106.613 34.0699 108.93 34.0699C111.248 34.0699 111.828 35.5764 111.828 35.5764V36.6193H110.553C110.553 36.6193 110.321 35.5764 108.93 35.5764C107.54 35.5764 106.96 36.6193 106.96 37.8941C106.96 39.1688 107.656 40.2117 108.93 40.2117C110.437 40.2117 110.553 39.1688 110.553 39.1688H111.828V40.2117C111.828 40.2117 111.248 41.7182 108.93 41.7182C106.381 41.95 105.222 40.2117 105.222 38.0099ZM112.871 38.0099C112.871 35.8082 114.145 34.0699 116.579 34.0699C118.896 34.0699 120.055 35.4605 120.055 37.4305C120.055 37.8941 119.939 38.3576 119.939 38.3576H114.609C114.725 39.6323 115.42 40.4435 116.695 40.4435C118.201 40.4435 118.549 39.6323 118.549 39.6323H119.824V40.6753C119.824 40.6753 119.128 41.95 116.695 41.95C114.261 41.95 112.871 40.3276 112.871 38.0099ZM118.317 37.1988C118.317 36.3876 117.738 35.5764 116.579 35.5764C115.42 35.5764 114.841 36.2717 114.725 37.1988H118.317Z" fill="black"/>
<path d="M40.4435 30.4775C39.2846 30.4775 38.0099 30.8251 36.967 31.5204C36.6193 31.7522 35.924 32.2157 35.6922 32.4475C33.8381 33.954 31.5204 34.8811 28.971 34.8811H26.6533C24.1038 34.8811 21.7862 33.954 19.932 32.4475C19.8161 32.3316 19.005 31.7522 18.6573 31.5204C17.6144 30.8251 16.3396 30.4775 15.1808 30.4775C11.4725 30.4775 8.57541 33.4904 8.57541 37.1987C8.57541 40.907 11.4725 43.92 15.1808 43.92C16.3396 43.92 17.6144 43.5723 18.6573 42.877C19.005 42.6453 19.7003 42.1817 19.932 41.95C21.7862 40.4435 24.1038 39.5164 26.6533 39.5164H28.971C31.5204 39.5164 33.8381 40.4435 35.6922 41.95C35.8081 42.0659 36.6193 42.6453 36.967 42.877C38.0099 43.5723 39.2846 43.92 40.4435 43.92C44.1518 43.92 47.0489 40.907 47.0489 37.1987C47.0489 33.6063 44.1518 30.4775 40.4435 30.4775ZM40.4435 0C39.2846 0 38.0099 0.347652 36.967 1.04296C36.6193 1.27472 35.924 1.73826 35.6922 1.97003C33.8381 3.47652 31.6363 4.40359 28.971 4.40359H26.6533C24.1038 4.40359 21.7862 3.47652 19.932 1.97003C19.8161 1.85414 19.005 1.27472 18.6573 1.04296C17.7302 0.347652 16.5714 0 15.4126 0C11.7043 0 8.80718 3.01298 8.80718 6.72127C8.80718 10.4296 11.7043 13.4425 15.4126 13.4425C16.5714 13.4425 17.8461 13.0949 18.8891 12.3996C19.2367 12.1678 19.932 11.7043 20.1638 11.4725C22.0179 9.96601 24.3356 9.03894 26.8851 9.03894H29.2027C31.7522 9.03894 34.0699 9.96601 35.924 11.4725C36.0399 11.5884 36.8511 12.1678 37.1987 12.3996C38.2417 13.0949 39.5164 13.4425 40.6752 13.4425C44.3835 13.4425 47.2806 10.4296 47.2806 6.72127C47.0489 3.01298 44.1518 0 40.4435 0ZM49.1348 15.2967C47.9759 15.2967 46.7012 15.6443 45.6583 16.3396C45.3106 16.5714 44.6153 17.0349 44.3835 17.2667C42.5294 18.7732 40.2117 19.7003 37.6623 19.7003H18.0779C15.5284 19.7003 13.2108 18.7732 11.3566 17.2667C11.2407 17.1508 10.4295 16.5714 10.0819 16.3396C9.03894 15.6443 7.76422 15.2967 6.60538 15.2967C2.8971 15.2967 0 18.1938 0 22.0179C0 25.8421 2.8971 28.7392 6.60538 28.7392C7.76422 28.7392 9.03894 28.3916 10.0819 27.6963C10.4295 27.3486 11.1249 26.8851 11.3566 26.6533C13.2108 25.1468 15.5284 24.2197 18.0779 24.2197H37.6623C40.2117 24.2197 42.5294 25.1468 44.3835 26.6533C44.4994 26.7692 45.3106 27.3486 45.6583 27.5804C46.7012 28.2757 47.9759 28.6233 49.1348 28.6233C52.8431 28.6233 55.7401 25.6103 55.7401 21.9021C55.7401 18.3097 52.8431 15.2967 49.1348 15.2967Z" fill="#2D5EFF"/>
</svg>
