<svg width="98" height="26" viewBox="0 0 98 26" fill="none" xmlns="http://www.w3.org/2000/svg">
<path d="M78.8003 18.3514V13.8992H58.894V18.3514H65.4252V25.0891H72.2691V18.3514H78.8003Z" fill="#161C2D"/>
<path d="M60.1899 4.68788V0.235596H40.2837V4.68788H46.8149V11.4255H53.6587V4.68788H60.1899Z" fill="#161C2D"/>
<path d="M85.0177 13.8992L78.0938 25.0891H84.4407L84.9721 24.0674H90.6965L91.2127 25.0891H98L91.0913 13.8992H85.0177ZM86.6575 20.8239L87.8571 18.4887L89.0414 20.8239H86.6575Z" fill="#161C2D"/>
<path d="M66.4068 0.235596L59.4829 11.4255H65.8298L66.3613 10.4038H72.0856L72.6019 11.4255H79.3892L72.4804 0.235596H66.4068ZM68.0467 7.16036L69.2462 4.82508L70.4306 7.16036H68.0467Z" fill="#161C2D"/>
<path d="M28.0079 0.235596L21.084 11.4255H27.4309L27.9623 10.4038H33.6867L34.203 11.4255H40.9902L34.0815 0.235596H28.0079ZM29.6478 7.16036L30.8473 4.82508L32.0317 7.16036H29.6478Z" fill="#161C2D"/>
<path d="M59.601 25.0891V21.0996H50.8558V13.8992H44.4062V25.0891H59.601Z" fill="#161C2D"/>
<path d="M20.1418 18.4562C20.1418 15.1641 18.3852 13.8992 14.1823 13.8992L0 13.8992V25.0891H6.46843V23.3052L14.248 23.3052C18.2538 23.3052 20.1418 21.8132 20.1418 18.4562ZM6.46843 17.4345L11.9003 17.4345C13.263 17.4345 13.6734 17.6616 13.6734 18.5697C13.6734 19.4617 13.1316 19.7698 11.966 19.7698L6.46843 19.7698V17.4345Z" fill="#161C2D"/>
<path d="M20.1418 18.4562C20.1418 15.1641 18.3852 13.8992 14.1823 13.8992L0 13.8992V25.0891H6.46843V23.3052L14.248 23.3052C18.2538 23.3052 20.1418 21.8132 20.1418 18.4562ZM6.46843 17.4345L11.9003 17.4345C13.263 17.4345 13.6734 17.6616 13.6734 18.5697C13.6734 19.4617 13.1316 19.7698 11.966 19.7698L6.46843 19.7698V17.4345Z" fill="#161C2D"/>
<path d="M22.144 13.8992V20.1211C22.144 23.7723 25.1937 25.4424 32.0972 25.4424C39.6398 25.4424 42.0503 23.7396 42.0503 20.1211V13.8992H35.5896V19.1387C35.5896 20.9234 34.6221 21.3818 32.0972 21.3818C30.1786 21.3818 28.6048 20.9234 28.6048 19.1387V13.8992H22.144Z" fill="#161C2D"/>
<path d="M20.1827 6.42539H13.7877C13.7059 7.76265 12.7246 8.02358 10.1731 8.02358C7.2455 8.02358 6.44408 7.73004 6.44408 5.88722C6.44408 3.96287 7.2455 3.71825 10.1731 3.71825C12.7246 3.71825 13.5751 3.93025 13.7059 4.94135H20.0682C19.6266 1.4188 17.9584 0 10.1731 0C2.71502 0 0 1.14157 0 5.88722C0 10.4372 2.48604 11.7418 10.1731 11.7418C18.6126 11.7418 19.7248 10.1273 20.1827 6.42539Z" fill="#161C2D"/>
</svg>
