<svg width="16" height="17" viewBox="0 0 16 17" fill="none" xmlns="http://www.w3.org/2000/svg">
<path fill-rule="evenodd" clip-rule="evenodd" d="M8 16.201C12.4183 16.201 16 12.6194 16 8.20105C16 3.78277 12.4183 0.20105 8 0.20105C3.58172 0.20105 0 3.78277 0 8.20105C0 12.6194 3.58172 16.201 8 16.201ZM7 5.20105C7 4.64877 7.44772 4.20105 8 4.20105C8.55228 4.20105 9 4.64877 9 5.20105C9 5.75333 8.55228 6.20105 8 6.20105C7.44772 6.20105 7 5.75333 7 5.20105ZM8 7.20105C7.44772 7.20105 7 7.64877 7 8.20105V11.201C7 11.7533 7.44772 12.201 8 12.201C8.55228 12.201 9 11.7533 9 11.201V8.20105C9 7.64877 8.55228 7.20105 8 7.20105Z" fill="white"/>
</svg>
