<svg width="16" height="17" viewBox="0 0 16 17" fill="none" xmlns="http://www.w3.org/2000/svg">
<path fill-rule="evenodd" clip-rule="evenodd" d="M8 16.5C12.4183 16.5 16 12.9183 16 8.5C16 4.08172 12.4183 0.5 8 0.5C3.58172 0.5 0 4.08172 0 8.5C0 12.9183 3.58172 16.5 8 16.5ZM7 5.5C7 4.94772 7.44772 4.5 8 4.5C8.55228 4.5 9 4.94772 9 5.5C9 6.05228 8.55228 6.5 8 6.5C7.44772 6.5 7 6.05228 7 5.5ZM8 7.5C7.44772 7.5 7 7.94772 7 8.5V11.5C7 12.0523 7.44772 12.5 8 12.5C8.55228 12.5 9 12.0523 9 11.5V8.5C9 7.94772 8.55228 7.5 8 7.5Z" fill="#3CA9E8"/>
</svg>
