<svg width="176" height="50" viewBox="0 0 176 50" fill="none" xmlns="http://www.w3.org/2000/svg">
    <path d="M20.8251 50L19.5825 49.1054C6.21273 39.5626 0 30.5666 0 20.8748C0 10.4871 7.15707 0 20.8748 0C34.5925 0 41.7495 10.4871 41.7495 20.8748C41.7495 30.7654 35.1392 40.2584 22.1173 49.1054L20.8251 50ZM20.8748 4.42346C9.54275 4.42346 4.37376 12.9722 4.37376 20.9245C4.37376 28.7773 9.64215 36.3817 20.8748 44.6819C31.66 37.0278 37.326 28.8767 37.326 20.9245C37.326 12.9722 32.2068 4.42346 20.8748 4.42346Z"
          fill="#E83C53"/>
    <path d="M60.1851 24.2182V14.1382H65.1338C66.9811 14.1382 68.0073 15.2785 68.0073 16.7152C68.0073 17.9923 67.1863 18.8361 66.2513 19.0185C67.3232 19.1782 68.1898 20.25 68.1898 21.5043C68.1898 23.0551 67.1407 24.2182 65.2707 24.2182H60.1851ZM66.2057 17.0117C66.2057 16.2591 65.6812 15.689 64.7918 15.689H61.9411V18.3116H64.7689C65.6812 18.3116 66.2057 17.7642 66.2057 17.0117ZM66.3881 21.2535C66.3881 20.5009 65.8636 19.8623 64.8374 19.8623H61.9411V22.6674H64.8374C65.818 22.6674 66.3881 22.1201 66.3881 21.2535Z"
          fill="white"/>
    <path d="M70.835 22.8041L71.8156 21.4358C72.4998 22.1656 73.5944 22.8269 75.0083 22.8269C76.4679 22.8269 77.038 22.1199 77.038 21.4586C77.038 20.5464 75.9662 20.2727 74.7347 19.9534C73.0927 19.5429 71.1542 19.064 71.1542 16.9431C71.1542 15.2783 72.6138 14.0012 74.8259 14.0012C76.3995 14.0012 77.6766 14.5029 78.6116 15.4152L77.6082 16.7379C76.8328 15.9625 75.7609 15.5976 74.6891 15.5976C73.64 15.5976 72.9787 16.0993 72.9787 16.8519C72.9787 17.6273 74.0049 17.9009 75.1908 18.1974C76.8556 18.6307 78.8397 19.1324 78.8397 21.3218C78.8397 23.0094 77.6538 24.4233 74.9399 24.4233C73.0699 24.4005 71.7244 23.7391 70.835 22.8041Z"
          fill="white"/>
    <path d="M81.9873 24.2182V14.1382H83.7433V24.2182H81.9873Z" fill="white"/>
    <path d="M92.7969 24.2182V14.1382H94.5529V22.6674H98.9999V24.2182H92.7969Z" fill="white"/>
    <path d="M102.124 24.2182V14.1382H103.88V24.2182H102.124Z" fill="white"/>
    <path d="M107.552 24.2182V14.1382H114.462V15.689H109.331V18.3116H114.371V19.8623H109.331V24.2182H107.552Z"
          fill="white"/>
    <path d="M117.563 24.2182V14.1382H124.474V15.689H119.342V18.3116H124.382V19.8623H119.342V22.6674H124.474V24.2182H117.563Z"
          fill="white"/>
    <path d="M127.142 22.8041L128.122 21.4358C128.806 22.1656 129.901 22.8269 131.315 22.8269C132.775 22.8269 133.345 22.1199 133.345 21.4586C133.345 20.5464 132.273 20.2727 131.041 19.9534C129.399 19.5429 127.461 19.064 127.461 16.9431C127.461 15.2783 128.92 14.0012 131.133 14.0012C132.706 14.0012 133.983 14.5029 134.918 15.4152L133.915 16.7379C133.139 15.9625 132.068 15.5976 130.996 15.5976C129.947 15.5976 129.285 16.0993 129.285 16.8519C129.285 17.6273 130.312 17.9009 131.497 18.1974C133.162 18.6307 135.146 19.1324 135.146 21.3218C135.146 23.0094 133.96 24.4233 131.247 24.4233C129.377 24.4005 128.031 23.7391 127.142 22.8041Z"
          fill="white"/>
    <path d="M140.529 24.2182V15.689H137.473V14.1382H145.341V15.689H142.285V24.2182H140.529Z" fill="white"/>
    <path d="M151.201 24.2182V20.0448L147.302 14.1382H149.331L152.091 18.4712L154.85 14.161H156.88L152.98 20.0448V24.2182H151.201Z"
          fill="white"/>
    <path d="M159.502 24.2182V14.1382H161.258V22.6674H165.706V24.2182H159.502Z" fill="white"/>
    <path d="M168.807 24.2182V14.1382H175.717V15.689H170.586V18.3116H175.626V19.8623H170.586V22.6674H175.717V24.2182H168.807Z"
          fill="white"/>
    <path d="M60.9509 30.4313L62.453 34.9378L63.9552 30.4313H64.397L65.9286 34.9378L67.4014 30.4313H68.1672L66.2526 35.8803H65.5752L64.1614 31.8156L62.7476 35.8803H62.0701L60.1851 30.4313H60.9509Z"
          fill="white"/>
    <path d="M70.1699 30.4319H73.999V31.0504H70.8474V32.7588H73.8812V33.3773H70.8474V35.2329H74.1168V35.8809H70.1699V30.4319Z"
          fill="white"/>
    <path d="M77.0031 35.233H79.978V35.8515H76.3257V30.4025H77.0031V35.233Z" fill="white"/>
    <path d="M82.5705 35.233H85.5454V35.8515H81.8931V30.4025H82.5705V35.233Z" fill="white"/>
    <path d="M87.99 30.4319L91.3183 34.5849V30.4319H91.9958V35.8809H91.5245L88.1667 31.7279V35.8809H87.4893V30.4319H87.99Z"
          fill="white"/>
    <path d="M94.5581 30.4319H98.3872V31.0504H95.2356V32.7588H98.2693V33.3773H95.2356V35.2329H98.505V35.8809H94.5581V30.4319Z"
          fill="white"/>
    <path d="M102.57 30.9326C101.893 30.9326 101.127 31.1977 101.127 31.8752C101.127 32.4642 101.804 32.641 102.6 32.7588C103.689 32.9355 104.75 33.1417 104.75 34.3788C104.75 35.5864 103.571 35.9988 102.541 35.9988C101.569 35.9988 100.656 35.6453 100.243 34.7322L100.803 34.4082C101.156 35.0562 101.893 35.3508 102.541 35.3508C103.189 35.3508 104.072 35.1446 104.072 34.3493C104.072 33.6719 103.306 33.4657 102.511 33.3479C101.451 33.1712 100.449 32.9355 100.449 31.8457C100.42 30.697 101.598 30.3141 102.541 30.3141C103.336 30.3141 104.131 30.4908 104.602 31.3155L104.102 31.6395C103.807 31.1388 103.189 30.9326 102.57 30.9326Z"
          fill="white"/>
    <path d="M108.932 30.9326C108.254 30.9326 107.489 31.1977 107.489 31.8752C107.489 32.4642 108.166 32.641 108.961 32.7588C110.051 32.9355 111.111 33.1417 111.111 34.3788C111.111 35.5864 109.933 35.9988 108.902 35.9988C107.93 35.9988 107.017 35.6453 106.605 34.7322L107.165 34.4082C107.518 35.0562 108.254 35.3508 108.902 35.3508C109.55 35.3508 110.434 35.1446 110.434 34.3493C110.434 33.6719 109.668 33.4657 108.873 33.3479C107.813 33.1712 106.811 32.9355 106.811 31.8457C106.782 30.697 107.96 30.3141 108.902 30.3141C109.698 30.3141 110.493 30.4908 110.964 31.3155L110.463 31.6395C110.169 31.1388 109.521 30.9326 108.932 30.9326Z"
          fill="white"/>
    <path d="M115.471 31.0504V30.4319H119.859V31.0504H118.004V35.8809H117.326V31.0504H115.471Z" fill="white"/>
    <path d="M123.806 33.9075H122.481V35.8809H121.803V30.4319H124.277C125.514 30.4319 126.133 31.2861 126.133 32.1697C126.133 32.9944 125.691 33.7602 124.572 33.8486L126.369 35.8515H125.514L123.806 33.9075ZM125.456 32.1991C125.456 31.669 125.073 31.0504 124.277 31.0504H122.481V33.3184H124.248C125.073 33.3184 125.456 32.8177 125.456 32.1991Z"
          fill="white"/>
    <path d="M131.288 30.4319L133.732 35.8809H132.996L132.466 34.6733H129.344L128.814 35.8809H128.077L130.522 30.4319H131.288ZM130.905 31.1093L129.609 34.0548H132.201L130.905 31.1093Z"
          fill="white"/>
    <path d="M135.382 30.4319L137.237 35.0857L139.122 30.4319H139.859L137.62 35.8809H136.884L134.616 30.4319H135.382Z"
          fill="white"/>
    <path d="M141.832 30.4319H145.661V31.0504H142.509V32.7588H145.543V33.3773H142.509V35.2329H145.779V35.8809H141.832V30.4319Z"
          fill="white"/>
    <path d="M148.666 35.233H151.641V35.8515H147.988V30.4025H148.666V35.233Z" fill="white"/>
</svg>
