<svg width="182" height="38" viewBox="0 0 182 38" fill="none" xmlns="http://www.w3.org/2000/svg">
    <path fill-rule="evenodd" clip-rule="evenodd"
          d="M86.1114 7.86206C84.513 8.11741 82.9032 8.38995 81.2828 8.68048L80.9298 6.71187C82.5629 6.41908 84.1851 6.14442 85.7959 5.8871L86.1114 7.86206ZM95.7752 6.50365C94.1733 6.69841 92.5576 6.90982 90.9289 7.13877L90.6505 5.15824C92.2917 4.92754 93.9197 4.71451 95.5338 4.51827L95.7752 6.50365ZM76.4896 9.58709C74.9069 9.90213 73.3149 10.2346 71.7144 10.5853L71.2863 8.6317C72.8995 8.27822 74.504 7.94309 76.0991 7.62557L76.4896 9.58709ZM105.492 5.5044C103.891 5.63928 102.273 5.79016 100.64 5.95802L100.436 3.9685C102.081 3.79937 103.711 3.64736 105.324 3.51147L105.492 5.5044ZM66.9326 11.682C65.3679 12.057 63.7957 12.4496 62.2167 12.8606L61.7129 10.9251C63.3046 10.5108 64.8893 10.115 66.4665 9.73706L66.9326 11.682ZM115.253 4.86175C113.642 4.93831 112.01 5.03038 110.359 5.13912L110.228 3.14344C111.891 3.03389 113.535 2.94114 115.158 2.864L115.253 4.86175ZM57.4949 14.1395C55.9391 14.5774 54.3773 15.0334 52.8102 15.5082L52.2303 13.5941C53.8102 13.1155 55.3846 12.6557 56.953 12.2143L57.4949 14.1395ZM125 4.57515C123.402 4.59323 121.779 4.62578 120.133 4.67414L120.074 2.675C121.733 2.62628 123.368 2.59349 124.977 2.57527L125 4.57515ZM48.1555 16.9691C46.6128 17.4703 45.0654 17.9899 43.5139 18.5287L42.8578 16.6393C44.4221 16.0962 45.9822 15.5722 47.5376 15.067L48.1555 16.9691ZM134.786 4.64191C133.185 4.60188 131.551 4.57538 129.886 4.56407L129.9 2.56412C131.577 2.57551 133.223 2.60221 134.836 2.64253L134.786 4.64191ZM38.9328 20.1712C37.4091 20.7348 35.8819 21.3172 34.3518 21.9189L33.6199 20.0577C35.1627 19.451 36.7026 18.8637 38.2389 18.2954L38.9328 20.1712ZM144.555 5.06495C142.97 4.96706 141.343 4.88094 139.675 4.80875L139.762 2.81062C141.442 2.88335 143.081 2.97012 144.678 3.06875L144.555 5.06495ZM29.845 23.7441C28.3475 24.3683 26.8477 25.0113 25.346 25.6736L24.539 23.8437C26.0532 23.1758 27.5656 22.5274 29.0755 21.898L29.845 23.7441ZM154.293 5.85018C152.729 5.69403 151.106 5.54677 149.427 5.4115L149.588 3.41796C151.28 3.55428 152.915 3.70269 154.492 3.86007L154.293 5.85018ZM181.813 8.66123C182.09 9.13899 181.927 9.75089 181.449 10.0279L173.664 14.5428C173.186 14.8199 172.574 14.6572 172.297 14.1794C172.02 13.7016 172.183 13.0897 172.661 12.8127L178.368 9.50272L178.791 7.62007C178.832 7.62933 178.873 7.63851 178.913 7.64759L175.568 1.87891C175.291 1.40114 175.454 0.789243 175.931 0.512187C176.409 0.235133 177.021 0.397841 177.298 0.875606L181.813 8.66123ZM20.9095 27.6846C19.4405 28.3686 17.9702 29.0716 16.4988 29.7938L15.6176 27.9984C17.1012 27.2701 18.584 26.5613 20.0653 25.8715L20.9095 27.6846ZM163.988 7.01378C162.467 6.79929 160.853 6.58746 159.151 6.38346L159.389 4.39767C161.105 4.60336 162.733 4.81699 164.268 5.03336L163.988 7.01378ZM173.623 8.5973C172.203 8.32746 170.583 8.03779 168.776 7.74201L169.099 5.76827C170.924 6.0669 172.56 6.35955 173.996 6.63247L173.623 8.5973ZM12.1429 31.9876C10.7045 32.7307 9.26551 33.4926 7.8264 34.2738L6.87225 32.516C8.32345 31.7283 9.77451 30.96 11.225 30.2107L12.1429 31.9876ZM3.56073 36.6462C2.84985 37.0512 2.13902 37.4609 1.42831 37.8756L0.420479 36.1481C1.13715 35.7299 1.85393 35.3167 2.57078 34.9084L3.56073 36.6462Z"
          fill="#E93F1E"/>
</svg>
