<svg width="139" height="199" viewBox="0 0 139 199" fill="none" xmlns="http://www.w3.org/2000/svg">
    <path fill-rule="evenodd" clip-rule="evenodd"
          d="M39.0981 115.317C38.2405 116.78 37.4072 118.233 36.5978 119.676L34.8536 118.697C35.6692 117.243 36.5087 115.779 37.3728 114.305L39.0981 115.317ZM44.3249 106.781C43.4145 108.206 42.5272 109.625 41.6627 111.037L39.957 109.993C40.8282 108.57 41.7222 107.14 42.6397 105.704L44.3249 106.781ZM34.1819 124.078C33.3826 125.567 32.609 127.043 31.8602 128.503L30.0806 127.591C30.8349 126.12 31.6143 124.633 32.4196 123.132L34.1819 124.078ZM49.8804 98.4519C48.921 99.8309 47.9837 101.207 47.0681 102.58L45.4043 101.47C46.327 100.087 47.2716 98.6996 48.2387 97.3097L49.8804 98.4519ZM29.62 132.974C28.8684 134.509 28.145 136.023 27.4489 137.515L25.6365 136.67C26.3378 135.167 27.0666 133.641 27.8237 132.094L29.62 132.974ZM55.7688 90.3392C54.7554 91.6778 53.7636 93.0164 52.7928 94.3537L51.1743 93.1789C52.1528 91.8308 53.1526 90.4815 54.1741 89.132L55.7688 90.3392ZM25.3692 142.083C24.6754 143.645 24.0126 145.178 23.3797 146.678L21.537 145.901C22.1746 144.39 22.8423 142.845 23.5414 141.271L25.3692 142.083ZM11.1284 182.835C10.6676 183.139 10.0472 183.012 9.7429 182.551L4.78331 175.041C4.47897 174.58 4.60585 173.96 5.06671 173.655C5.52757 173.351 6.14789 173.478 6.45224 173.939L10.1256 179.501C10.137 179.454 10.1486 179.407 10.1604 179.359L12.059 179.823L17.5365 176.206C17.9973 175.902 18.6176 176.029 18.922 176.489C19.2263 176.95 19.0994 177.571 18.6386 177.875L11.1284 182.835ZM61.9847 82.4677C60.913 83.7689 59.8624 85.072 58.8327 86.3761L57.263 85.1367C58.3012 83.8219 59.3604 82.5081 60.4409 81.1962L61.9847 82.4677ZM21.4792 151.305C20.8393 152.906 20.2356 154.462 19.6668 155.968L17.7957 155.262C18.369 153.744 18.9773 152.176 19.6221 150.562L21.4792 151.305ZM68.5174 74.8661C67.3906 76.1227 66.2847 77.3832 65.1992 78.6466L63.6822 77.3432C64.7768 76.0692 65.892 74.7981 67.0283 73.5309L68.5174 74.8661ZM17.9427 160.675C17.3521 162.339 16.8089 163.925 16.3104 165.428L14.4121 164.799C14.9149 163.283 15.4626 161.683 16.0579 160.006L17.9427 160.675ZM75.3546 67.5599C74.1783 68.764 73.0223 69.9736 71.8863 71.1878L70.4259 69.8214C71.5716 68.5968 72.7375 67.3769 73.924 66.1623L75.3546 67.5599ZM14.7818 170.213C14.2423 171.97 13.7789 173.56 13.3855 174.966L11.4595 174.427C11.8572 173.006 12.3253 171.4 12.8699 169.626L14.7818 170.213ZM82.5029 60.5533C81.2779 61.7027 80.0728 62.8588 78.8872 64.021L77.4872 62.5928C78.683 61.4205 79.8987 60.2542 81.1344 59.0948L82.5029 60.5533ZM89.953 53.8662C88.6804 54.9584 87.4274 56.0587 86.1935 57.1663L84.8575 55.6779C86.1023 54.5606 87.3665 53.4505 88.6503 52.3486L89.953 53.8662ZM97.6937 47.5169C96.3752 48.5498 95.0757 49.5919 93.795 50.6423L92.5266 49.0959C93.8188 48.0361 95.1299 46.9847 96.4603 45.9424L97.6937 47.5169ZM105.712 41.5218C104.349 42.4935 103.005 43.4752 101.68 44.4663L100.482 42.8644C101.82 41.8644 103.176 40.8738 104.551 39.8934L105.712 41.5218ZM113.994 35.8955C112.589 36.8042 111.202 37.7238 109.833 38.6535L108.71 36.9991C110.091 36.0609 111.49 35.1331 112.908 34.2161L113.994 35.8955ZM122.522 30.6498C121.077 31.4942 119.65 32.3502 118.24 33.2171L117.193 31.5135C118.615 30.6388 120.055 29.775 121.513 28.9229L122.522 30.6498ZM131.28 25.7938C129.797 26.5732 128.331 27.3647 126.883 28.1677L125.913 26.4185C127.375 25.6083 128.854 24.8097 130.35 24.0234L131.28 25.7938ZM138.012 22.4002C137.251 22.7679 136.495 23.1389 135.742 23.5129L134.852 21.722C135.611 21.3447 136.374 20.9704 137.142 20.5994L138.012 22.4002Z"
          fill="#E93F1E"/>
</svg>
