<svg width="145" height="272" viewBox="0 0 145 272" fill="none" xmlns="http://www.w3.org/2000/svg">
    <path fill-rule="evenodd" clip-rule="evenodd"
          d="M98.5171 106.795C98.9816 108.358 99.422 109.918 99.8392 111.473L101.771 110.955C101.349 109.382 100.904 107.806 100.434 106.226L98.5171 106.795ZM95.4818 97.5056C96.0287 99.0386 96.5515 100.569 97.0509 102.096L98.9519 101.475C98.447 99.9306 97.9184 98.3834 97.3655 96.8336L95.4818 97.5056ZM101.046 116.228C101.427 117.82 101.784 119.408 102.118 120.99L104.075 120.577C103.737 118.977 103.376 117.372 102.991 115.763L101.046 116.228ZM91.9479 88.3786C92.5809 89.8925 93.1894 91.4046 93.7741 92.9144L95.6391 92.1921C95.0481 90.6659 94.4329 89.1374 93.7931 87.6071L91.9479 88.3786ZM103.062 125.781C103.358 127.396 103.63 129.006 103.88 130.609L105.856 130.302C105.604 128.681 105.328 127.054 105.029 125.421L103.062 125.781ZM87.9295 79.4371C88.648 80.9302 89.3418 82.4221 90.0113 83.9125L91.8356 83.0929C91.1589 81.5866 90.4578 80.0788 89.7316 78.5698L87.9295 79.4371ZM104.565 135.429C104.775 137.062 104.962 138.687 105.127 140.305L107.116 140.103C106.95 138.467 106.761 136.824 106.548 135.174L104.565 135.429ZM83.4845 70.7747C84.2722 72.2186 85.0359 73.662 85.7759 75.1044L87.5553 74.1915C86.8076 72.734 86.0361 71.2756 85.2402 69.8168L83.4845 70.7747ZM105.556 145.144C105.681 146.789 105.783 148.426 105.864 150.053L107.861 149.954C107.78 148.309 107.676 146.656 107.55 144.993L105.556 145.144ZM78.5996 62.3282C79.4498 63.7183 80.2768 65.1083 81.0809 66.498L82.812 65.4964C81.9997 64.0926 81.1645 62.6886 80.3057 61.2846L78.5996 62.3282ZM106.043 154.909C106.084 156.559 106.102 158.198 106.101 159.827L108.101 159.829C108.102 158.183 108.083 156.527 108.043 154.861L106.043 154.909ZM73.288 54.0975C74.2076 55.4507 75.1043 56.8043 75.9783 58.1581L77.6585 57.0733C76.7759 55.7062 75.8706 54.3395 74.9421 52.9733L73.288 54.0975ZM106.036 164.691C105.993 166.34 105.931 167.977 105.849 169.603L107.846 169.703C107.929 168.062 107.992 166.408 108.035 164.742L106.036 164.691ZM67.584 46.1101C68.5804 47.4399 69.5537 48.7706 70.5042 50.1019L72.1319 48.9398C71.1724 47.596 70.1901 46.2529 69.1845 44.9108L67.584 46.1101ZM105.546 174.458C105.423 176.105 105.282 177.738 105.123 179.357L107.113 179.553C107.274 177.919 107.417 176.27 107.54 174.607L105.546 174.458ZM61.5832 38.4583C62.6225 39.726 63.6399 40.9949 64.6357 42.2647L66.2095 41.0305C65.2047 39.7492 64.1783 38.4691 63.1299 37.1903L61.5832 38.4583ZM104.59 184.19C104.39 185.832 104.172 187.459 103.938 189.069L105.917 189.357C106.153 187.732 106.373 186.09 106.575 184.432L104.59 184.19ZM55.2159 31.0181C56.2978 32.2304 57.3587 33.444 58.3992 34.6589L59.9182 33.358C58.8689 32.1327 57.799 30.9088 56.7081 29.6864L55.2159 31.0181ZM103.185 193.866C102.91 195.503 102.618 197.12 102.312 198.718L104.276 199.095C104.585 197.482 104.879 195.85 105.157 194.198L103.185 193.866ZM48.5206 23.8136C49.6785 25.0112 50.8152 26.2104 51.931 27.4112L53.3961 26.0498C52.2713 24.8393 51.1255 23.6304 49.9584 22.4234L48.5206 23.8136ZM101.343 203.49C100.996 205.11 100.635 206.708 100.262 208.283L102.208 208.745C102.585 207.156 102.949 205.544 103.299 203.909L101.343 203.49ZM41.636 16.9573C42.8157 18.0894 43.9757 19.2234 45.1162 20.359L46.5274 18.9418C45.3781 17.7974 44.2094 16.6549 43.0208 15.5143L41.636 16.9573ZM99.0829 213.03C98.6684 214.627 98.2425 216.197 97.807 217.74L99.7318 218.283C100.171 216.727 100.601 215.143 101.019 213.533L99.0829 213.03ZM36.1929 11.8757C36.8128 12.4388 37.4276 13.0025 38.0373 13.5667L39.3956 12.0986C38.7813 11.5303 38.1621 10.9626 37.5378 10.3954L36.1929 11.8757ZM96.4206 222.463C95.9395 224.04 95.45 225.586 94.9544 227.099L96.8551 227.722C97.3548 226.196 97.8484 224.637 98.3336 223.046L96.4206 222.463ZM93.3772 231.751C92.8225 233.334 92.2635 234.874 91.7035 236.372L93.5768 237.073C94.1416 235.562 94.7052 234.008 95.2645 232.413L93.3772 231.751ZM89.9503 240.918C89.3317 242.474 88.7157 243.975 88.1065 245.419L89.9493 246.196C90.5637 244.74 91.185 243.226 91.8088 241.657L89.9503 240.918ZM86.1423 249.94C85.4388 251.513 84.7518 253 84.0883 254.399L85.8953 255.256C86.5649 253.844 87.2582 252.343 87.9679 250.757L86.1423 249.94ZM75.967 270.16C76.0872 270.699 76.6215 271.038 77.1606 270.918L85.9451 268.96C86.4841 268.84 86.8237 268.306 86.7036 267.767C86.5834 267.228 86.0491 266.888 85.51 267.008L79.001 268.459C79.0109 268.442 79.0209 268.425 79.031 268.407L77.416 267.467L75.9613 260.94C75.8411 260.401 75.3067 260.061 74.7677 260.182C74.2286 260.302 73.889 260.836 74.0092 261.375L75.967 270.16ZM81.9411 258.792C81.1353 260.392 80.3866 261.825 79.7125 263.081L81.4746 264.027C82.1567 262.756 82.9135 261.308 83.7274 259.692L81.9411 258.792Z"
          fill="#E93F1E"/>
</svg>
