<svg width="16" height="16" viewBox="0 0 16 16" fill="none" xmlns="http://www.w3.org/2000/svg">
    <path fill-rule="evenodd" clip-rule="evenodd"
          d="M11.165 0.78508L12.2431 3.21894C12.3655 3.49571 12.202 3.81458 11.9049 3.87845L9.28907 4.43877C8.89327 4.52344 8.59956 4.06716 8.78343 3.70909C8.8184 3.64093 8.85273 3.5742 8.88529 3.51091C8.93292 3.41831 8.97677 3.33308 9.01327 3.26152C9.12601 3.04232 8.94166 2.97119 8.70504 2.89813C7.80505 2.62184 6.85086 2.58894 5.86668 2.84829C3.79717 3.39361 2.23622 5.20134 2.02525 7.31923C1.94057 8.16939 2.05912 8.99535 2.37654 9.77292C2.46799 9.99744 2.3567 10.2539 2.13896 10.3618L1.27719 10.79C1.0338 10.911 0.729935 10.8113 0.62542 10.5621C0.169132 9.47728 -0.00506016 8.32035 0.113004 7.12714C0.398002 4.24377 2.50041 1.7833 5.31313 1.01976C6.80683 0.613791 8.24827 0.699919 9.59246 1.18476C9.82471 1.26846 10.0836 1.17701 10.1963 0.957821L10.2979 0.760403C10.4818 0.401857 11.002 0.416857 11.165 0.78508ZM3.98927 15.215L2.91121 12.7806C2.78831 12.5044 2.95234 12.1855 3.24943 12.1216L5.86522 11.5613C6.26103 11.4766 6.55474 11.9324 6.37087 12.291L6.14103 12.7386C6.02829 12.9577 6.21264 13.0289 6.44925 13.1015C7.34925 13.3782 8.30343 13.4111 9.28762 13.1518C11.3576 12.6065 12.9181 10.7987 13.129 8.68084C13.2137 7.83068 13.0952 7.00472 12.7778 6.22714C12.6863 6.00263 12.7976 5.74618 13.0153 5.63827L13.8771 5.20957C14.12 5.08908 14.4244 5.18876 14.5289 5.43795C14.9852 6.52278 15.1594 7.67971 15.0413 8.87245C14.7563 11.7563 12.6539 14.2168 9.84117 14.9803C8.34795 15.3863 6.90602 15.3001 5.56232 14.8153C5.32958 14.7316 5.07071 14.8231 4.95797 15.0422L4.85684 15.2397C4.67249 15.5982 4.15233 15.5832 3.98927 15.215Z"
          fill="#E93F1E"/>
</svg>
