<svg width="99" height="26" viewBox="0 0 99 26" fill="none" xmlns="http://www.w3.org/2000/svg">
<path d="M78.8777 18.3514V13.8992H58.9714V18.3514H65.5026V25.0891H72.3465V18.3514H78.8777Z" fill="#1D2027"/>
<path d="M60.2671 4.68788V0.235596H40.3608V4.68788H46.892V11.4255H53.7359V4.68788H60.2671Z" fill="#1D2027"/>
<path d="M85.0948 13.8992L78.1709 25.0891H84.5178L85.0493 24.0674H90.7736L91.2899 25.0891H98.0771L91.1684 13.8992H85.0948ZM86.7347 20.8239L87.9342 18.4887L89.1186 20.8239H86.7347Z" fill="#1D2027"/>
<path d="M66.4842 0.235596L59.5603 11.4255H65.9072L66.4387 10.4038H72.163L72.6793 11.4255H79.4666L72.5578 0.235596H66.4842ZM68.1241 7.16036L69.3236 4.82508L70.508 7.16036H68.1241Z" fill="#1D2027"/>
<path d="M28.0853 0.235596L21.1614 11.4255H27.5083L28.0397 10.4038H33.7641L34.2804 11.4255H41.0676L34.1589 0.235596H28.0853ZM29.7252 7.16036L30.9247 4.82508L32.1091 7.16036H29.7252Z" fill="#1D2027"/>
<path d="M59.6781 25.0891V21.0996H50.9329V13.8992H44.4834V25.0891H59.6781Z" fill="#1D2027"/>
<path d="M20.219 18.4562C20.219 15.1641 18.4623 13.8992 14.2595 13.8992L0.0771484 13.8992V25.0891H6.54558V23.3052L14.3251 23.3052C18.331 23.3052 20.219 21.8132 20.219 18.4562ZM6.54558 17.4345L11.9775 17.4345C13.3401 17.4345 13.7505 17.6616 13.7505 18.5697C13.7505 19.4617 13.2088 19.7698 12.0431 19.7698L6.54558 19.7698V17.4345Z" fill="#1D2027"/>
<path d="M20.219 18.4562C20.219 15.1641 18.4623 13.8992 14.2595 13.8992L0.0771484 13.8992V25.0891H6.54558V23.3052L14.3251 23.3052C18.331 23.3052 20.219 21.8132 20.219 18.4562ZM6.54558 17.4345L11.9775 17.4345C13.3401 17.4345 13.7505 17.6616 13.7505 18.5697C13.7505 19.4617 13.2088 19.7698 12.0431 19.7698L6.54558 19.7698V17.4345Z" fill="#1D2027"/>
<path d="M22.2214 13.8992V20.1211C22.2214 23.7723 25.2711 25.4424 32.1746 25.4424C39.7172 25.4424 42.1277 23.7396 42.1277 20.1211V13.8992H35.6669V19.1387C35.6669 20.9234 34.6995 21.3818 32.1746 21.3818C30.256 21.3818 28.6822 20.9234 28.6822 19.1387V13.8992H22.2214Z" fill="#1D2027"/>
<path d="M20.2599 6.42539H13.8649C13.7831 7.76265 12.8017 8.02358 10.2503 8.02358C7.32264 8.02358 6.52123 7.73004 6.52123 5.88722C6.52123 3.96287 7.32264 3.71825 10.2503 3.71825C12.8017 3.71825 13.6522 3.93025 13.7831 4.94135H20.1454C19.7038 1.4188 18.0355 0 10.2503 0C2.79217 0 0.0771484 1.14157 0.0771484 5.88722C0.0771484 10.4372 2.56319 11.7418 10.2503 11.7418C18.6897 11.7418 19.8019 10.1273 20.2599 6.42539Z" fill="#1D2027"/>
</svg>
