<svg width="16" height="13" viewBox="0 0 16 13" fill="none" xmlns="http://www.w3.org/2000/svg">
    <path fill-rule="evenodd" clip-rule="evenodd"
          d="M5.67189 8.75709L12.5959 2.22152C12.9145 1.92063 13.4311 1.92063 13.7498 2.22152C14.0681 2.52242 14.0681 3.0101 13.7498 3.31035L6.82592 9.84624C6.5072 10.1475 5.99025 10.1475 5.67189 9.84624C5.35317 9.54567 5.35317 9.05766 5.67189 8.75709Z"
          fill="white"/>
    <path fill-rule="evenodd" clip-rule="evenodd"
          d="M2.20995 5.48925C2.5285 5.18899 3.04491 5.18899 3.36381 5.48925L6.82592 8.75703C7.14464 9.05761 7.14464 9.54561 6.82592 9.84619C6.5072 10.1474 5.99026 10.1474 5.67189 9.84619L2.20995 6.5784C1.89123 6.2775 1.89123 5.78982 2.20995 5.48925Z"
          fill="white"/>
</svg>
