<svg width="21" height="21" viewBox="0 0 21 21" fill="none" xmlns="http://www.w3.org/2000/svg">
    <path fill-rule="evenodd" clip-rule="evenodd"
          d="M8.62318 11.375C8.24669 12.64 7.07482 13.5625 5.6875 13.5625C4.30018 13.5625 3.12831 12.64 2.75182 11.375H0.875608C0.392023 11.375 0 10.9866 0 10.5C0 10.0168 0.391536 9.625 0.875608 9.625H2.75182C3.12831 8.35997 4.30018 7.4375 5.6875 7.4375C7.07482 7.4375 8.24669 8.35997 8.62318 9.625H20.1244C20.608 9.625 21 10.0134 21 10.5C21 10.9832 20.6085 11.375 20.1244 11.375H8.62318ZM12.3768 17.0625C12.7533 15.7975 13.9252 14.875 15.3125 14.875C16.6998 14.875 17.8717 15.7975 18.2482 17.0625H20.1244C20.608 17.0625 21 17.4509 21 17.9375C21 18.4207 20.6085 18.8125 20.1244 18.8125H18.2482C17.8717 20.0775 16.6998 21 15.3125 21C13.9252 21 12.7533 20.0775 12.3768 18.8125H0.875608C0.392023 18.8125 0 18.4241 0 17.9375C0 17.4543 0.391536 17.0625 0.875608 17.0625H12.3768ZM12.3768 2.1875C12.7533 0.922474 13.9252 0 15.3125 0C16.6998 0 17.8717 0.922474 18.2482 2.1875H20.1244C20.608 2.1875 21 2.57588 21 3.0625C21 3.54575 20.6085 3.9375 20.1244 3.9375H18.2482C17.8717 5.20253 16.6998 6.125 15.3125 6.125C13.9252 6.125 12.7533 5.20253 12.3768 3.9375H0.875608C0.392023 3.9375 0 3.54912 0 3.0625C0 2.57925 0.391536 2.1875 0.875608 2.1875H12.3768ZM15.3125 4.375C16.0374 4.375 16.625 3.78737 16.625 3.0625C16.625 2.33763 16.0374 1.75 15.3125 1.75C14.5876 1.75 14 2.33763 14 3.0625C14 3.78737 14.5876 4.375 15.3125 4.375ZM15.3125 19.25C16.0374 19.25 16.625 18.6624 16.625 17.9375C16.625 17.2126 16.0374 16.625 15.3125 16.625C14.5876 16.625 14 17.2126 14 17.9375C14 18.6624 14.5876 19.25 15.3125 19.25ZM5.6875 9.1875C4.96263 9.1875 4.375 9.77513 4.375 10.5C4.375 11.2249 4.96263 11.8125 5.6875 11.8125C6.41237 11.8125 7 11.2249 7 10.5C7 9.77513 6.41237 9.1875 5.6875 9.1875Z"
          fill="#5B5B5B"/>
</svg>
