<svg width="145" height="36" viewBox="0 0 145 36" fill="none" xmlns="http://www.w3.org/2000/svg">
<path d="M51.5847 16.1043C52.6876 16.1043 53.7216 16.3749 53.7905 17.3894H58.9146C58.7308 14.436 56.5939 13.4666 51.5617 13.4666C46.2308 13.4666 44.5304 14.9996 44.5304 17.0738C44.5304 19.0577 45.8402 20.0046 48.115 20.3428L52.7106 20.9966C53.5148 21.1093 54.0433 21.2671 54.0433 21.7856C54.0433 22.3943 53.5608 22.7776 51.8834 22.7776C50.4358 22.7776 49.5166 22.4394 49.4477 21.3347H44.2087C44.3926 24.4234 46.2538 25.4153 51.7685 25.4153C57.467 25.4153 59.0984 23.995 59.0984 21.5602C59.0984 19.6664 57.8347 18.7195 55.2382 18.3363L50.8723 17.7501C50.0681 17.6374 49.5856 17.4119 49.5856 16.9385C49.5856 16.42 50.1141 16.1043 51.5847 16.1043Z" fill="#1D2027"/>
<path d="M71.3256 25.4153C75.1859 25.4153 77.2079 24.0852 77.2079 19.4861C77.2079 14.8193 75.1859 13.4666 71.3256 13.4666C68.5912 13.4666 67.2355 14.4586 66.6611 16.1945H66.3623V13.8048H60.9166V29.1352H66.3623V22.6874H66.6611C67.2355 24.4234 68.5912 25.4153 71.3256 25.4153ZM68.9129 16.5552C70.866 16.5552 71.7622 17.0738 71.7622 19.4861C71.7622 21.8307 70.866 22.3267 68.9129 22.3267C67.4883 22.3267 66.3623 21.8082 66.3623 20.1399V18.7421C66.3623 17.0512 67.4883 16.5552 68.9129 16.5552Z" fill="#1D2027"/>
<path d="M87.1545 22.3042C85.2933 22.3042 84.4201 21.6504 84.4201 19.5086C84.4201 17.2541 85.2933 16.5778 87.1545 16.5778C88.9927 16.5778 89.8889 17.2541 89.8889 19.5086C89.8889 21.6504 88.9927 22.3042 87.1545 22.3042ZM87.1545 13.4666C81.6398 13.4666 78.9744 14.8869 78.9744 19.5086C78.9744 23.995 81.6398 25.4153 87.1545 25.4153C92.6692 25.4153 95.3347 23.995 95.3347 19.5086C95.3347 14.8869 92.6692 13.4666 87.1545 13.4666Z" fill="#1D2027"/>
<path d="M108.893 13.8048H107.008C104.596 13.8048 103.562 15.1124 103.125 17.2992H102.826V13.8048H97.3806V25.0772H102.826V20.1624C102.895 18.6294 103.654 17.8628 105.676 17.9305L108.893 17.953V13.8048Z" fill="#1D2027"/>
<path d="M121.575 25.0772V21.8082H119.323C118.243 21.8082 117.692 21.5151 117.692 20.4104V16.9385H121.575V13.8048H117.692V9.52124H112.246V13.8048H109.879V16.9385H112.246V20.9289C112.246 23.6343 113.671 25.0772 116.818 25.0772H121.575Z" fill="#1D2027"/>
<path d="M129.15 24.9419L126.37 29.1352H132.39L140.501 13.8048H134.55L131.723 20.7035L128.484 13.8048H122.463L129.15 24.9419Z" fill="#1D2027"/>
<path d="M139.874 25.0772H144.24V21.1318H139.874V25.0772Z" fill="#1D2027"/>
<path d="M20.4779 3.6001H32.4778V15.6L20.4779 3.6001Z" fill="#E93F1E"/>
<path d="M3.67749 20.4001L15.6774 32.4H3.67749V20.4001Z" fill="#E93F1E"/>
<rect x="0.0773926" y="12" width="16.9706" height="33.9411" rx="8.48528" transform="rotate(-45 0.0773926 12)" fill="#E93F1E"/>
</svg>
