<svg width="91" height="128" viewBox="0 0 91 128" fill="none" xmlns="http://www.w3.org/2000/svg">
    <path fill-rule="evenodd" clip-rule="evenodd"
          d="M0.318772 8.70705C-0.0717522 8.31653 -0.0717522 7.68336 0.318772 7.29284L6.68273 0.92888C7.07326 0.538355 7.70642 0.538355 8.09695 0.92888C8.48747 1.3194 8.48747 1.95257 8.09695 2.34309L3.41675 7.02329C22.658 7.40131 37.9369 12.3478 49.9663 20.2339C62.485 28.4408 71.4278 39.7938 77.6594 52.3684C90.1084 77.4892 91.7834 107.573 89.5196 127.612L87.5322 127.388C89.7684 107.594 88.0934 77.9273 75.8674 53.2565C69.7614 40.9353 61.0355 29.882 48.8698 21.9066C37.207 14.2608 22.3307 9.40923 3.46479 9.02465L8.09695 13.6568C8.48747 14.0473 8.48747 14.6805 8.09695 15.071C7.70642 15.4615 7.07326 15.4615 6.68273 15.071L0.318772 8.70705Z"
          fill="white"/>
</svg>
