<svg width="58" height="104" viewBox="0 0 58 104" fill="none" xmlns="http://www.w3.org/2000/svg">
    <path fill-rule="evenodd" clip-rule="evenodd"
          d="M19.9523 6.04466C19.4377 6.24525 19.1832 6.82501 19.3838 7.33958L22.6526 15.725C22.8532 16.2395 23.4329 16.4941 23.9475 16.2935C24.4621 16.0929 24.7166 15.5131 24.516 14.9986L22.1566 8.94606C39.196 17.4972 47.4545 34.4859 46.2709 51.597C45.0375 69.4301 33.5341 87.4331 10.8584 96.0423L11.5682 97.912C34.9562 89.0324 46.9776 70.365 48.2662 51.735C49.5056 33.8152 40.8017 15.964 22.8555 7.05952L29.0641 4.63926C29.5787 4.43867 29.8332 3.85891 29.6326 3.34434C29.432 2.82978 28.8522 2.57525 28.3377 2.77584L19.9523 6.04466Z"
          fill="white"/>
</svg>
