<svg width="14" height="14" viewBox="0 0 14 14" fill="none" xmlns="http://www.w3.org/2000/svg">
    <path opacity="0.6"
          d="M12.8804 2.23433C12.9873 2.12776 13.0722 2.00111 13.1301 1.86167C13.188 1.72222 13.2178 1.57272 13.2178 1.42173C13.2178 1.27075 13.188 1.12124 13.1301 0.981799C13.0722 0.842355 12.9873 0.715712 12.8804 0.609133C12.7948 0.538582 12.6873 0.5 12.5764 0.5C12.4654 0.5 12.3579 0.538582 12.2723 0.609133L7 5.88435L2.23433 1.11964C2.12776 1.01269 2.00111 0.927829 1.86167 0.869927C1.72222 0.812026 1.57272 0.78222 1.42173 0.78222C1.27075 0.78222 1.12124 0.812026 0.981799 0.869927C0.842355 0.927829 0.715712 1.01269 0.609133 1.11964C0.538582 1.20524 0.5 1.31272 0.5 1.42365C0.5 1.53458 0.538582 1.64205 0.609133 1.72765L5.88435 7L1.11964 11.7657C1.01269 11.8722 0.927829 11.9989 0.869927 12.1383C0.812026 12.2778 0.78222 12.4273 0.78222 12.5783C0.78222 12.7293 0.812026 12.8788 0.869927 13.0182C0.927829 13.1576 1.01269 13.2843 1.11964 13.3909C1.20524 13.4614 1.31272 13.5 1.42365 13.5C1.53458 13.5 1.64205 13.4614 1.72765 13.3909L7 8.11565L11.7657 12.8813C11.8722 12.9883 11.9989 13.0731 12.1383 13.131C12.2778 13.1889 12.4273 13.2187 12.5783 13.2187C12.7293 13.2187 12.8788 13.1889 13.0182 13.131C13.1576 13.0731 13.2843 12.9883 13.3909 12.8813C13.4614 12.7957 13.5 12.6882 13.5 12.5773C13.5 12.4664 13.4614 12.3589 13.3909 12.2733L8.11565 7L12.8804 2.23433Z"
          fill="#1D2027"/>
</svg>
