<svg width="25" height="25" viewBox="0 0 25 25" fill="none" xmlns="http://www.w3.org/2000/svg">
<path fill-rule="evenodd" clip-rule="evenodd" d="M12.5 22.5C18.0228 22.5 22.5 18.0228 22.5 12.5C22.5 6.97715 18.0228 2.5 12.5 2.5C6.97715 2.5 2.5 6.97715 2.5 12.5C2.5 18.0228 6.97715 22.5 12.5 22.5ZM12.5 24.5C5.87258 24.5 0.5 19.1274 0.5 12.5C0.5 5.87258 5.87258 0.5 12.5 0.5C19.1274 0.5 24.5 5.87258 24.5 12.5C24.5 19.1274 19.1274 24.5 12.5 24.5ZM11.067 15.1413L7.20689 11.2836L5.79311 12.6982L11.069 17.9708L19.548 9.47299L18.1322 8.06034L11.067 15.1413Z" fill="#1D2027"/>
</svg>
