<svg width="15" height="15" viewBox="0 0 15 15" fill="none" xmlns="http://www.w3.org/2000/svg">
    <path fill-rule="evenodd" clip-rule="evenodd"
          d="M10.302 9.1254H4.99312C4.78226 9.1254 4.60552 8.96535 4.58414 8.75497L4.16324 4.62985C4.13899 4.38646 4.32889 4.17526 4.57263 4.17526H11.7472C12.03 4.17526 12.229 4.45659 12.1344 4.72472L10.6892 8.84984C10.6317 9.01485 10.4763 9.1254 10.302 9.1254ZM6.24295 12.8124C6.24295 13.496 5.69093 14.05 5.00984 14.05C4.32876 14.05 3.77674 13.496 3.77674 12.8124C3.77674 12.1289 4.32876 11.5748 5.00984 11.5748C5.69093 11.5748 6.24295 12.1289 6.24295 12.8124ZM11.5864 12.8124C11.5864 13.496 11.0344 14.05 10.3533 14.05C9.6722 14.05 9.12019 13.496 9.12019 12.8124C9.12019 12.1289 9.6722 11.5748 10.3533 11.5748C11.0344 11.5748 11.5864 12.1289 11.5864 12.8124ZM11.1752 10.7756H3.87934C3.45803 10.7756 3.10454 10.4555 3.06179 10.0347L2.25 2.07057C2.22821 1.86019 2.05229 1.70013 1.84143 1.70013H0.488305C0.261414 1.70013 0.0772705 1.51532 0.0772705 1.28761V0.462569C0.0772705 0.234858 0.261414 0.0500488 0.488305 0.0500488H2.95451C3.37582 0.0500488 3.72931 0.370164 3.77206 0.790935L3.9114 2.15473C3.93277 2.36511 4.10951 2.52517 4.32037 2.52517H13.4873C14.0541 2.52517 14.4507 3.08743 14.2629 3.62412L11.9508 10.2244C11.8349 10.5545 11.5242 10.7756 11.1752 10.7756Z"
          fill="white"/>
</svg>
