<svg width="144" height="108" viewBox="0 0 144 108" fill="none" xmlns="http://www.w3.org/2000/svg">
    <path fill-rule="evenodd" clip-rule="evenodd"
          d="M0.149021 4.87286C-0.0568806 4.36039 0.19164 3.77804 0.704107 3.57214L9.05524 0.21677C9.56771 0.0108684 10.1501 0.259389 10.356 0.771856C10.5619 1.28432 10.3133 1.86668 9.80088 2.07258L3.66916 4.53622C38.8144 20.0878 55.3003 40.931 70.1119 59.6573C71.285 61.1405 72.4477 62.6105 73.6083 64.0634C81.6638 74.1485 89.5859 83.3743 100.22 90.6513C110.836 97.9165 124.21 103.273 143.194 105.507L142.96 107.493C123.694 105.227 110.005 99.7711 99.0903 92.3019C88.1929 84.8445 80.115 75.4141 72.0456 65.3116C70.8854 63.8592 69.7247 62.3919 68.555 60.9134C53.7722 42.2266 37.5598 21.7327 2.91354 6.3889L5.3602 12.4784C5.5661 12.9908 5.31758 13.5732 4.80511 13.7791C4.29264 13.985 3.71029 13.7365 3.50439 13.224L0.149021 4.87286Z"
          fill="#1D2027"/>
</svg>
