<svg width="73" height="73" viewBox="0 0 73 73" fill="none" xmlns="http://www.w3.org/2000/svg">
    <path d="M61.267 34.6062C61.691 34.5774 62.0126 34.2102 61.9712 33.7872C61.49 28.8718 59.6035 24.1983 56.5375 20.3262C56.2737 19.9931 55.7873 19.952 55.4621 20.2256V20.2256C55.137 20.4993 55.0964 20.984 55.3596 21.3177C58.2157 24.9389 59.977 29.3021 60.4351 33.8914C60.4773 34.3142 60.843 34.6349 61.267 34.6062V34.6062Z"
          fill="#E93F1E"/>
    <path d="M55.167 52.7032C55.4879 52.9833 55.9762 52.951 56.2466 52.6218C59.381 48.8066 61.3512 44.1692 61.9214 39.2646C61.9706 38.8414 61.6549 38.4675 61.2304 38.431V38.431C60.806 38.3945 60.4336 38.7093 60.3836 39.1324C59.8424 43.7105 58.0035 48.0391 55.0839 51.6067C54.8141 51.9364 54.8461 52.423 55.167 52.7032V52.7032Z"
          fill="#E93F1E"/>
    <path d="M38.0584 61.1865C38.0873 61.6122 38.456 61.9351 38.8807 61.8935C43.7939 61.4119 48.4653 59.5262 52.3361 56.4621C52.6706 56.1972 52.7119 55.7088 52.4371 55.3823V55.3823C52.1624 55.0559 51.6757 55.0151 51.3406 55.2793C47.7217 58.1328 43.3619 59.8927 38.7761 60.3511C38.3515 60.3935 38.0295 60.7607 38.0584 61.1865V61.1865Z"
          fill="#E93F1E"/>
    <path d="M19.9647 55.0861C19.6828 55.4089 19.7154 55.9002 20.0466 56.1722C23.8599 59.3038 28.4942 61.2727 33.3955 61.8435C33.8213 61.893 34.1975 61.5754 34.2342 61.1484V61.1484C34.2709 60.7214 33.9542 60.3467 33.5286 60.2963C28.9557 59.7548 24.6321 57.918 21.0679 55.0024C20.7361 54.7311 20.2466 54.7632 19.9647 55.0861V55.0861Z"
          fill="#E93F1E"/>
    <path d="M11.4766 37.9814C11.0518 38.0102 10.7296 38.3781 10.7711 38.8018C11.2525 43.7162 13.1387 48.3888 16.2038 52.2603C16.4681 52.5941 16.9554 52.6353 17.2811 52.3611V52.3611C17.6068 52.087 17.6475 51.6014 17.3839 51.2671C14.5289 47.6469 12.7683 43.2852 12.31 38.6974C12.2677 38.2738 11.9013 37.9526 11.4766 37.9814V37.9814Z"
          fill="#E93F1E"/>
    <g filter="url(#filter0_b)">
        <path d="M17.5714 19.8812C17.2526 19.6028 16.7675 19.635 16.4987 19.962C13.3615 23.7792 11.3899 28.4199 10.8202 33.328C10.7714 33.7484 11.0851 34.12 11.5068 34.1562V34.1562C11.9284 34.1925 12.2984 33.8797 12.348 33.4594C12.8888 28.8757 14.7301 24.5418 17.6539 20.9705C17.922 20.643 17.8903 20.1595 17.5714 19.8812V19.8812Z"
              fill="white" fill-opacity="0.6"/>
    </g>
    <g filter="url(#filter1_b)">
        <path d="M34.6833 11.3955C34.6546 10.9729 34.2886 10.6523 33.867 10.6936C28.9499 11.1745 24.2746 13.0617 20.4015 16.1291C20.0695 16.392 20.0285 16.8769 20.3013 17.201V17.201C20.574 17.525 21.0572 17.5655 21.3897 17.3032C25.0129 14.4449 29.3787 12.6825 33.9708 12.2247C34.3923 12.1826 34.7119 11.8181 34.6833 11.3955V11.3955Z"
              fill="white" fill-opacity="0.6"/>
    </g>
    <path d="M52.7832 17.4948C53.0619 17.1755 53.0297 16.6898 52.7023 16.4207C48.8855 13.284 44.2454 11.3127 39.338 10.7429C38.917 10.6941 38.545 11.0081 38.5087 11.4303V11.4303C38.4724 11.8526 38.7856 12.223 39.2065 12.2727C43.7891 12.8136 48.122 14.6544 51.6925 17.5774C52.0205 17.8458 52.5045 17.814 52.7832 17.4948V17.4948Z"
          fill="#E93F1E"/>
    <defs>
        <filter id="filter0_b" x="-4.79004" y="7.3844" width="38.2297" height="39.0905" filterUnits="userSpaceOnUse"
                color-interpolation-filters="sRGB">
            <feFlood flood-opacity="0" result="BackgroundImageFix"/>
            <feGaussianBlur in="BackgroundImage" stdDeviation="6"/>
            <feComposite in2="SourceAlpha" operator="in" result="effect1_backgroundBlur"/>
            <feBlend mode="normal" in="SourceGraphic" in2="effect1_backgroundBlur" result="shape"/>
        </filter>
        <filter id="filter1_b" x="7.77661" y="-1.35864" width="39.2539" height="30.8845" filterUnits="userSpaceOnUse"
                color-interpolation-filters="sRGB">
            <feFlood flood-opacity="0" result="BackgroundImageFix"/>
            <feGaussianBlur in="BackgroundImage" stdDeviation="6"/>
            <feComposite in2="SourceAlpha" operator="in" result="effect1_backgroundBlur"/>
            <feBlend mode="normal" in="SourceGraphic" in2="effect1_backgroundBlur" result="shape"/>
        </filter>
    </defs>
</svg>
