<svg width="146" height="35" viewBox="0 0 146 35" fill="none" xmlns="http://www.w3.org/2000/svg">
<path d="M42.2161 14.8743C42.2161 15.4464 42.2752 15.8409 42.3539 16.1171C42.4523 16.3933 42.6293 16.63 42.8458 16.847H39.8746C40.1108 16.63 40.2682 16.3933 40.3665 16.1171C40.4649 15.8409 40.5043 15.4464 40.5043 14.8743V6.94381H39.6385C39.0285 6.94381 38.5563 7.00299 38.1628 7.0819C37.7889 7.18054 37.4938 7.33836 37.2773 7.53563L37.8283 5.7207H45.6005L45.0889 7.51591C44.9315 7.31863 44.715 7.16081 44.4592 7.0819C44.1838 6.98326 43.8493 6.94381 43.4558 6.94381H42.2358L42.2161 14.8743Z" fill="#0C234B"/>
<path d="M48.1191 15.0915C48.1191 15.5847 48.1585 15.9595 48.2372 16.1962C48.3356 16.433 48.4733 16.65 48.6701 16.8275H46.0138C46.2105 16.65 46.3679 16.433 46.4466 16.1962C46.545 15.9595 46.5647 15.5847 46.5647 15.0915V8.68005C46.5647 8.18686 46.5254 7.81204 46.4466 7.57531C46.3483 7.33858 46.2105 7.12158 46.0138 6.94403H48.6701C48.4733 7.12158 48.3159 7.33858 48.2372 7.57531C48.1388 7.81204 48.1191 8.18686 48.1191 8.68005V10.8895H53.3334V8.68005C53.3334 8.18686 53.2941 7.81204 53.2153 7.57531C53.117 7.33858 52.9792 7.12158 52.7825 6.94403H55.4388C55.242 7.12158 55.0846 7.33858 55.0059 7.57531C54.9075 7.81204 54.8878 8.18686 54.8878 8.68005V15.0915C54.8878 15.5847 54.9272 15.9595 55.0059 16.1962C55.1043 16.433 55.242 16.65 55.4388 16.8275H52.7825C52.9989 16.65 53.1366 16.433 53.2153 16.1962C53.3137 15.9595 53.3334 15.5847 53.3334 15.0915V12.0337H48.1191V15.0915Z" fill="#0C234B"/>
<path d="M56.7372 16.8275C56.934 16.6499 57.0914 16.4329 57.1701 16.1962C57.2685 15.9595 57.2882 15.5846 57.2882 15.0914V8.66028C57.2882 8.16709 57.2488 7.79227 57.1701 7.55554C57.0717 7.31881 56.934 7.1018 56.7372 6.92426H62.0499V8.50246C61.8138 8.30518 61.558 8.16709 61.2628 8.08818C60.9677 7.98954 60.6529 7.96981 60.279 7.96981C60.0822 7.96981 59.8855 7.98954 59.6494 8.029C59.4132 8.06845 59.1378 8.10791 58.8426 8.16709V10.9684H61.2235V12.4085C61.1054 12.2901 60.948 12.1718 60.7709 12.1126C60.5742 12.0534 60.22 12.014 59.7084 12.014H58.8426V15.5452C59.2165 15.6044 59.551 15.6438 59.8461 15.6635C60.1413 15.703 60.4167 15.703 60.6332 15.703C61.1251 15.703 61.5973 15.6241 62.0302 15.5057C62.4631 15.3874 62.896 15.1506 63.3289 14.8942L62.6599 16.8275H56.7372Z" fill="#0C234B"/>
<path d="M75.7054 16.8274V15.9791C75.1742 16.3539 74.6429 16.6498 74.1116 16.8274C73.5607 17.0049 73.0294 17.1233 72.4785 17.1233C71.8488 17.1233 71.2782 17.0049 70.7863 16.8077C70.2944 16.5907 69.8615 16.275 69.5073 15.8607C69.2319 15.5254 69.0154 15.1308 68.8974 14.6968C68.7793 14.2628 68.7203 13.6513 68.7203 12.9016V7.71328C68.7203 7.16091 68.6613 6.74663 68.5825 6.47044C68.4842 6.19426 68.3268 5.97726 68.0906 5.76025H71.0618C70.8453 5.95753 70.6879 6.19426 70.5699 6.47044C70.4715 6.7269 70.4321 7.14118 70.4321 7.71328V12.586C70.4321 13.3356 70.4715 13.9077 70.5502 14.2628C70.6289 14.6179 70.747 14.9138 70.924 15.1308C71.1208 15.3873 71.416 15.5846 71.7701 15.7227C72.1243 15.841 72.5178 15.9199 73.0097 15.9199C73.4033 15.9199 73.7771 15.8607 74.1116 15.7424C74.4658 15.624 74.7413 15.4465 75.0167 15.2295C75.2529 15.0519 75.4103 14.7955 75.5087 14.4798C75.607 14.1642 75.6464 13.7696 75.6464 13.237V7.73301C75.6464 7.14118 75.5874 6.7269 75.5087 6.47044C75.4103 6.21399 75.2529 5.97726 75.0167 5.77998H78.0076C77.7715 5.97726 77.614 6.21399 77.5157 6.5099C77.4173 6.78608 77.3779 7.20036 77.3779 7.73301V14.8941C77.3779 15.4465 77.437 15.8607 77.5157 16.1369C77.614 16.4131 77.7715 16.6498 78.0076 16.8471L75.7054 16.8274Z" fill="#0C234B"/>
<path d="M88.7903 6.92426C88.5739 7.1018 88.4165 7.31881 88.3575 7.55554C88.2591 7.79227 88.2394 8.16709 88.2394 8.66028V17.0445C87.8852 17.0247 87.5901 16.9261 87.2753 16.7091C86.9604 16.4921 86.5866 16.0976 86.134 15.486L81.1165 9.05483V15.0717C81.1165 15.5846 81.1559 15.9595 81.2346 16.1962C81.333 16.4329 81.4707 16.6302 81.6675 16.8077H79.4637C79.6605 16.6302 79.8179 16.4132 79.8966 16.1765C79.995 15.9397 80.0147 15.5649 80.0147 15.0717V8.71946C80.0147 8.22627 79.9753 7.85145 79.8966 7.61472C79.7982 7.37799 79.6605 7.16099 79.4637 6.98344H81.4314L87.1769 14.401V8.69973C87.1769 8.20654 87.1375 7.83172 87.0588 7.59499C86.9604 7.35826 86.8227 7.14126 86.6259 6.96371L88.7903 6.92426Z" fill="#0C234B"/>
<path d="M92.4894 15.0915C92.4894 15.5847 92.5287 15.9595 92.6074 16.1962C92.7058 16.433 92.8435 16.65 93.0403 16.8275H90.384C90.6004 16.65 90.7578 16.433 90.8169 16.1962C90.9152 15.9595 90.9349 15.5847 90.9349 15.0915V8.68005C90.9349 8.18686 90.8956 7.81204 90.8169 7.57531C90.7185 7.33858 90.5807 7.12158 90.384 6.94403H93.0403C92.8239 7.12158 92.6861 7.33858 92.6074 7.57531C92.509 7.81204 92.4894 8.18686 92.4894 8.68005V15.0915Z" fill="#0C234B"/>
<path d="M98.7072 17.1039C98.294 16.9855 97.9399 16.7488 97.6447 16.3937C97.3496 16.0386 97.0741 15.4862 96.8183 14.7563L94.8507 8.99586C94.6932 8.5224 94.5358 8.14758 94.3981 7.83194C94.2604 7.53603 94.0833 7.24011 93.9259 6.98366H95.9329C95.9525 7.14148 95.9525 7.2993 95.9919 7.43739C96.0116 7.57548 96.0509 7.71357 96.0903 7.83194L98.4515 14.9141L100.695 9.01559C100.773 8.83804 100.813 8.64077 100.852 8.46322C100.891 8.28567 100.911 8.10812 100.911 7.9503C100.911 7.83194 100.872 7.67412 100.793 7.53603C100.714 7.39793 100.596 7.20066 100.419 6.96393H102.643L98.7072 17.1039Z" fill="#0C234B"/>
<path d="M103.331 16.8275C103.528 16.6499 103.685 16.4329 103.764 16.1962C103.862 15.9595 103.882 15.5846 103.882 15.0914V8.66028C103.882 8.16709 103.843 7.79227 103.764 7.55554C103.666 7.31881 103.528 7.1018 103.331 6.92426H108.644V8.50246C108.408 8.30518 108.152 8.16709 107.857 8.08818C107.562 7.98954 107.247 7.96981 106.873 7.96981C106.696 7.96981 106.479 7.98954 106.243 8.029C106.007 8.06845 105.732 8.10791 105.436 8.16709V10.9684H107.817V12.4085C107.699 12.2901 107.542 12.1718 107.365 12.1126C107.188 12.0534 106.814 12.014 106.302 12.014H105.436V15.5452C105.791 15.6044 106.145 15.6438 106.44 15.6635C106.735 15.703 107.011 15.703 107.227 15.703C107.719 15.703 108.191 15.6241 108.624 15.5057C109.057 15.3874 109.49 15.1506 109.923 14.8942L109.254 16.8275H103.331Z" fill="#0C234B"/>
<path d="M112.658 15.0915C112.658 15.5847 112.697 15.9595 112.776 16.1962C112.874 16.433 113.012 16.65 113.209 16.8275H110.552C110.749 16.65 110.907 16.433 110.985 16.1962C111.084 15.9595 111.103 15.5847 111.103 15.0915V8.68005C111.103 8.18686 111.064 7.81204 110.985 7.57531C110.887 7.33858 110.749 7.12158 110.552 6.94403H113.917C114.881 6.94403 115.649 7.18076 116.239 7.63449C116.829 8.10795 117.124 8.71951 117.124 9.44943C117.124 10.0018 116.947 10.4753 116.593 10.8698C116.239 11.2841 115.688 11.6589 114.94 11.9548L117.478 15.3874C117.616 15.5847 117.813 15.8017 118.029 16.0384C118.226 16.2752 118.482 16.5119 118.738 16.7486L117.99 16.8275H117.872C117.518 16.8275 117.183 16.7289 116.829 16.5316C116.495 16.3541 116.219 16.0779 115.983 15.7425L113.091 11.6984C113.937 11.5011 114.586 11.2446 114.98 10.8895C115.373 10.5344 115.59 10.1004 115.59 9.56779C115.59 9.0746 115.432 8.66033 115.078 8.34468C114.724 8.02904 114.291 7.87122 113.74 7.87122C113.622 7.87122 113.464 7.89095 113.287 7.91068C113.11 7.93041 112.914 7.96986 112.677 8.00932L112.658 15.0915Z" fill="#0C234B"/>
<path d="M119.21 16.611L118.758 14.8158C119.328 15.1906 119.859 15.4865 120.391 15.664C120.922 15.8416 121.453 15.9402 121.965 15.9402C122.634 15.9402 123.165 15.8021 123.559 15.5062C123.952 15.2103 124.169 14.8355 124.169 14.3818C124.169 14.2634 124.149 14.1056 124.11 13.9872C124.07 13.8688 124.011 13.7307 123.932 13.6124C123.755 13.3362 123.165 12.9614 122.142 12.4485C121.886 12.3301 121.689 12.2315 121.532 12.1525C120.587 11.6594 119.938 11.2254 119.584 10.8111C119.23 10.4165 119.053 9.92334 119.053 9.35124C119.053 8.54241 119.387 7.91113 120.017 7.43767C120.646 6.96421 121.552 6.72748 122.653 6.72748C122.988 6.72748 123.322 6.74721 123.716 6.80639C124.09 6.84584 124.523 6.92475 124.975 7.00366V8.66078C124.582 8.34514 124.169 8.10841 123.755 7.97031C123.362 7.83222 122.929 7.73358 122.476 7.73358C121.925 7.73358 121.473 7.85195 121.138 8.1084C120.784 8.34513 120.627 8.6805 120.627 9.05533C120.627 9.41042 120.745 9.70633 121.02 9.96279C121.276 10.239 121.866 10.5743 122.811 11.0478C122.87 11.0675 122.929 11.107 123.047 11.1662C123.834 11.541 124.405 11.8764 124.798 12.1723C125.093 12.3893 125.31 12.6852 125.467 13.0206C125.625 13.3559 125.703 13.6913 125.703 14.0661C125.703 14.9144 125.329 15.6443 124.562 16.2361C123.795 16.828 122.85 17.1239 121.709 17.1239C121.335 17.1239 120.942 17.0844 120.528 17.0055C120.174 16.9069 119.702 16.7885 119.21 16.611Z" fill="#0C234B"/>
<path d="M129.206 15.0915C129.206 15.5847 129.245 15.9595 129.324 16.1962C129.422 16.433 129.56 16.65 129.757 16.8275H127.081C127.297 16.65 127.435 16.433 127.514 16.1962C127.612 15.9595 127.632 15.5847 127.632 15.0915V8.68005C127.632 8.18686 127.592 7.81204 127.514 7.57531C127.415 7.33858 127.278 7.12158 127.081 6.94403H129.777C129.56 7.12158 129.422 7.33858 129.344 7.57531C129.245 7.81204 129.226 8.18686 129.226 8.68005L129.206 15.0915Z" fill="#0C234B"/>
<path d="M74.5838 23.574L72.99 27.697H76.1776L74.5838 23.574ZM74.7609 20.0427L75.6267 22.193L78.952 30.5772C79.3259 31.5044 79.6013 32.4119 80.5261 32.8854V32.9445H77.2401V32.8854C78.0272 32.5105 77.8895 32.3527 77.4566 31.2085L76.5908 28.9004H72.5178L71.6717 31.2085C71.3175 32.116 71.2192 32.5894 72.0062 32.8854V32.9445H69.0547V32.8854C69.9795 32.4119 70.255 31.5044 70.6092 30.5772L74.7412 20.1019V20.023H74.7609V20.0427Z" fill="#0C234B"/>
<path d="M54.14 23.8905C53.0578 23.8905 52.1724 24.2654 51.464 25.015C50.7557 25.7647 50.4015 26.7313 50.4015 27.915C50.4015 29.1183 50.7557 30.1244 51.4443 30.9333C52.133 31.7421 53.0185 32.1366 54.0416 32.1366C55.1238 32.1366 56.0093 31.7618 56.7176 31.0122C57.4063 30.2428 57.7802 29.2762 57.7802 28.1122C57.7802 26.9089 57.426 25.9027 56.7373 25.0939C56.0683 24.2654 55.1829 23.8905 54.14 23.8905ZM54.1007 33.1822C53.353 33.1822 52.6643 33.0638 52.015 32.8271C51.3656 32.5904 50.795 32.2353 50.3228 31.7816C49.8309 31.3081 49.457 30.736 49.1816 30.1047C48.9061 29.4734 48.788 28.783 48.788 28.0728C48.788 27.5204 48.8864 26.9878 49.0438 26.4551C49.2012 25.9225 49.457 25.449 49.7915 24.9953C50.3031 24.3048 50.9131 23.7525 51.6805 23.3974C52.4282 23.0225 53.2546 22.8253 54.1203 22.8253C54.868 22.8253 55.5764 22.9436 56.2257 23.1804C56.875 23.4171 57.4457 23.7722 57.9179 24.2259C58.4295 24.6994 58.8033 25.2715 59.0591 25.9028C59.3346 26.5538 59.4527 27.2442 59.4527 27.9939C59.4527 28.6843 59.3149 29.3551 59.0001 30.0258C58.7049 30.6768 58.2721 31.2686 57.7408 31.7816C57.2489 32.2353 56.6979 32.5904 56.088 32.8271C55.478 33.0638 54.809 33.1822 54.1007 33.1822Z" fill="#0C234B"/>
<path d="M62.3647 31.2092C62.3647 31.7024 62.4041 32.0772 62.4828 32.3139C62.5812 32.5507 62.7189 32.7677 62.9353 32.9452H60.2593C60.4561 32.7677 60.6135 32.5507 60.6922 32.3139C60.7906 32.0772 60.8103 31.7024 60.8103 31.2092V24.7977C60.8103 24.3045 60.7709 23.9297 60.6922 23.693C60.5938 23.4563 60.4561 23.2393 60.2593 23.0617H65.5917V24.6399C65.3555 24.4426 65.0997 24.3045 64.8046 24.2256C64.5094 24.127 64.1946 24.1073 63.8208 24.1073C63.624 24.1073 63.4272 24.127 63.1714 24.1664C62.9353 24.2059 62.6599 24.2454 62.3647 24.3045V27.1059H64.7652V28.546C64.6472 28.4276 64.4898 28.3092 64.3127 28.2698C64.1159 28.2106 63.7617 28.1711 63.2502 28.1711H62.3647V31.2092Z" fill="#0C234B"/>
<path d="M83.3791 31.2092C83.3791 31.7024 83.4185 32.0575 83.4972 32.3139C83.5956 32.5507 83.7333 32.7677 83.9301 32.9452H81.2737C81.4705 32.7677 81.6279 32.5507 81.7066 32.3139C81.805 32.0772 81.8247 31.7024 81.8247 31.2092V24.7977C81.8247 24.3045 81.7853 23.9297 81.7066 23.693C81.6082 23.4563 81.4705 23.2393 81.2737 23.0617H84.6384C85.6026 23.0617 86.3699 23.2984 86.9602 23.7522C87.5505 24.2256 87.826 24.8372 87.826 25.5671C87.826 26.1195 87.6489 26.5929 87.2947 27.0072C86.9406 27.4215 86.3896 27.7963 85.6419 28.0922L88.1802 31.5248C88.3179 31.7221 88.5147 31.9391 88.7311 32.1561C88.9476 32.3731 89.1837 32.6098 89.4591 32.8663L88.7114 32.9452H88.5934C88.2392 32.9452 87.9047 32.8466 87.5505 32.6493C87.1964 32.4717 86.9406 32.1956 86.7044 31.8602L83.812 27.816C84.6581 27.6188 85.3074 27.3623 85.7009 27.0072C86.0945 26.6521 86.3109 26.2181 86.3109 25.6855C86.3109 25.1923 86.1535 24.778 85.7993 24.4624C85.4451 24.1467 85.0123 23.9889 84.4613 23.9889C84.3433 23.9889 84.1859 24.0086 84.0088 24.0284C83.8317 24.0481 83.6349 24.0875 83.3988 24.127L83.3791 31.2092Z" fill="#0C234B"/>
<path d="M92.3911 31.2092C92.3911 31.7024 92.4305 32.0772 92.5092 32.3139C92.6075 32.5507 92.7453 32.7677 92.9421 32.9452H90.2857C90.4825 32.7677 90.6399 32.5507 90.7186 32.3139C90.817 32.0772 90.8367 31.7024 90.8367 31.2092V24.7977C90.8367 24.3045 90.7973 23.9494 90.7186 23.693C90.6202 23.4563 90.4825 23.2393 90.2857 23.0617H92.9421C92.7256 23.2393 92.5879 23.4563 92.5092 23.693C92.4108 23.9297 92.3911 24.3045 92.3911 24.7977V31.2092Z" fill="#0C234B"/>
<path d="M102.229 31.0906L101.521 32.9252H93.9259L99.1008 24.3043C98.7269 24.2057 98.3531 24.1465 98.0186 24.0873C97.6644 24.0281 97.3692 24.0084 97.0741 24.0084C96.6412 24.0084 96.228 24.0676 95.8345 24.1662C95.441 24.2846 95.0278 24.4424 94.6145 24.6791L95.2835 23.022H101.58L96.4051 31.643C96.9954 31.7219 97.4676 31.7613 97.8612 31.781C98.235 31.8205 98.5892 31.8205 98.8843 31.8205C99.5533 31.8205 100.183 31.7416 100.714 31.643C101.265 31.5443 101.777 31.3273 102.229 31.0906Z" fill="#0C234B"/>
<path d="M107.896 23.8905C106.814 23.8905 105.909 24.2654 105.22 25.015C104.531 25.7647 104.158 26.7313 104.158 27.915C104.158 29.1183 104.512 30.1244 105.2 30.9333C105.889 31.7421 106.775 32.1366 107.798 32.1366C108.88 32.1366 109.765 31.7618 110.474 31.0122C111.162 30.2428 111.536 29.2762 111.536 28.1122C111.536 26.9089 111.182 25.9027 110.493 25.0939C109.785 24.2654 108.919 23.8905 107.896 23.8905ZM107.837 33.1822C107.089 33.1822 106.401 33.0638 105.751 32.8271C105.102 32.5904 104.531 32.2353 104.059 31.7816C103.567 31.3081 103.193 30.736 102.918 30.1047C102.642 29.4734 102.524 28.783 102.524 28.0728C102.524 27.5204 102.623 26.9878 102.78 26.4551C102.938 25.9225 103.193 25.449 103.528 24.9953C104.04 24.3048 104.669 23.7525 105.417 23.3974C106.165 23.0225 106.991 22.8253 107.857 22.8253C108.624 22.8253 109.313 22.9436 109.962 23.1804C110.611 23.4171 111.182 23.7722 111.654 24.2259C112.166 24.6994 112.54 25.2715 112.796 25.9028C113.071 26.5538 113.189 27.2442 113.189 27.9939C113.189 28.6843 113.051 29.3551 112.736 30.0258C112.441 30.6768 112.008 31.2686 111.477 31.7816C110.985 32.2353 110.434 32.5904 109.824 32.8271C109.195 33.0638 108.545 33.1822 107.837 33.1822Z" fill="#0C234B"/>
<path d="M123.342 23.0615C123.126 23.239 122.968 23.456 122.909 23.6928C122.811 23.9295 122.791 24.3043 122.791 24.7975V33.1817C122.437 33.162 122.142 33.0633 121.827 32.8463C121.512 32.6293 121.138 32.2348 120.686 31.643L115.649 25.1723V31.1892C115.649 31.7021 115.688 32.077 115.767 32.3137C115.865 32.5504 115.983 32.7477 116.199 32.9252H113.996C114.192 32.7477 114.35 32.5307 114.429 32.294C114.527 32.0572 114.547 31.6824 114.547 31.1892V24.7778C114.547 24.2846 114.507 23.9295 114.429 23.673C114.33 23.4363 114.192 23.2193 113.996 23.0418H115.963L121.709 30.4593V24.7581C121.709 24.2649 121.65 23.9098 121.591 23.6533C121.492 23.4166 121.355 23.1996 121.158 23.022H123.362L123.342 23.0615Z" fill="#0C234B"/>
<path d="M126.923 28.2698H129.776L128.399 24.4426L126.923 28.2698ZM125.605 31.6037C125.565 31.7024 125.526 31.801 125.506 31.9194C125.487 32.0377 125.467 32.1364 125.467 32.2547C125.467 32.3534 125.506 32.452 125.565 32.5704C125.644 32.6887 125.743 32.8071 125.9 32.9452H123.598C123.775 32.8268 123.952 32.6296 124.109 32.3928C124.247 32.1561 124.424 31.8405 124.582 31.4459L127.317 24.3835C127.376 24.2651 127.415 24.127 127.435 24.0086C127.474 23.8903 127.474 23.7719 127.474 23.6535C127.474 23.5352 127.454 23.4365 127.395 23.3379C127.336 23.2393 127.258 23.1604 127.12 23.042H129.343L132.433 31.3473C132.57 31.7221 132.728 32.018 132.905 32.2547C133.062 32.4915 133.279 32.7085 133.534 32.9255H130.74L130.78 32.886C131.036 32.6098 131.154 32.4126 131.154 32.2745C131.154 32.1364 131.095 31.8996 130.996 31.6037C130.976 31.5446 130.976 31.5051 130.957 31.4854L130.111 29.197H126.49L125.605 31.6037Z" fill="#0C234B"/>
<path d="M138.67 6.92426L141.189 11.2446L142.881 8.44327C142.999 8.28545 143.058 8.10791 143.117 7.96981C143.176 7.83172 143.196 7.71336 143.196 7.61472C143.196 7.49635 143.156 7.39772 143.078 7.27935C142.999 7.16099 142.92 7.06235 142.763 6.92426H145.065L141.74 12.3888V15.0914C141.74 15.5846 141.779 15.9595 141.858 16.1962C141.956 16.4329 142.094 16.6499 142.291 16.8275H139.615C139.831 16.6499 139.969 16.4329 140.047 16.1962C140.146 15.9595 140.166 15.5846 140.166 15.0914V12.3296L137.883 8.56164C137.647 8.20654 137.49 8.18682 137.273 8.08818C137.037 7.98954 136.643 7.98954 136.27 7.98954H135.168V15.052C135.168 15.5452 135.207 15.92 135.286 16.1567C135.384 16.3935 135.522 16.6105 135.719 16.788H133.043C133.239 16.6105 133.397 16.3935 133.476 16.1567C133.574 15.92 133.594 15.5452 133.594 15.052V8.00927H132.807C132.256 8.00927 131.823 8.04872 131.488 8.12763C131.154 8.22627 130.878 8.34464 130.681 8.54191L131.173 6.92426H138.67Z" fill="#0C234B"/>
<path d="M30.7448 0V11.1263H29.6429L34.1095 23.1207L37.9464 23.1601V34.2864H0.934998V23.1601L4.75223 23.1798L9.27781 11.1263H8.1169V0H30.7448Z" fill="white"/>
<path d="M19.4506 4.14315H26.5932V7.02337H23.622L31.4336 27.1849H33.7357V30.144H24.0746V27.2835H21.3396V32.9256H36.6282V24.4822H33.1848L27.695 9.80495H29.4069V1.36157H19.4506H9.47465V9.80495H11.2062L5.69677 24.4822H2.27307V32.9256H17.542V27.2835H14.8266V30.144H5.14583V27.1849H7.44798L15.2595 7.02337H12.2884V4.14315H19.4506Z" fill="#0C234B"/>
<path d="M41.0358 30.4793C41.3112 30.7555 41.449 31.0909 41.449 31.4854C41.449 31.88 41.3112 32.2153 41.0358 32.4915C40.7603 32.7677 40.4258 32.8861 40.0126 32.8861C39.5994 32.8861 39.2649 32.7677 38.9894 32.4915C38.7139 32.2153 38.5762 31.88 38.5762 31.4854C38.5762 31.0909 38.7139 30.7555 38.9894 30.4793C39.2649 30.2031 39.5994 30.0848 40.0126 30.0848C40.4061 30.0453 40.7603 30.2229 41.0358 30.4793ZM40.8193 30.6569C40.6029 30.4399 40.3274 30.3018 39.9929 30.3018C39.6584 30.3018 39.3829 30.4201 39.1665 30.6569C38.9501 30.8739 38.832 31.1698 38.832 31.5052C38.832 31.8405 38.9501 32.1167 39.1665 32.3534C39.3829 32.5704 39.6584 32.7085 39.9929 32.7085C40.3274 32.7085 40.6029 32.5902 40.8193 32.3534C41.0358 32.1364 41.1538 31.8405 41.1538 31.5052C41.1735 31.1501 41.0554 30.8739 40.8193 30.6569ZM39.3829 30.6569H39.501H40.0323C40.2094 30.6569 40.3471 30.6963 40.4455 30.7752C40.5439 30.8541 40.5832 30.9528 40.5832 31.1106C40.5832 31.2684 40.5242 31.3868 40.4455 31.4657C40.3668 31.5446 40.2881 31.5841 40.1503 31.5841L40.6226 32.2943H40.4848H40.3471L39.9339 31.5841H39.6584V32.2943H39.5207H39.4026V30.6569H39.3829ZM39.6387 31.3868H39.9929C40.111 31.3868 40.1897 31.3671 40.2684 31.3079C40.3274 31.2684 40.3668 31.1895 40.3668 31.1106C40.3668 31.0317 40.3274 30.9725 40.2684 30.9331C40.2094 30.8936 40.1306 30.8739 39.9929 30.8739H39.6387V31.3868Z" fill="#0C234B"/>
<path d="M19.4505 4.18225L27.3802 24.7975C27.3802 24.7975 28.4033 27.3029 30.0365 27.3029H24.2713C24.2713 27.3029 24.5664 27.3424 24.8616 26.8689C25.019 26.5927 24.8812 26.1784 24.8812 26.1784L23.0907 21.5819H19.4505H15.8104L14.0198 26.1784C14.0198 26.1784 13.9018 26.5927 14.0592 26.8689C14.3543 27.3424 14.6495 27.3029 14.6495 27.3029H8.84494C10.4978 27.3029 11.5013 24.7975 11.5013 24.7975L19.4505 4.18225ZM19.4309 19.3724H22.2249L19.4505 12.1522L16.6565 19.3724H19.4309Z" fill="#AB0520"/>
</svg>
