<svg width="102" height="18" viewBox="0 0 102 18" fill="none" xmlns="http://www.w3.org/2000/svg">
<path d="M23.3069 13.0837C22.7073 12.5013 22.4161 11.7303 22.4161 10.7881V4.60345C22.4161 3.64406 22.7073 2.89026 23.3069 2.30778C23.9066 1.72529 24.7118 1.43405 25.6883 1.43405C26.6648 1.43405 27.4871 1.72529 28.0867 2.30778C28.6864 2.89026 29.0119 3.66119 29.0119 4.60345V5.28872C29.0119 5.34012 28.9776 5.39152 28.9605 5.44292C28.9091 5.49431 28.8748 5.49431 28.8063 5.49431H27.1959C27.1445 5.49431 27.0931 5.46005 27.0417 5.44292C26.9903 5.39152 26.9903 5.35725 26.9903 5.28872V4.58632C26.9903 4.15802 26.8532 3.81539 26.6134 3.57554C26.3735 3.31856 26.0652 3.1815 25.6883 3.1815C25.2942 3.1815 25.003 3.31856 24.7631 3.57554C24.5233 3.83252 24.4205 4.15802 24.4205 4.58632V10.7881C24.4205 11.2164 24.5233 11.559 24.7631 11.7988C25.003 12.0558 25.2942 12.1929 25.6883 12.1929C26.0823 12.1929 26.3735 12.0558 26.6134 11.7988C26.8532 11.5419 26.9903 11.2164 26.9903 10.7881V9.12627C26.9903 9.07488 26.956 9.04061 26.9046 9.04061H25.8425C25.7911 9.04061 25.7397 9.00635 25.6883 8.98922C25.6369 8.93783 25.6369 8.90356 25.6369 8.83503V7.56728C25.6369 7.51588 25.6711 7.46448 25.6883 7.41308C25.7397 7.36169 25.7739 7.36169 25.8425 7.36169H28.8063C28.8577 7.36169 28.9091 7.39595 28.9605 7.41308C29.0119 7.46448 29.0119 7.49875 29.0119 7.56728V10.7881C29.0119 11.7475 28.6864 12.5013 28.0867 13.0837C27.4871 13.6662 26.6819 13.9575 25.6883 13.9575C24.7118 13.9575 23.9237 13.6662 23.3069 13.0837Z" fill="#19191B"/>
<path d="M35.2822 13.6491L33.8088 8.66367C33.7745 8.61227 33.7574 8.57801 33.7231 8.57801H32.798C32.7466 8.57801 32.7124 8.61227 32.7124 8.66367V13.6319C32.7124 13.6833 32.6781 13.7347 32.661 13.7861C32.6096 13.8375 32.5753 13.8375 32.5068 13.8375H30.8964C30.845 13.8375 30.7936 13.8032 30.7422 13.7861C30.6908 13.7347 30.6908 13.7004 30.6908 13.6319V1.84517C30.6908 1.79378 30.7251 1.74238 30.7422 1.69099C30.7936 1.63959 30.8279 1.63959 30.8964 1.63959H34.1686C34.7682 1.63959 35.3335 1.79378 35.8132 2.08502C36.2929 2.37626 36.6527 2.80456 36.9268 3.35278C37.1838 3.88387 37.3208 4.51774 37.3208 5.20302C37.3208 5.92256 37.1838 6.55644 36.8925 7.0704C36.6013 7.60149 36.2244 7.99553 35.7276 8.25251C35.6762 8.25251 35.6762 8.3039 35.6762 8.35529L37.3894 13.6148C37.3894 13.6491 37.4236 13.6662 37.4236 13.7004C37.4236 13.8032 37.3722 13.8546 37.2352 13.8546H35.5734C35.3849 13.8204 35.3335 13.7518 35.2822 13.6491ZM32.7124 3.43844V6.89908C32.7124 6.95048 32.7466 6.98474 32.798 6.98474H33.8602C34.2885 6.98474 34.6311 6.83056 34.8881 6.50505C35.1451 6.17954 35.2822 5.73411 35.2822 5.18589C35.2822 4.63767 35.1451 4.17511 34.8881 3.83247C34.6311 3.48984 34.2885 3.33565 33.8602 3.33565H32.798C32.7466 3.33565 32.7124 3.38704 32.7124 3.43844Z" fill="#19191B"/>
<path d="M39.548 12.9808C38.9484 12.3469 38.6571 11.4732 38.6571 10.411V1.79369C38.6571 1.74229 38.6914 1.69089 38.7085 1.6395C38.7599 1.5881 38.7942 1.5881 38.8627 1.5881H40.4731C40.5245 1.5881 40.5759 1.62237 40.6273 1.6395C40.6787 1.69089 40.6787 1.72516 40.6787 1.79369V10.6166C40.6787 11.0963 40.7815 11.4561 41.0213 11.7473C41.2612 12.0386 41.5524 12.1928 41.9465 12.1928C42.3405 12.1928 42.6317 12.0386 42.8716 11.7473C43.1114 11.4561 43.2142 11.0792 43.2142 10.6166V1.79369C43.2142 1.74229 43.2485 1.69089 43.2656 1.6395C43.317 1.5881 43.3513 1.5881 43.4198 1.5881H45.0302C45.0816 1.5881 45.133 1.62237 45.1844 1.6395C45.2358 1.69089 45.2358 1.72516 45.2358 1.79369V10.411C45.2358 11.4732 44.9445 12.3127 44.3449 12.9808C43.7453 13.6147 42.9401 13.9573 41.9636 13.9573C40.9528 13.9573 40.1305 13.649 39.548 12.9808Z" fill="#19191B"/>
<path d="M52.6025 12.9638C51.9686 13.5463 51.1806 13.8375 50.1698 13.8375H47.1032C47.0518 13.8375 47.0004 13.8032 46.949 13.7861C46.8976 13.7347 46.8976 13.7004 46.8976 13.6319V1.84517C46.8976 1.79378 46.9318 1.74238 46.949 1.69099C47.0004 1.63959 47.0346 1.63959 47.1032 1.63959H49.8443C50.9578 1.63959 51.8316 1.93083 52.4312 2.47905C53.0651 3.02728 53.3906 3.84961 53.3906 4.91179C53.3906 6.09389 52.9623 6.96761 52.1228 7.48157C52.0714 7.51583 52.0372 7.56723 52.0885 7.58436C52.534 7.8756 52.9109 8.26963 53.1507 8.74932C53.4077 9.22902 53.5448 9.8115 53.5448 10.4968C53.5276 11.5247 53.2364 12.3813 52.6025 12.9638ZM48.9363 3.43844V6.6935C48.9363 6.74489 48.9705 6.77916 49.0219 6.77916H49.9128C50.3925 6.77916 50.7523 6.62497 51.0264 6.33373C51.2833 6.04249 51.4204 5.61419 51.4204 5.10023C51.4204 4.55201 51.2833 4.12371 51.0264 3.79821C50.7694 3.50697 50.3925 3.35278 49.9128 3.35278H49.0219C48.9534 3.33565 48.9363 3.38704 48.9363 3.43844ZM51.1292 11.559C51.3861 11.2335 51.5232 10.7709 51.5232 10.1884C51.5232 9.58879 51.3861 9.1091 51.1292 8.76646C50.8722 8.42383 50.4953 8.26963 50.0156 8.26963H49.0048C48.9534 8.26963 48.9191 8.3039 48.9191 8.35529V11.953C48.9191 12.0044 48.9534 12.0387 49.0048 12.0387H50.0156C50.4953 12.0558 50.8551 11.9016 51.1292 11.559Z" fill="#19191B"/>
<path d="M60.1063 13.6661L58.1704 8.14964C58.1704 8.11537 58.1361 8.09824 58.0847 8.09824H56.3715C56.3201 8.09824 56.2859 8.13251 56.2859 8.1839V13.649C56.2859 13.7518 56.2345 13.8374 56.0974 13.8374H55.5149C55.4121 13.8374 55.3265 13.786 55.3265 13.649V1.79371C55.3265 1.69092 55.3779 1.60526 55.5149 1.60526H58.2389C59.0612 1.60526 59.7122 1.89649 60.2262 2.49611C60.723 3.09573 60.9629 3.90093 60.9629 4.87745C60.9629 5.64838 60.8087 6.33365 60.466 6.86474C60.1234 7.41296 59.678 7.78987 59.0955 7.97832C59.0441 7.97832 59.0441 8.02971 59.0441 8.06398L61.0314 13.6147L61.0657 13.7004C61.0657 13.786 61.0143 13.8374 60.9115 13.8374H60.329C60.2091 13.8203 60.1405 13.7689 60.1063 13.6661ZM56.303 2.49611V7.25878C56.303 7.31017 56.3373 7.34443 56.3886 7.34443H58.1532C58.7357 7.34443 59.1812 7.13886 59.5238 6.6763C59.8664 6.23087 60.0549 5.64839 60.0549 4.91171C60.0549 4.17504 59.8664 3.55829 59.5238 3.11286C59.1812 2.66743 58.7015 2.44472 58.1532 2.44472H56.3886C56.3373 2.41045 56.303 2.44471 56.303 2.49611Z" fill="#19191B"/>
<path d="M63.6697 13.0665C63.1386 12.4669 62.8816 11.6617 62.8816 10.668V1.79371C62.8816 1.69092 62.933 1.60526 63.0701 1.60526H63.6526C63.7553 1.60526 63.841 1.65665 63.841 1.79371V10.7708C63.841 11.4904 64.0295 12.0728 64.3721 12.484C64.7147 12.9123 65.1944 13.1522 65.7769 13.1522C66.3594 13.1522 66.8391 12.9466 67.1989 12.484C67.5758 12.0386 67.7471 11.4732 67.7471 10.7708V1.79371C67.7471 1.69092 67.7985 1.60526 67.9355 1.60526H68.518C68.6208 1.60526 68.7065 1.65665 68.7065 1.79371V10.668C68.7065 11.6445 68.4495 12.4669 67.9184 13.0494C67.3873 13.649 66.6678 13.9402 65.8283 13.9402C64.886 13.9573 64.2008 13.6661 63.6697 13.0665Z" fill="#19191B"/>
<path d="M76.0218 1.60524H76.57C76.6728 1.60524 76.7585 1.65663 76.7585 1.79369V13.649C76.7585 13.7518 76.7071 13.8374 76.57 13.8374H75.8848C75.782 13.8374 75.7306 13.786 75.6963 13.7004L71.9787 3.91804C71.9787 3.88378 71.9444 3.86664 71.9273 3.86664C71.893 3.86664 71.893 3.90091 71.893 3.91804L71.9273 13.6318C71.9273 13.7346 71.8759 13.8203 71.7388 13.8203H71.1564C71.0536 13.8203 70.9679 13.7689 70.9679 13.6318V1.77656C70.9679 1.67376 71.0193 1.5881 71.1564 1.5881H71.8074C71.9102 1.5881 71.9615 1.6395 71.9958 1.72516L75.7134 11.4389C75.7134 11.4732 75.7477 11.4903 75.7648 11.4903C75.7991 11.4903 75.7991 11.4561 75.7991 11.4389V1.77656C75.8505 1.67376 75.9019 1.60524 76.0218 1.60524Z" fill="#19191B"/>
<path d="M84.5535 1.60524H85.1017C85.2045 1.60524 85.2902 1.65663 85.2902 1.79369V13.649C85.2902 13.7518 85.2388 13.8374 85.1017 13.8374H84.4164C84.3136 13.8374 84.2622 13.786 84.228 13.7004L80.4932 3.91804C80.4932 3.88378 80.459 3.86664 80.4418 3.86664C80.4076 3.86664 80.4076 3.90091 80.4076 3.91804L80.4418 13.6318C80.4418 13.7346 80.3904 13.8203 80.2534 13.8203H79.6709C79.5681 13.8203 79.4825 13.7689 79.4825 13.6318V1.77656C79.4825 1.67376 79.5338 1.5881 79.6709 1.5881H80.339C80.4418 1.5881 80.4932 1.6395 80.5275 1.72516L84.2451 11.4389C84.2451 11.4732 84.2794 11.4903 84.2965 11.4903C84.3308 11.4903 84.3308 11.4561 84.3308 11.4389V1.77656C84.365 1.67376 84.4164 1.60524 84.5535 1.60524Z" fill="#19191B"/>
<path d="M93.1537 2.41061H89.0249C88.9735 2.41061 88.9392 2.44487 88.9392 2.49627V7.22468C88.9392 7.27607 88.9735 7.31034 89.0249 7.31034H91.6632C91.766 7.31034 91.8517 7.36173 91.8517 7.49878V7.97847C91.8517 8.08126 91.8003 8.16693 91.6632 8.16693H89.0249C88.9735 8.16693 88.9392 8.20119 88.9392 8.25259V12.981C88.9392 13.0324 88.9735 13.0666 89.0249 13.0666H93.1537C93.2565 13.0666 93.3421 13.118 93.3421 13.2551V13.7348C93.3421 13.8376 93.2907 13.9232 93.1537 13.9232H88.2197C88.1169 13.9232 88.0312 13.8719 88.0312 13.7348V1.87952C88.0312 1.77673 88.0826 1.69107 88.2197 1.69107H93.1537C93.2565 1.69107 93.3421 1.74247 93.3421 1.87952V2.35921C93.325 2.35921 93.2565 2.41061 93.1537 2.41061Z" fill="#19191B"/>
<path d="M100.195 13.6661L98.2591 8.14964C98.2591 8.11537 98.2248 8.09824 98.1734 8.09824H96.4602C96.4088 8.09824 96.3745 8.13251 96.3745 8.1839V13.649C96.3745 13.7518 96.3232 13.8374 96.1861 13.8374H95.6036C95.5008 13.8374 95.4152 13.786 95.4152 13.649V1.79371C95.4152 1.69092 95.4666 1.60526 95.6036 1.60526H98.2933C99.1156 1.60526 99.7667 1.89649 100.281 2.49611C100.777 3.09573 101.017 3.90093 101.017 4.87745C101.017 5.64838 100.863 6.33365 100.52 6.86474C100.178 7.41296 99.7324 7.78987 99.1499 7.97832C99.0985 7.97832 99.0985 8.02971 99.0985 8.06398L101.086 13.6147L101.12 13.7004C101.12 13.786 101.069 13.8374 100.966 13.8374H100.383C100.298 13.8203 100.212 13.7689 100.195 13.6661ZM96.4088 2.49611V7.25878C96.4088 7.31017 96.4431 7.34443 96.4945 7.34443H98.2591C98.8415 7.34443 99.287 7.13886 99.6296 6.6763C99.9722 6.23087 100.161 5.64839 100.161 4.91171C100.161 4.17504 99.9722 3.55829 99.6296 3.11286C99.287 2.66743 98.8073 2.44472 98.2591 2.44472H96.4945C96.4088 2.41045 96.4088 2.44471 96.4088 2.49611Z" fill="#19191B"/>
<path d="M13.5932 13.649C13.5932 13.4948 13.7302 13.3577 13.8844 13.3577C14.0386 13.3577 14.1756 13.4948 14.1756 13.649L14.2784 17.3152C14.2784 17.418 14.227 17.5208 14.1243 17.5722C14.0729 17.6064 14.0386 17.6064 13.9872 17.6064C13.9358 17.6064 13.8501 17.5722 13.7987 17.555L9.32732 13.8888C9.19027 13.786 9.19027 13.5976 9.29306 13.4948C9.39585 13.3577 9.5843 13.3577 9.68709 13.4605" fill="#EF3841"/>
<path d="M17.465 5.34013V3.62693C17.465 2.06793 13.5761 0.800171 8.79627 0.800171C4.01647 0.800171 0.127533 2.06793 0.127533 3.62693V5.37439L17.465 5.34013Z" fill="#EF3841"/>
<path d="M0.144621 5.47724C0.110358 5.47724 0.0589661 5.44297 0.0418342 5.44297C0.0247023 5.44297 0.00756836 5.39158 0.00756836 5.34018V3.59273C0.00756836 1.93093 3.86225 0.628906 8.81337 0.628906C13.7474 0.628906 17.602 1.93093 17.602 3.59273V5.30592C17.602 5.39158 17.5506 5.44297 17.465 5.44297L0.144621 5.47724ZM8.81337 0.903018C4.18776 0.903018 0.281675 2.13652 0.281675 3.59273V5.20312H17.3108V3.60986C17.345 2.15364 13.4218 0.903018 8.81337 0.903018Z" fill="#EF3841"/>
<path d="M0.144592 11.953C0.144592 13.8889 4.03354 14.0089 8.81334 14.0089C13.5931 14.0089 17.4821 13.8547 17.4821 11.953V11.1307H0.144592V11.953Z" fill="#EF3841"/>
<path d="M8.79623 14.146C3.82798 14.146 0.00756836 13.9919 0.00756836 11.9532V11.1308C0.00756836 11.0452 0.058962 10.9938 0.144621 10.9938H17.4478C17.5335 10.9938 17.5849 11.0452 17.5849 11.1308V11.9532C17.602 13.9919 13.7645 14.146 8.79623 14.146ZM0.264547 11.2679V11.9532C0.264547 13.752 4.11922 13.8891 8.79623 13.8891C13.4732 13.8891 17.3279 13.7349 17.3279 11.9532V11.2679H0.264547Z" fill="#EF3841"/>
<path d="M0.692844 8.92076H16.9339C17.3108 8.92076 17.6192 8.62952 17.6192 8.25262C17.6192 7.87572 17.3108 7.58447 16.9339 7.58447H0.692844C0.315943 7.58447 0.00756836 7.87572 0.00756836 8.25262C0.00756836 8.59526 0.315943 8.92076 0.692844 8.92076Z" fill="#EF3841"/>
</svg>
