<svg width="19" height="21" viewBox="0 0 19 21" fill="none" xmlns="http://www.w3.org/2000/svg">
    <path d="M4.10321 0.162598C3.39332 0.162598 2.8125 0.743417 2.8125 1.45331V19.5232C2.8125 20.2331 3.39332 20.8139 4.10321 20.8139H17.0103C17.7202 20.8139 18.301 20.2331 18.301 19.5232V5.32543L13.1382 0.162598H4.10321Z"
          fill="#E2E5E7"/>
    <path d="M14.4289 5.32543H18.301L13.1382 0.162598V4.03473C13.1382 4.74462 13.719 5.32543 14.4289 5.32543Z"
          fill="#B0B7BD"/>
    <path d="M18.301 9.19757L14.4289 5.32544H18.301V9.19757Z" fill="#CAD1D8"/>
    <path d="M15.7196 16.9418C15.7196 17.2967 15.4292 17.5872 15.0742 17.5872H0.876434C0.521489 17.5872 0.231079 17.2967 0.231079 16.9418V10.4883C0.231079 10.1333 0.521489 9.8429 0.876434 9.8429H15.0742C15.4292 9.8429 15.7196 10.1333 15.7196 10.4883V16.9418Z"
          fill="#E25D7B"/>
    <path d="M3.04419 12.39C3.04419 12.2197 3.17842 12.0338 3.39462 12.0338H4.58659C5.25776 12.0338 5.86181 12.483 5.86181 13.3439C5.86181 14.1596 5.25776 14.6139 4.58659 14.6139H3.72504V15.2954C3.72504 15.5226 3.58048 15.651 3.39462 15.651C3.22424 15.651 3.04419 15.5226 3.04419 15.2954V12.39ZM3.72504 12.6837V13.9692H4.58659C4.9325 13.9692 5.20613 13.664 5.20613 13.3439C5.20613 12.9831 4.9325 12.6837 4.58659 12.6837H3.72504Z"
          fill="white"/>
    <path d="M6.87357 15.6511C6.7032 15.6511 6.51733 15.5581 6.51733 15.3316V12.4004C6.51733 12.2152 6.7032 12.0803 6.87357 12.0803H8.05521C10.4133 12.0803 10.3617 15.6511 8.10168 15.6511H6.87357ZM7.19883 12.7102V15.0218H8.05521C9.44853 15.0218 9.51048 12.7102 8.05521 12.7102H7.19883Z"
          fill="white"/>
    <path d="M11.1977 12.7515V13.5718H12.5136C12.6994 13.5718 12.8853 13.7576 12.8853 13.9377C12.8853 14.1081 12.6994 14.2475 12.5136 14.2475H11.1977V15.331C11.1977 15.5117 11.0693 15.6505 10.8886 15.6505C10.6614 15.6505 10.5226 15.5117 10.5226 15.331V12.3998C10.5226 12.2146 10.662 12.0797 10.8886 12.0797H12.7001C12.9272 12.0797 13.0615 12.2146 13.0615 12.3998C13.0615 12.565 12.9272 12.7509 12.7001 12.7509H11.1977V12.7515Z"
          fill="white"/>
    <path d="M15.0742 17.5871H2.8125V18.2325H15.0742C15.4292 18.2325 15.7196 17.9421 15.7196 17.5871V16.9418C15.7196 17.2967 15.4292 17.5871 15.0742 17.5871Z"
          fill="#CAD1D8"/>
</svg>
