<svg width="49" height="61" viewBox="0 0 49 61" fill="none" xmlns="http://www.w3.org/2000/svg">
<path fill-rule="evenodd" clip-rule="evenodd" d="M27.7836 48.6216C39.4919 46.8976 48.4811 36.7593 48.4811 24.5088C48.4811 11.0488 37.6282 0.137085 24.2406 0.137085C10.853 0.137085 0 11.0488 0 24.5088C0 36.3782 8.44097 46.2659 19.6152 48.4372C20.5476 48.8478 21.6573 49.5448 22.3556 50.688C22.7944 51.4053 23.0183 51.9505 23.1552 52.357C23.4268 53.164 23.6396 53.4289 23.9223 53.4289C24.2051 53.4289 24.3976 53.1507 24.6591 52.3305C24.7888 51.926 25.0057 51.388 25.4344 50.688C26.0364 49.7007 26.9465 49.0465 27.7836 48.6216ZM23.8372 60.2537C25.176 60.2537 26.2614 59.1624 26.2614 57.8164C26.2614 56.4704 25.176 55.3791 23.8372 55.3791C22.4984 55.3791 21.4131 56.4704 21.4131 57.8164C21.4131 59.1624 22.4984 60.2537 23.8372 60.2537Z" fill="#E25D7B"/>
<path fill-rule="evenodd" clip-rule="evenodd" d="M39.879 35.0265C35.1772 34.8124 30.4634 34.837 25.7571 34.8926C20.9735 34.9493 16.1894 34.982 11.4059 35.0402C10.0067 35.0572 8.60758 35.074 7.20861 35.0912C7.14146 35.0919 7.11967 35.1433 7.19134 35.1441C7.33312 35.1459 7.4749 35.1476 7.61668 35.1494C8.3125 35.1577 9.00815 35.1662 9.70398 35.1749C14.3766 35.2315 19.0495 35.2782 23.7223 35.3209C26.1898 35.3435 28.6579 35.3951 31.1254 35.385C33.4619 35.3755 35.796 35.3306 38.1312 35.2681C39.1521 35.2409 40.1732 35.204 41.1929 35.1519C41.2218 35.1504 41.3484 35.1595 41.3484 35.1302C41.3484 35.0676 41.2863 35.0884 41.2173 35.0849C40.7713 35.062 40.3253 35.0433 39.879 35.0265C39.4118 35.0051 40.8141 35.0617 39.879 35.0265Z" fill="white"/>
<path fill-rule="evenodd" clip-rule="evenodd" d="M7.19254 33.9109C7.36797 33.9257 7.58108 33.8752 7.75914 33.8632C8.02212 33.8453 8.28527 33.83 8.54826 33.8149C8.97691 33.7908 9.40574 33.7682 9.83422 33.7469C10.925 33.6918 12.0162 33.6422 13.1072 33.5958C15.4463 33.4962 17.7875 33.3885 20.1293 33.3519C20.4801 33.3465 20.8188 33.3744 21.1659 33.3738C21.5162 33.3732 21.8667 33.362 22.2169 33.3523C23.4497 33.3181 24.6816 33.2761 25.9144 33.2395C28.347 33.167 30.7794 33.0805 33.2123 33.0192C34.3598 32.9905 35.5023 33.0653 36.6482 33.1051C37.7451 33.1435 38.8424 33.177 39.9395 33.2017C40.3542 33.2111 40.7685 33.219 41.1832 33.2232C41.2033 33.2237 41.3248 33.2377 41.3397 33.2245C41.4075 33.1634 41.2608 33.1634 41.2357 33.1603C40.324 33.0573 39.4097 32.9657 38.4946 32.8836C37.3498 32.781 36.205 32.6798 35.0591 32.5868C33.8919 32.4921 32.7249 32.5045 31.554 32.5335C29.0857 32.5948 26.6236 32.754 24.1588 32.8773C23.4331 32.9136 22.7069 32.9506 21.9811 32.984C21.6362 32.9998 21.2886 33.0227 20.9437 33.0153L20.9637 33.0195C20.759 32.9844 20.5366 33.0006 20.3295 33.0052C20.0222 33.0118 19.7142 33.022 19.4075 33.0363C18.7978 33.0655 18.1879 33.0924 17.5786 33.1247C16.403 33.1868 15.2285 33.2584 14.0543 33.3353C12.0042 33.4694 9.95194 33.6018 7.90649 33.7827C7.65031 33.8054 7.38925 33.8547 7.13603 33.8739C7.14963 33.9062 7.1683 33.9053 7.19254 33.9109Z" fill="white"/>
<path fill-rule="evenodd" clip-rule="evenodd" d="M7.1866 32.7045C7.61735 32.5924 8.08141 32.549 8.52558 32.4908C8.95232 32.4349 9.3794 32.3832 9.80684 32.333C10.9109 32.2032 12.0173 32.085 13.1243 31.9737C14.3075 31.8548 15.4925 31.745 16.6782 31.6445C17.8768 31.5426 19.0923 31.4239 20.2986 31.4311C20.4824 31.4323 20.6577 31.4495 20.8389 31.4702C21.0607 31.4955 21.2949 31.4751 21.5171 31.4667C22.1098 31.4441 22.7012 31.4008 23.2924 31.3603C24.5281 31.276 25.7639 31.1906 26.9994 31.1053C28.2043 31.0224 29.4106 30.9468 30.6147 30.8557C31.7711 30.7681 32.9565 30.6497 34.119 30.6748C34.5312 30.6837 34.943 30.7466 35.3517 30.7888C35.9394 30.8495 36.5271 30.9102 37.1155 30.9653C38.2037 31.0668 39.2916 31.1697 40.3819 31.2583C40.6853 31.2827 40.9884 31.3067 41.2917 31.3278C41.3318 31.3304 41.3478 31.2817 41.3114 31.2751C41.2155 31.258 41.1199 31.2413 41.024 31.2246C40.0263 31.0516 39.0258 30.8936 38.0238 30.7411C36.8848 30.5675 35.7464 30.3913 34.6039 30.2363C33.7067 30.1147 32.7669 30.1896 31.8655 30.2388C29.4261 30.3717 26.9987 30.623 24.5694 30.8472C23.912 30.9079 23.2535 30.9631 22.5955 31.0202C22.0282 31.0649 21.4243 31.1568 20.8549 31.1148C20.5288 31.054 19.973 31.092 19.5801 31.1148C18.9699 31.1501 18.3611 31.2021 17.7532 31.2587C16.5807 31.3679 15.4111 31.4967 14.2434 31.6366C12.1944 31.8823 10.1422 32.1375 8.11036 32.4697C7.92219 32.5003 7.73437 32.5319 7.54742 32.5675C7.46476 32.5833 7.38192 32.5997 7.30013 32.6187C7.25391 32.6291 7.1655 32.6769 7.12521 32.6769C7.14126 32.7045 7.15974 32.7151 7.1866 32.7045Z" fill="white"/>
<path fill-rule="evenodd" clip-rule="evenodd" d="M7.18869 31.452C7.57236 31.2932 8.01967 31.2199 8.43193 31.132C8.85169 31.0423 9.27354 30.9592 9.6961 30.8786C10.773 30.673 11.8547 30.485 12.9389 30.309C14.1026 30.1199 15.27 29.9459 16.4409 29.7908C17.6273 29.6333 18.841 29.4644 20.0449 29.4631C20.4549 29.4625 20.8455 29.5417 21.2564 29.5304C21.857 29.5138 22.4567 29.4565 23.0535 29.4027C24.2876 29.2906 25.5197 29.1619 26.7516 29.0351C27.9511 28.9108 29.1502 28.7845 30.3495 28.6604C31.5174 28.5398 32.6863 28.3859 33.8614 28.3237C34.7187 28.2786 35.5666 28.5025 36.404 28.6349C37.4771 28.8046 38.5508 28.9752 39.6254 29.1373C40.0833 29.2061 40.5415 29.2764 40.9998 29.3421C41.0939 29.3555 41.1881 29.3689 41.2821 29.3819C41.3275 29.3882 41.3412 29.3395 41.2969 29.3283C40.5036 29.1302 39.7058 28.9429 38.9062 28.7624C37.8096 28.5155 36.7064 28.2874 35.603 28.0627C35.2623 27.9932 34.9062 27.8852 34.5562 27.8526C34.0382 27.804 33.5119 27.8398 32.9938 27.8739C30.5617 28.0335 28.1481 28.3812 25.7373 28.6838C24.8739 28.7926 24.01 28.8992 23.1445 28.9948C22.7083 29.0431 22.2722 29.0891 21.8346 29.1267C21.4892 29.1561 21.1235 29.2022 20.777 29.1649C20.3664 29.1088 19.8396 29.1232 19.3829 29.1556C18.7901 29.1997 18.2005 29.2686 17.613 29.3462C16.4526 29.4994 15.2984 29.6847 14.1494 29.8887C12.136 30.2462 10.1188 30.627 8.14383 31.1143C7.95165 31.1618 7.75982 31.2106 7.57026 31.2643C7.4304 31.304 7.23299 31.3403 7.12521 31.4306C7.143 31.4562 7.16445 31.471 7.18869 31.452Z" fill="white"/>
<path fill-rule="evenodd" clip-rule="evenodd" d="M20.676 27.2734C19.6199 27.113 18.4914 27.3125 17.4529 27.4849C16.286 27.6784 15.1328 27.9261 13.9886 28.1979C11.9737 28.6763 9.95088 29.1983 8.01182 29.8663C7.72913 29.9634 7.34373 30.0577 7.12521 30.2441C7.16759 30.3069 7.19724 30.2557 7.24729 30.2285C7.34216 30.1843 7.43859 30.1437 7.53817 30.1071C7.75616 30.0271 7.97904 29.9561 8.20226 29.8869C8.62115 29.7574 9.0444 29.6374 9.46869 29.5213C10.5014 29.239 11.5433 28.9809 12.5903 28.7394C13.7216 28.4784 14.86 28.2401 16.0058 28.0287C17.1918 27.8102 18.4089 27.5955 19.6261 27.5617C19.8914 27.5544 20.1666 27.5502 20.4289 27.59C20.5712 27.6115 20.7098 27.6412 20.8546 27.6487C21.4529 27.6791 22.0662 27.6034 22.6586 27.5395C23.8982 27.4059 25.1317 27.23 26.3636 27.0536C27.5638 26.8814 28.7622 26.7 29.9599 26.5168C31.129 26.338 32.2983 26.1123 33.4796 25.9983C33.8042 25.9707 34.1422 25.962 34.4648 26.0031C34.8673 26.0548 35.2675 26.164 35.663 26.2443C36.762 26.4682 37.8555 26.722 38.9446 26.9781C39.723 27.1609 40.5069 27.3271 41.2884 27.5003C41.306 27.5044 41.3212 27.4637 41.3168 27.453L41.205 27.4166C41.0057 27.3514 40.8065 27.2857 40.6063 27.2228C40.1327 27.0743 39.6585 26.9266 39.1831 26.7826C38.1066 26.4561 37.0198 26.1306 35.921 25.861C35.4967 25.757 35.0736 25.6488 34.6472 25.5509C34.3143 25.4743 33.9509 25.4863 33.6087 25.4908C33.152 25.4968 32.6945 25.566 32.2451 25.6281C31.6511 25.71 31.0589 25.8013 30.4662 25.8893C29.259 26.0921 28.0517 26.2948 26.8446 26.4988C25.7485 26.6842 24.6514 26.8672 23.5498 27.0258C23.014 27.1029 22.4764 27.1757 21.9365 27.2313C21.673 27.2587 21.4084 27.2827 21.1428 27.2917C20.9993 27.2966 20.8347 27.3096 20.6943 27.2755L20.7037 27.2777L20.676 27.2734Z" fill="white"/>
<path fill-rule="evenodd" clip-rule="evenodd" d="M7.24467 29.0076C7.60392 28.7868 8.02734 28.6299 8.42879 28.4719C8.81333 28.3204 9.2024 28.1765 9.59321 28.0371C10.6038 27.6763 11.6294 27.3449 12.6641 27.0364C13.7622 26.7091 14.8733 26.4112 15.9981 26.1552C17.1459 25.8938 18.3398 25.6509 19.5344 25.6281C19.8973 25.6212 20.2355 25.6566 20.589 25.7149C21.0867 25.7968 21.6301 25.7257 22.1269 25.6692C23.3384 25.5318 24.5377 25.3136 25.7319 25.0971C26.9237 24.8813 28.1115 24.6508 29.2995 24.4203C30.4724 24.1924 31.6424 23.9439 32.8248 23.7531C33.3886 23.6622 33.972 23.5871 34.544 23.6729C35.1015 23.7563 35.6498 23.9103 36.1873 24.0566C37.2725 24.3522 38.3426 24.6815 39.414 25.0114C39.8798 25.1548 40.3449 25.2998 40.81 25.445C40.9351 25.4839 41.0603 25.523 41.1851 25.5621C41.2136 25.571 41.3318 25.6265 41.3114 25.546C41.3002 25.5012 40.9626 25.3973 40.9171 25.3778C40.7136 25.291 40.5078 25.2086 40.3026 25.1257C39.8233 24.9325 39.3439 24.7396 38.8588 24.5567C37.8042 24.159 36.7399 23.7876 35.6527 23.4567C35.1392 23.3004 34.5996 23.1674 34.0517 23.1487C33.4699 23.1291 32.8953 23.2087 32.3259 23.3023C29.9208 23.6981 27.5617 24.2663 25.1798 24.7465C23.9955 24.9853 22.8013 25.2231 21.5912 25.3488C21.2246 25.3869 20.868 25.4009 20.5054 25.344C20.0804 25.2773 19.6502 25.282 19.22 25.3099C18.0411 25.3957 16.8776 25.6508 15.7473 25.9351C14.6361 26.2149 13.542 26.5429 12.4611 26.896C11.4407 27.2297 10.4301 27.5855 9.43608 27.9705C9.04021 28.1237 8.64661 28.2812 8.25841 28.4479C8.03537 28.5439 7.81354 28.6422 7.59694 28.7483C7.51376 28.789 7.12521 28.9422 7.12521 29.0328C7.17108 29.094 7.19985 29.0416 7.24467 29.0076C7.29559 28.9762 7.19532 29.0448 7.24467 29.0076Z" fill="white"/>
<path fill-rule="evenodd" clip-rule="evenodd" d="M7.24258 27.7953C7.90893 27.3182 8.7263 26.9699 9.4938 26.6223C10.4646 26.1827 11.4573 25.7757 12.4651 25.3993C13.5386 24.9983 14.6337 24.6332 15.7506 24.3264C16.8871 24.0144 18.0652 23.7486 19.2651 23.7045C19.6141 23.6916 19.9648 23.7118 20.3063 23.7724C20.7065 23.8435 21.0966 23.8568 21.505 23.8246C22.726 23.7289 23.9298 23.4678 25.1158 23.2164C27.4724 22.7166 29.7934 22.109 32.1449 21.5953C32.9469 21.42 33.739 21.2246 34.5703 21.3399C35.4491 21.4621 36.2994 21.7681 37.1173 22.0526C38.116 22.4001 39.0961 22.7886 40.0664 23.1893C40.46 23.3519 40.854 23.5142 41.2465 23.6787C41.2954 23.699 41.3187 23.6526 41.2743 23.6279C41.1818 23.5763 41.0887 23.5256 40.9951 23.4756C40.1365 23.0141 39.2562 22.5779 38.3553 22.1773C37.3606 21.7351 36.3522 21.3088 35.2813 21.0108C34.7103 20.8519 34.0959 20.7603 33.4953 20.8267C32.3063 20.9572 31.1288 21.2602 29.9812 21.5441C28.2659 21.9686 26.5624 22.4263 24.8398 22.8286C23.9913 23.0267 23.1375 23.2142 22.272 23.3516C21.7342 23.4368 21.0455 23.5511 20.54 23.4535C19.7452 23.3254 18.9669 23.3645 18.171 23.486C17.0117 23.6629 15.879 23.98 14.7843 24.3414C12.7403 25.016 10.7562 25.8464 8.8728 26.7947C8.55436 26.9551 8.2387 27.1194 7.93003 27.2926C7.65013 27.4499 7.34373 27.6101 7.12521 27.8278C7.17457 27.8882 7.20195 27.8333 7.24258 27.7953C7.29298 27.7591 7.19671 27.8386 7.24258 27.7953Z" fill="white"/>
<path fill-rule="evenodd" clip-rule="evenodd" d="M7.24188 26.5632C7.84615 26.0376 8.61644 25.6249 9.3372 25.2202C10.2559 24.7044 11.2037 24.223 12.1744 23.7793C13.1949 23.3129 14.2439 22.8872 15.3251 22.5289C16.4074 22.1702 17.5484 21.861 18.7132 21.777C19.2388 21.7391 19.748 21.7593 20.2644 21.8487C20.5706 21.9017 20.8697 21.9276 21.1824 21.91C22.3826 21.843 23.5695 21.5046 24.7076 21.1988C27.0324 20.5743 29.3099 19.813 31.6646 19.268C32.5336 19.0669 33.4111 18.9184 34.3155 18.9689C35.1372 19.0412 35.9175 19.2849 36.6799 19.5734C37.6964 19.958 38.664 20.4195 39.6203 20.8991C40.0326 21.1058 40.4386 21.3211 40.8439 21.5374C40.9835 21.6119 41.1217 21.6879 41.2601 21.7637L41.2976 21.7215C41.2776 21.7072 41.2575 21.6931 41.2371 21.6789C40.5741 21.2131 39.8739 20.7798 39.1584 20.3721C38.2282 19.8417 37.2599 19.338 36.2305 18.9551C35.8097 18.7988 35.3831 18.6681 34.94 18.5659C34.6247 18.493 34.2888 18.4811 33.9641 18.4682C32.9521 18.4278 31.9663 18.6371 31.0003 18.871C28.6642 19.4365 26.4265 20.2585 24.1265 20.9135C23.1042 21.2046 22.0284 21.5112 20.9423 21.5554C20.6985 21.5654 20.4609 21.5234 20.2229 21.4841C19.626 21.3857 19.0029 21.4113 18.4038 21.4827C17.2401 21.6216 16.1067 21.9573 15.0314 22.3463C13.9704 22.7301 12.944 23.184 11.9471 23.6733C11.0063 24.1352 10.0883 24.6321 9.2003 25.1626C8.8475 25.3734 8.49872 25.5895 8.15813 25.8142C7.81441 26.0411 7.4236 26.2765 7.15451 26.5695L7.12521 26.6013C7.17753 26.6609 7.20299 26.6033 7.24188 26.5632C7.28984 26.5214 7.19706 26.6093 7.24188 26.5632Z" fill="white"/>
<path fill-rule="evenodd" clip-rule="evenodd" d="M7.45305 25.0024C8.07301 24.4576 8.77442 23.9716 9.47635 23.5033C10.352 22.9191 11.2625 22.3692 12.2066 21.8655C13.2047 21.3333 14.2425 20.8462 15.3281 20.4509C16.4096 20.0573 17.5821 19.7255 18.7692 19.6826C19.2749 19.6645 19.7581 19.7104 20.2511 19.7982C20.6364 19.8669 21.0213 19.8729 21.4129 19.8332C22.5742 19.7154 23.706 19.3494 24.793 19.0047C27.0709 18.2828 29.2892 17.4047 31.6217 16.8091C32.2955 16.637 32.9807 16.5053 33.6852 16.4697C33.796 16.4642 33.9095 16.4735 34.0202 16.4765C34.2551 16.483 34.5598 16.474 34.7705 16.5218C35.6363 16.7033 36.4389 16.9726 37.2245 17.3301C38.1748 17.7624 39.0607 18.2835 39.9281 18.8222C40.3161 19.0633 40.6935 19.3178 41.065 19.5768C41.076 19.5846 41.2957 19.7697 41.2953 19.6702C41.295 19.6473 41.1973 19.5828 41.1802 19.5677C40.5472 19.0153 39.8617 18.4997 39.1463 18.0233C38.2839 17.4489 37.3731 16.9192 36.3799 16.5168C35.9541 16.3445 35.5169 16.2062 35.0621 16.0989C34.7335 16.0216 34.392 16.0057 34.053 15.9841C33.1935 15.9392 32.3609 16.0783 31.5359 16.276C30.3591 16.558 29.2238 16.9486 28.0988 17.3494C26.9603 17.7552 25.8338 18.1833 24.6884 18.5755C23.5818 18.9547 22.4035 19.3756 21.2042 19.4804C20.8558 19.511 20.541 19.4856 20.2021 19.4309C19.6749 19.3459 19.1455 19.3252 18.6099 19.364C17.4541 19.4479 16.328 19.7795 15.2761 20.1759C13.5036 20.8439 11.8629 21.7705 10.3328 22.7688C9.70201 23.1803 9.08815 23.6103 8.49591 24.0604C8.19701 24.2877 7.90298 24.5201 7.62186 24.7629C7.49124 24.8754 7.36132 24.9897 7.24308 25.1113C7.20297 25.1525 7.07043 25.2408 7.17594 25.2726C7.17594 25.2022 7.40213 25.0462 7.45305 25.0024C7.64523 24.8334 7.25983 25.1687 7.45305 25.0024Z" fill="white"/>
<path fill-rule="evenodd" clip-rule="evenodd" d="M7.44254 23.7752C8.70741 22.4888 10.2319 21.3332 11.8119 20.3272C13.6104 19.1824 15.6848 18.0963 17.9558 17.8096C18.5403 17.7357 19.1582 17.7223 19.7413 17.8136C20.0195 17.8572 20.2975 17.9318 20.5805 17.9485C21.4288 17.9984 22.2648 17.7995 23.059 17.5674C25.3489 16.8979 27.4843 15.8962 29.7134 15.1027C30.8124 14.7115 31.951 14.3213 33.1406 14.1798C33.853 14.0951 34.5477 14.1441 35.2537 14.284C36.2249 14.4765 37.1495 14.937 37.9634 15.4034C38.8442 15.9082 39.6698 16.4949 40.435 17.118C40.7079 17.3403 40.9812 17.5652 41.2364 17.8019L41.2845 17.7685C41.2732 17.755 41.2618 17.7417 41.2498 17.7284C41.1785 17.6472 41.1045 17.5676 41.0295 17.4888C40.3904 16.8162 39.6789 16.1877 38.9063 15.6223C38.1144 15.043 37.2707 14.5441 36.3318 14.1469C35.5819 13.8297 34.7804 13.6809 33.9478 13.6401C32.9766 13.5922 32.0055 13.8126 31.0939 14.0736C29.9281 14.4072 28.8083 14.853 27.7037 15.3078C26.6051 15.7603 25.5174 16.233 24.4046 16.6613C23.3816 17.0552 22.3131 17.4461 21.19 17.5747C20.5423 17.6488 19.9321 17.4561 19.2897 17.4275C18.1263 17.3757 16.9729 17.6189 15.903 17.9879C13.7876 18.7174 11.9169 19.9242 10.2412 21.2118C9.61756 21.6909 9.0173 22.1914 8.4425 22.7117C8.15964 22.9676 7.88253 23.2284 7.61659 23.4971C7.49765 23.6174 7.38011 23.7392 7.26868 23.8646C7.23014 23.9079 7.06132 24.0348 7.1745 24.067C7.1745 23.9932 7.3918 23.8265 7.44254 23.7752C7.62513 23.5896 7.25996 23.9594 7.44254 23.7752Z" fill="white"/>
<path fill-rule="evenodd" clip-rule="evenodd" d="M8.22126 21.6904C9.52902 20.33 10.9814 19.0499 12.6267 17.974C14.4143 16.805 16.5896 15.7545 18.9284 15.8316C19.6769 15.8561 20.3776 16.0924 21.1318 16.0438C22.306 15.9685 23.4432 15.5143 24.4882 15.0898C26.6498 14.2119 28.6987 13.1429 30.9283 12.3834C32.0088 12.0153 33.1206 11.7597 34.2947 11.809C34.9529 11.8367 35.6454 11.9856 36.2362 12.2265C38.1235 12.9963 39.6353 14.1968 40.9335 15.565C41.0357 15.6724 41.1358 15.7817 41.2301 15.8938C41.2321 15.896 41.2915 15.8786 41.2783 15.859C41.2371 15.7988 41.1949 15.7396 41.152 15.6806C40.9058 15.3415 40.632 15.0172 40.3481 14.6999C39.7129 13.9901 38.9758 13.3373 38.1593 12.7725C36.8583 11.8728 35.2767 11.2463 33.563 11.2946C32.3846 11.3278 31.2173 11.6754 30.1496 12.0737C29.0452 12.486 27.987 12.9771 26.9342 13.474C25.8833 13.9699 24.841 14.4845 23.7533 14.9225C23.2156 15.139 22.668 15.3412 22.0985 15.4908C21.5638 15.6216 20.9791 15.7491 20.4182 15.6698C20.2154 15.6409 20.014 15.6043 19.8122 15.5708C19.3281 15.4903 18.8152 15.4723 18.3238 15.5044C17.1719 15.5793 16.061 15.9017 15.0415 16.3476C13.039 17.2238 11.3294 18.5427 9.82252 19.9378C8.95527 20.7408 8.13894 21.5898 7.4044 22.4814C7.31668 22.5878 7.23001 22.695 7.14665 22.804C7.13183 22.8238 7.12468 22.8665 7.17962 22.8576L7.22338 22.8034C7.53607 22.4204 7.87509 22.0522 8.22126 21.6904C8.91481 20.9688 7.52805 22.4147 8.22126 21.6904Z" fill="white"/>
<path fill-rule="evenodd" clip-rule="evenodd" d="M7.43172 21.3101C8.51348 19.9038 9.69184 18.5523 11.0554 17.3275C12.5916 15.9479 14.4857 14.6133 16.6954 14.1026C17.5165 13.9128 18.353 13.8497 19.1976 13.9322C19.7232 13.9836 20.2333 14.1496 20.7668 14.1425C21.9331 14.1275 23.0361 13.7116 24.0535 13.2671C25.1084 12.8063 26.1187 12.2784 27.1376 11.7649C28.1838 11.2377 29.2366 10.7098 30.3437 10.2765C31.4291 9.85166 32.5804 9.48375 33.7917 9.45287C36.0346 9.3958 37.9965 10.5584 39.4288 11.9067C40.0749 12.5149 40.66 13.1758 41.1492 13.8806C41.1716 13.9132 41.1943 13.946 41.2158 13.9794C41.2168 13.9807 41.2784 13.9696 41.2688 13.9501C41.1975 13.8099 41.1174 13.6726 41.0354 13.5367C40.8093 13.1604 40.5494 12.7972 40.2727 12.4457C39.6823 11.695 38.9778 10.999 38.1623 10.4135C37.2958 9.79166 36.3237 9.35409 35.2286 9.09491C32.8821 8.58928 30.5536 9.49853 28.5636 10.4659C27.5206 10.9728 26.5137 11.5298 25.4924 12.0662C24.486 12.5948 23.4568 13.1313 22.3417 13.4837C21.6103 13.7148 20.882 13.8332 20.1117 13.7156C19.7021 13.653 19.3045 13.5958 18.8896 13.562C17.8408 13.477 16.7085 13.7256 15.7511 14.0664C14.748 14.4237 13.8214 14.9303 12.9833 15.5122C11.4963 16.5439 10.2258 17.7809 9.09507 19.0885C8.63503 19.6207 8.19765 20.1672 7.77946 20.7233C7.57577 20.9939 7.37732 21.2673 7.17746 21.5401C7.16003 21.5638 7.14259 21.5875 7.12532 21.611C7.12514 21.6115 7.16822 21.6513 7.18235 21.633C7.26536 21.5254 7.34871 21.4177 7.43172 21.3101C7.59792 21.094 7.26501 21.526 7.43172 21.3101Z" fill="white"/>
<path d="M39.879 35.0265C35.1772 34.8124 30.4634 34.837 25.7571 34.8926C20.9735 34.9493 16.1894 34.982 11.4059 35.0402C10.0067 35.0572 8.60758 35.074 7.20861 35.0912C7.14147 35.0919 7.11967 35.1433 7.19134 35.1441C7.33312 35.1459 7.4749 35.1476 7.61668 35.1494C8.3125 35.1577 9.00815 35.1662 9.70398 35.1749C14.3766 35.2315 19.0495 35.2782 23.7223 35.3209C26.1898 35.3435 28.6579 35.3951 31.1254 35.385C33.4619 35.3755 35.796 35.3306 38.1312 35.2681C39.1521 35.2409 40.1732 35.204 41.1929 35.1519C41.2218 35.1504 41.3484 35.1595 41.3484 35.1302C41.3484 35.0676 41.2863 35.0884 41.2173 35.0849C40.7713 35.062 40.3253 35.0433 39.879 35.0265ZM39.879 35.0265C39.4118 35.0051 40.8141 35.0617 39.879 35.0265ZM7.24467 29.0076C7.60392 28.7868 8.02734 28.6299 8.42879 28.4719C8.81333 28.3204 9.20239 28.1765 9.59321 28.0371C10.6038 27.6763 11.6294 27.3449 12.6641 27.0364C13.7622 26.7091 14.8733 26.4112 15.9981 26.1552C17.1459 25.8938 18.3398 25.6509 19.5344 25.6281C19.8973 25.6212 20.2355 25.6566 20.589 25.7149C21.0867 25.7968 21.6301 25.7257 22.1269 25.6692C23.3384 25.5318 24.5377 25.3136 25.7319 25.0971C26.9237 24.8813 28.1115 24.6508 29.2995 24.4203C30.4724 24.1924 31.6424 23.9439 32.8248 23.7531C33.3886 23.6622 33.972 23.5871 34.544 23.6729C35.1015 23.7563 35.6498 23.9103 36.1873 24.0566C37.2725 24.3522 38.3426 24.6815 39.414 25.0114C39.8798 25.1548 40.3449 25.2998 40.81 25.445C40.9351 25.4839 41.0603 25.523 41.1851 25.5621C41.2136 25.571 41.3318 25.6265 41.3114 25.546C41.3002 25.5012 40.9626 25.3973 40.9171 25.3778C40.7136 25.291 40.5078 25.2086 40.3026 25.1257C39.8233 24.9325 39.3439 24.7396 38.8588 24.5567C37.8042 24.159 36.7399 23.7876 35.6527 23.4567C35.1392 23.3004 34.5996 23.1674 34.0517 23.1487C33.4699 23.1291 32.8953 23.2087 32.3259 23.3023C29.9208 23.6981 27.5617 24.2663 25.1798 24.7465C23.9955 24.9853 22.8013 25.2231 21.5912 25.3488C21.2246 25.3869 20.868 25.4009 20.5054 25.344C20.0804 25.2773 19.6502 25.282 19.22 25.3099C18.0411 25.3957 16.8776 25.6508 15.7473 25.9351C14.6361 26.2149 13.542 26.5429 12.4611 26.896C11.4407 27.2297 10.4301 27.5855 9.43608 27.9705C9.04021 28.1237 8.64661 28.2812 8.25841 28.4479C8.03537 28.5439 7.81354 28.6422 7.59694 28.7483C7.51376 28.789 7.12521 28.9422 7.12521 29.0328C7.17108 29.094 7.19985 29.0416 7.24467 29.0076ZM7.24467 29.0076C7.29559 28.9762 7.19532 29.0448 7.24467 29.0076ZM7.24258 27.7953C7.90893 27.3182 8.7263 26.9699 9.4938 26.6223C10.4646 26.1827 11.4573 25.7757 12.4651 25.3993C13.5386 24.9983 14.6337 24.6332 15.7506 24.3264C16.8871 24.0144 18.0652 23.7486 19.2651 23.7045C19.6141 23.6916 19.9648 23.7118 20.3063 23.7724C20.7065 23.8435 21.0966 23.8568 21.505 23.8246C22.726 23.7289 23.9298 23.4678 25.1158 23.2164C27.4724 22.7166 29.7934 22.109 32.1449 21.5953C32.9469 21.42 33.739 21.2246 34.5703 21.3399C35.4491 21.4621 36.2994 21.7681 37.1173 22.0526C38.116 22.4001 39.0961 22.7886 40.0664 23.1893C40.46 23.3519 40.854 23.5142 41.2465 23.6787C41.2954 23.699 41.3187 23.6526 41.2743 23.6279C41.1818 23.5763 41.0887 23.5256 40.9951 23.4756C40.1365 23.0141 39.2562 22.5779 38.3553 22.1773C37.3606 21.7351 36.3522 21.3088 35.2813 21.0108C34.7103 20.8519 34.0959 20.7603 33.4953 20.8267C32.3063 20.9572 31.1288 21.2602 29.9812 21.5441C28.2659 21.9686 26.5624 22.4263 24.8398 22.8286C23.9913 23.0267 23.1375 23.2142 22.272 23.3516C21.7342 23.4368 21.0455 23.5511 20.54 23.4535C19.7452 23.3254 18.9669 23.3645 18.171 23.486C17.0117 23.6629 15.879 23.98 14.7843 24.3414C12.7403 25.016 10.7562 25.8464 8.8728 26.7947C8.55436 26.9551 8.2387 27.1194 7.93003 27.2926C7.65013 27.4499 7.34373 27.6101 7.12521 27.8278C7.17457 27.8882 7.20195 27.8333 7.24258 27.7953ZM7.24258 27.7953C7.29298 27.7591 7.19671 27.8386 7.24258 27.7953ZM7.24188 26.5632C7.84615 26.0376 8.61644 25.6249 9.3372 25.2202C10.2559 24.7044 11.2037 24.223 12.1744 23.7793C13.1949 23.3129 14.2439 22.8872 15.3251 22.5289C16.4074 22.1702 17.5484 21.861 18.7132 21.777C19.2388 21.7391 19.748 21.7593 20.2644 21.8487C20.5706 21.9017 20.8697 21.9276 21.1824 21.91C22.3826 21.843 23.5695 21.5046 24.7076 21.1988C27.0324 20.5743 29.3099 19.813 31.6646 19.268C32.5336 19.0669 33.4111 18.9184 34.3155 18.9689C35.1372 19.0412 35.9175 19.2849 36.6799 19.5734C37.6964 19.958 38.664 20.4195 39.6203 20.8991C40.0326 21.1058 40.4386 21.3211 40.8439 21.5374C40.9835 21.6119 41.1217 21.6879 41.2601 21.7637L41.2976 21.7215C41.2776 21.7072 41.2575 21.6931 41.2371 21.6789C40.5741 21.2131 39.8739 20.7798 39.1584 20.3721C38.2282 19.8417 37.2599 19.338 36.2305 18.9551C35.8097 18.7988 35.3831 18.6681 34.94 18.5659C34.6247 18.493 34.2888 18.4811 33.9641 18.4682C32.9521 18.4278 31.9663 18.6371 31.0003 18.871C28.6642 19.4365 26.4265 20.2585 24.1265 20.9135C23.1042 21.2046 22.0284 21.5112 20.9423 21.5554C20.6985 21.5654 20.4609 21.5234 20.2229 21.4841C19.626 21.3857 19.0029 21.4113 18.4038 21.4827C17.2401 21.6216 16.1067 21.9573 15.0314 22.3463C13.9704 22.7301 12.944 23.184 11.9471 23.6733C11.0063 24.1352 10.0883 24.6321 9.2003 25.1626C8.84751 25.3734 8.49872 25.5895 8.15813 25.8142C7.81441 26.0411 7.4236 26.2765 7.15451 26.5695L7.12521 26.6013C7.17753 26.6609 7.20299 26.6033 7.24188 26.5632ZM7.24188 26.5632C7.28984 26.5214 7.19706 26.6093 7.24188 26.5632ZM7.45305 25.0024C8.07301 24.4576 8.77442 23.9716 9.47635 23.5033C10.352 22.9191 11.2625 22.3692 12.2066 21.8655C13.2047 21.3333 14.2425 20.8462 15.3281 20.4509C16.4096 20.0573 17.5821 19.7255 18.7692 19.6826C19.2749 19.6645 19.7581 19.7104 20.2511 19.7982C20.6364 19.8669 21.0213 19.8729 21.4129 19.8332C22.5742 19.7154 23.706 19.3494 24.793 19.0047C27.0709 18.2828 29.2892 17.4047 31.6217 16.8091C32.2955 16.637 32.9807 16.5053 33.6852 16.4697C33.796 16.4642 33.9095 16.4735 34.0202 16.4765C34.2551 16.483 34.5598 16.474 34.7705 16.5218C35.6363 16.7033 36.4389 16.9726 37.2245 17.3301C38.1748 17.7624 39.0607 18.2835 39.9281 18.8222C40.3161 19.0633 40.6935 19.3178 41.065 19.5768C41.076 19.5846 41.2957 19.7697 41.2953 19.6702C41.295 19.6473 41.1973 19.5828 41.1802 19.5677C40.5472 19.0153 39.8617 18.4997 39.1463 18.0233C38.2839 17.4489 37.3731 16.9192 36.3799 16.5169C35.9541 16.3445 35.5169 16.2062 35.0621 16.0989C34.7335 16.0216 34.392 16.0057 34.053 15.9841C33.1935 15.9392 32.3609 16.0783 31.5359 16.276C30.3591 16.558 29.2238 16.9486 28.0988 17.3494C26.9603 17.7552 25.8338 18.1833 24.6884 18.5755C23.5818 18.9547 22.4035 19.3756 21.2042 19.4804C20.8558 19.5109 20.541 19.4856 20.2021 19.4309C19.6749 19.3459 19.1455 19.3252 18.6099 19.364C17.4541 19.4479 16.328 19.7795 15.2761 20.1759C13.5036 20.8439 11.8629 21.7705 10.3328 22.7688C9.70201 23.1803 9.08815 23.6103 8.49591 24.0604C8.19701 24.2877 7.90298 24.5201 7.62186 24.7629C7.49124 24.8754 7.36132 24.9897 7.24308 25.1113C7.20297 25.1525 7.07043 25.2408 7.17594 25.2726C7.17594 25.2022 7.40213 25.0462 7.45305 25.0024ZM7.45305 25.0024C7.64523 24.8334 7.25983 25.1687 7.45305 25.0024ZM7.44254 23.7752C8.70741 22.4888 10.2319 21.3332 11.8119 20.3272C13.6104 19.1824 15.6848 18.0963 17.9558 17.8096C18.5403 17.7357 19.1582 17.7223 19.7413 17.8136C20.0195 17.8572 20.2975 17.9318 20.5805 17.9485C21.4288 17.9984 22.2648 17.7995 23.059 17.5674C25.3489 16.8979 27.4843 15.8962 29.7134 15.1027C30.8124 14.7115 31.951 14.3213 33.1406 14.1798C33.853 14.0951 34.5477 14.1441 35.2537 14.284C36.2249 14.4765 37.1495 14.937 37.9634 15.4034C38.8442 15.9082 39.6698 16.4949 40.435 17.118C40.7079 17.3403 40.9812 17.5652 41.2364 17.8019L41.2845 17.7685C41.2732 17.755 41.2618 17.7417 41.2498 17.7284C41.1785 17.6472 41.1045 17.5676 41.0295 17.4888C40.3904 16.8162 39.6789 16.1877 38.9063 15.6223C38.1144 15.043 37.2707 14.5441 36.3318 14.1469C35.5819 13.8297 34.7804 13.6809 33.9478 13.6401C32.9766 13.5922 32.0055 13.8126 31.0939 14.0736C29.9281 14.4072 28.8083 14.853 27.7037 15.3078C26.6051 15.7603 25.5174 16.233 24.4046 16.6613C23.3816 17.0552 22.3131 17.4461 21.19 17.5748C20.5423 17.6488 19.9321 17.4561 19.2897 17.4275C18.1263 17.3757 16.9729 17.6189 15.903 17.9879C13.7876 18.7174 11.9169 19.9242 10.2412 21.2118C9.61756 21.6909 9.0173 22.1914 8.44251 22.7117C8.15964 22.9676 7.88253 23.2284 7.61659 23.4971C7.49765 23.6174 7.38011 23.7392 7.26868 23.8646C7.23014 23.9079 7.06132 24.0348 7.1745 24.067C7.1745 23.9932 7.3918 23.8265 7.44254 23.7752ZM7.44254 23.7752C7.62513 23.5896 7.25996 23.9594 7.44254 23.7752ZM8.22126 21.6904C9.52902 20.33 10.9814 19.0499 12.6267 17.974C14.4143 16.805 16.5896 15.7545 18.9284 15.8316C19.6769 15.8561 20.3776 16.0924 21.1318 16.0438C22.306 15.9685 23.4432 15.5143 24.4882 15.0898C26.6498 14.2119 28.6987 13.1429 30.9283 12.3834C32.0088 12.0153 33.1206 11.7597 34.2947 11.809C34.9529 11.8367 35.6454 11.9856 36.2362 12.2265C38.1235 12.9963 39.6353 14.1968 40.9335 15.565C41.0357 15.6724 41.1358 15.7817 41.2301 15.8938C41.2321 15.896 41.2915 15.8786 41.2783 15.859C41.2371 15.7988 41.1949 15.7396 41.152 15.6806C40.9058 15.3415 40.632 15.0172 40.3481 14.6999C39.7129 13.9901 38.9758 13.3373 38.1593 12.7725C36.8583 11.8728 35.2767 11.2463 33.563 11.2946C32.3846 11.3278 31.2173 11.6754 30.1496 12.0737C29.0452 12.486 27.987 12.9771 26.9342 13.474C25.8833 13.9699 24.841 14.4845 23.7533 14.9225C23.2156 15.139 22.668 15.3412 22.0985 15.4908C21.5638 15.6216 20.9791 15.7491 20.4182 15.6698C20.2154 15.6409 20.014 15.6043 19.8122 15.5708C19.3281 15.4903 18.8152 15.4723 18.3238 15.5044C17.1719 15.5793 16.061 15.9017 15.0415 16.3476C13.039 17.2238 11.3294 18.5427 9.82252 19.9378C8.95527 20.7408 8.13894 21.5898 7.40441 22.4814C7.31669 22.5878 7.23001 22.695 7.14665 22.804C7.13183 22.8238 7.12468 22.8665 7.17961 22.8576L7.22339 22.8034C7.53607 22.4204 7.87509 22.0522 8.22126 21.6904ZM8.22126 21.6904C8.91481 20.9688 7.52805 22.4147 8.22126 21.6904ZM7.43172 21.3101C8.51348 19.9038 9.69184 18.5523 11.0554 17.3275C12.5916 15.9479 14.4857 14.6133 16.6954 14.1026C17.5165 13.9128 18.353 13.8497 19.1976 13.9322C19.7232 13.9836 20.2333 14.1496 20.7668 14.1425C21.9331 14.1275 23.0361 13.7116 24.0535 13.2671C25.1084 12.8063 26.1187 12.2784 27.1376 11.7649C28.1838 11.2377 29.2366 10.7098 30.3437 10.2765C31.4291 9.85166 32.5804 9.48375 33.7917 9.45287C36.0346 9.3958 37.9965 10.5584 39.4288 11.9067C40.0749 12.5149 40.66 13.1758 41.1492 13.8806C41.1716 13.9132 41.1943 13.946 41.2158 13.9794C41.2168 13.9807 41.2784 13.9696 41.2688 13.9501C41.1975 13.8099 41.1174 13.6726 41.0354 13.5367C40.8093 13.1604 40.5494 12.7972 40.2727 12.4457C39.6823 11.695 38.9778 10.999 38.1623 10.4135C37.2958 9.79166 36.3237 9.35409 35.2286 9.09491C32.8821 8.58928 30.5536 9.49853 28.5636 10.4659C27.5206 10.9728 26.5137 11.5298 25.4924 12.0662C24.486 12.5948 23.4568 13.1313 22.3417 13.4837C21.6103 13.7148 20.882 13.8332 20.1118 13.7156C19.7021 13.653 19.3045 13.5958 18.8896 13.562C17.8408 13.477 16.7085 13.7256 15.7511 14.0664C14.748 14.4237 13.8214 14.9303 12.9833 15.5122C11.4963 16.5439 10.2258 17.7809 9.09507 19.0885C8.63503 19.6207 8.19765 20.1672 7.77946 20.7233C7.57577 20.9939 7.37732 21.2673 7.17746 21.5401C7.16002 21.5638 7.14259 21.5875 7.12532 21.611C7.12515 21.6115 7.16822 21.6513 7.18235 21.633C7.26536 21.5254 7.34871 21.4177 7.43172 21.3101ZM7.43172 21.3101C7.59792 21.094 7.26501 21.526 7.43172 21.3101ZM7.19254 33.9109C7.36797 33.9257 7.58108 33.8752 7.75914 33.8632C8.02212 33.8453 8.28528 33.83 8.54826 33.8149C8.97691 33.7908 9.40574 33.7682 9.83422 33.7469C10.925 33.6918 12.0162 33.6422 13.1072 33.5958C15.4463 33.4962 17.7875 33.3885 20.1293 33.3519C20.4801 33.3465 20.8188 33.3744 21.1659 33.3738C21.5162 33.3732 21.8667 33.362 22.2169 33.3523C23.4497 33.3181 24.6816 33.2761 25.9144 33.2395C28.347 33.167 30.7794 33.0805 33.2123 33.0192C34.3598 32.9905 35.5023 33.0653 36.6482 33.1051C37.7451 33.1435 38.8424 33.177 39.9395 33.2017C40.3542 33.2111 40.7685 33.219 41.1832 33.2232C41.2033 33.2237 41.3248 33.2377 41.3397 33.2245C41.4075 33.1634 41.2608 33.1634 41.2357 33.1603C40.324 33.0573 39.4097 32.9657 38.4946 32.8836C37.3498 32.781 36.205 32.6798 35.0591 32.5868C33.8919 32.4921 32.7249 32.5045 31.554 32.5335C29.0857 32.5948 26.6236 32.754 24.1588 32.8773C23.4331 32.9136 22.707 32.9506 21.9811 32.984C21.6362 32.9998 21.2886 33.0227 20.9437 33.0153L20.9637 33.0195C20.759 32.9844 20.5366 33.0006 20.3295 33.0052C20.0222 33.0118 19.7142 33.022 19.4075 33.0363C18.7978 33.0655 18.1879 33.0924 17.5786 33.1247C16.403 33.1868 15.2285 33.2584 14.0543 33.3353C12.0042 33.4694 9.95194 33.6018 7.9065 33.7827C7.65031 33.8054 7.38925 33.8547 7.13603 33.8739C7.14963 33.9062 7.1683 33.9053 7.19254 33.9109ZM7.1866 32.7045C7.61735 32.5924 8.0814 32.549 8.52558 32.4908C8.95232 32.4349 9.3794 32.3832 9.80684 32.333C10.9109 32.2032 12.0173 32.085 13.1243 31.9737C14.3075 31.8548 15.4925 31.745 16.6782 31.6445C17.8768 31.5426 19.0923 31.4239 20.2986 31.4311C20.4824 31.4323 20.6577 31.4495 20.8389 31.4702C21.0607 31.4955 21.2949 31.4751 21.5171 31.4667C22.1098 31.4441 22.7012 31.4008 23.2924 31.3603C24.5281 31.276 25.7639 31.1906 26.9994 31.1053C28.2043 31.0224 29.4106 30.9468 30.6147 30.8557C31.7711 30.7681 32.9565 30.6497 34.119 30.6748C34.5312 30.6837 34.943 30.7466 35.3517 30.7888C35.9394 30.8495 36.5271 30.9102 37.1155 30.9653C38.2037 31.0668 39.2916 31.1697 40.3819 31.2583C40.6853 31.2827 40.9884 31.3067 41.2917 31.3278C41.3318 31.3304 41.3478 31.2817 41.3114 31.2751C41.2155 31.258 41.1199 31.2413 41.024 31.2246C40.0263 31.0516 39.0258 30.8936 38.0238 30.7411C36.8848 30.5675 35.7464 30.3913 34.6039 30.2363C33.7067 30.1147 32.7669 30.1896 31.8655 30.2388C29.4261 30.3717 26.9987 30.623 24.5694 30.8472C23.912 30.9079 23.2535 30.9631 22.5955 31.0202C22.0282 31.0649 21.4243 31.1568 20.8549 31.1148C20.5288 31.054 19.973 31.092 19.5801 31.1148C18.9699 31.1501 18.3611 31.2021 17.7532 31.2587C16.5807 31.3679 15.4111 31.4967 14.2434 31.6366C12.1944 31.8823 10.1422 32.1375 8.11036 32.4697C7.92219 32.5003 7.73437 32.5319 7.54742 32.5675C7.46476 32.5833 7.38192 32.5997 7.30013 32.6187C7.25391 32.6291 7.1655 32.6769 7.12521 32.6769C7.14126 32.7045 7.15974 32.7151 7.1866 32.7045ZM7.18869 31.452C7.57236 31.2932 8.01967 31.2199 8.43193 31.1321C8.85169 31.0423 9.27355 30.9592 9.6961 30.8786C10.773 30.673 11.8547 30.485 12.9389 30.309C14.1026 30.1199 15.27 29.9459 16.4409 29.7908C17.6273 29.6333 18.841 29.4644 20.0449 29.4631C20.4549 29.4625 20.8455 29.5417 21.2564 29.5304C21.857 29.5138 22.4567 29.4565 23.0535 29.4027C24.2876 29.2906 25.5197 29.1619 26.7516 29.0351C27.9511 28.9108 29.1502 28.7845 30.3495 28.6604C31.5174 28.5398 32.6863 28.3859 33.8614 28.3237C34.7187 28.2786 35.5666 28.5025 36.404 28.6349C37.4771 28.8046 38.5508 28.9752 39.6254 29.1373C40.0833 29.2061 40.5415 29.2764 40.9998 29.3421C41.0939 29.3555 41.1881 29.3689 41.2821 29.3819C41.3275 29.3882 41.3412 29.3395 41.2969 29.3283C40.5036 29.1302 39.7058 28.9429 38.9062 28.7624C37.8096 28.5155 36.7064 28.2874 35.603 28.0627C35.2623 27.9932 34.9062 27.8852 34.5562 27.8526C34.0382 27.804 33.5119 27.8398 32.9938 27.8739C30.5617 28.0335 28.1481 28.3812 25.7373 28.6838C24.8739 28.7926 24.01 28.8992 23.1445 28.9948C22.7083 29.0431 22.2722 29.0891 21.8346 29.1267C21.4892 29.1561 21.1235 29.2022 20.777 29.1649C20.3664 29.1088 19.8396 29.1232 19.3829 29.1556C18.7901 29.1997 18.2005 29.2686 17.613 29.3462C16.4526 29.4994 15.2984 29.6847 14.1494 29.8887C12.136 30.2462 10.1188 30.627 8.14383 31.1143C7.95165 31.1618 7.75982 31.2106 7.57026 31.2643C7.4304 31.304 7.23299 31.3403 7.12521 31.4306C7.143 31.4562 7.16445 31.471 7.18869 31.452ZM20.676 27.2734C19.6199 27.113 18.4914 27.3125 17.4529 27.4849C16.286 27.6784 15.1328 27.9261 13.9886 28.1979C11.9737 28.6763 9.95088 29.1983 8.01182 29.8663C7.72913 29.9634 7.34373 30.0577 7.12521 30.2441C7.16759 30.3069 7.19724 30.2557 7.24729 30.2285C7.34216 30.1843 7.4386 30.1437 7.53817 30.1071C7.75616 30.0271 7.97904 29.9561 8.20226 29.8869C8.62115 29.7574 9.04439 29.6374 9.46869 29.5213C10.5014 29.239 11.5433 28.9809 12.5903 28.7394C13.7216 28.4784 14.86 28.2401 16.0058 28.0287C17.1918 27.8102 18.4089 27.5955 19.6261 27.5617C19.8914 27.5544 20.1666 27.5502 20.4289 27.59C20.5712 27.6115 20.7098 27.6412 20.8546 27.6487C21.4529 27.6791 22.0662 27.6034 22.6586 27.5395C23.8982 27.4059 25.1317 27.23 26.3636 27.0536C27.5638 26.8814 28.7622 26.7 29.9599 26.5168C31.129 26.338 32.2983 26.1123 33.4796 25.9983C33.8042 25.9707 34.1422 25.962 34.4648 26.0031C34.8673 26.0548 35.2675 26.164 35.663 26.2443C36.762 26.4682 37.8555 26.722 38.9446 26.9781C39.723 27.1609 40.5069 27.3271 41.2884 27.5003C41.306 27.5044 41.3212 27.4637 41.3168 27.453L41.205 27.4166C41.0057 27.3514 40.8065 27.2857 40.6063 27.2228C40.1327 27.0743 39.6585 26.9266 39.1831 26.7826C38.1066 26.4561 37.0198 26.1306 35.921 25.861C35.4967 25.757 35.0736 25.6488 34.6472 25.5509C34.3143 25.4743 33.9509 25.4863 33.6087 25.4908C33.152 25.4968 32.6945 25.566 32.2451 25.6281C31.6511 25.71 31.0589 25.8013 30.4662 25.8893C29.259 26.0921 28.0517 26.2948 26.8446 26.4988C25.7485 26.6842 24.6514 26.8672 23.5498 27.0258C23.014 27.1029 22.4764 27.1757 21.9365 27.2313C21.673 27.2587 21.4084 27.2827 21.1428 27.2917C20.9993 27.2966 20.8347 27.3096 20.6943 27.2755L20.7037 27.2777L20.676 27.2734Z" stroke="white" stroke-width="0.5"/>
</svg>
