<svg width="23" height="13" viewBox="0 0 23 13" fill="none" xmlns="http://www.w3.org/2000/svg">
    <path d="M18.8328 7.37992C18.48 6.96428 18.581 6.77937 18.8328 6.40784C18.8374 6.4036 21.7498 2.64933 22.0499 1.37613L22.0517 1.37528C22.2008 0.911302 22.0517 0.570312 21.3306 0.570312H18.9447C18.3373 0.570312 18.0572 0.862952 17.9072 1.19037C17.9072 1.19037 16.6924 3.90302 14.9739 5.6614C14.4192 6.16949 14.1628 6.33235 13.86 6.33235C13.7109 6.33235 13.479 6.16949 13.479 5.70551V1.37528C13.479 0.818844 13.309 0.570312 12.8062 0.570312H9.05449C8.6735 0.570312 8.44709 0.829872 8.44709 1.07162C8.44709 1.59922 9.30636 1.72051 9.39547 3.20492V6.42566C9.39547 7.13138 9.25817 7.26116 8.95356 7.26116C8.14248 7.26116 6.1739 4.53749 5.0073 1.42024C4.7718 0.815451 4.54175 0.571161 3.92981 0.571161H1.54296C0.86191 0.571161 0.724609 0.863801 0.724609 1.19122C0.724609 1.76971 1.53568 4.64607 4.49629 8.44614C6.46942 11.04 9.24816 12.4456 11.776 12.4456C13.2954 12.4456 13.4808 12.1334 13.4808 11.5965C13.4808 9.11794 13.3435 8.88383 14.1046 8.88383C14.4574 8.88383 15.0648 9.04669 16.4833 10.2978C18.1045 11.7814 18.3709 12.4456 19.2784 12.4456H21.6643C22.3445 12.4456 22.6891 12.1334 22.4909 11.5176C22.0371 10.2223 18.9711 7.55805 18.8328 7.37992V7.37992Z"
          fill="white"/>
</svg>
